{
.appVersion = "1286";
date = "2021-11-08 09:41:07 +0000";
familyName = Filidron;
featurePrefixes = (
{
automatic = 1;
code = "languagesystem DFLT dflt;\012";
name = Languagesystems;
}
);
features = (
{
automatic = 1;
code = "lookupflag IgnoreMarks;\012sub bar j by bar_j;\012sub g j by g_j;\012sub j j by j_j;\012sub q j by q_j;\012sub y j by y_j;\012";
name = dlig;
}
);
fontMaster = (
{
ascender = 800;
capHeight = 600;
custom = Heavy;
descender = -200;
id = "9FEBDF96-C5A3-469C-9009-8CF8388B2B9F";
xHeight = 400;
},
{
ascender = 800;
capHeight = 600;
custom = Robot;
descender = -200;
id = "F1DD319B-D5A5-4BA6-A343-EFA3D63A9498";
weightValue = 1000;
xHeight = 500;
}
);
glyphs = (
{
glyphname = A;
lastChange = "2021-12-16 21:07:17 +0000";
layers = (
{
background = {
paths = (
{
closed = 1;
nodes = (
"125 0 LINE",
"125 174 LINE",
"225 174 LINE",
"225 0 LINE",
"425 0 LINE",
"425 499 LINE",
"25 600 LINE",
"25 0 LINE"
);
},
{
closed = 1;
nodes = (
"125 427 LINE",
"225 427 LINE",
"225 272 LINE",
"125 297 LINE"
);
}
);
};
components = (
{
name = _eye;
transform = "{1, 0, 0, 1, 311, -71}";
},
{
name = _eye;
transform = "{1, 0, 0, 1, 70, -71}";
},
{
name = _eye;
transform = "{1, 0, 0, 1, 311, 114}";
},
{
name = _eye;
transform = "{1, 0, 0, 1, 70, 114}";
},
{
name = _eye;
transform = "{1, 0, 0, 1, 311, -179}";
},
{
name = _eye;
transform = "{1, 0, 0, 1, 70, -179}";
},
{
name = _eye;
transform = "{1, 0, 0, 1, 311, 15}";
},
{
name = _eye;
transform = "{1, 0, 0, 1, 70, 15}";
}
);
layerId = "9FEBDF96-C5A3-469C-9009-8CF8388B2B9F";
paths = (
{
closed = 1;
nodes = (
"25 0 LINE",
"41 0 LINE",
"53 592 LINE",
"25 600 LINE"
);
},
{
closed = 1;
nodes = (
"25 567 LINE",
"425 484 LINE",
"425 499 LINE",
"25 600 LINE"
);
},
{
closed = 1;
nodes = (
"25 193 LINE",
"425 179 LINE",
"425 194 LINE",
"25 229 LINE"
);
},
{
closed = 1;
nodes = (
"101 0 LINE",
"125 0 LINE",
"125 574 LINE",
"96 582 LINE"
);
},
{
closed = 1;
nodes = (
"25 219 LINE",
"425 191 LINE",
"425 212 LINE",
"25 251 LINE"
);
},
{
closed = 1;
nodes = (
"77 0 LINE",
"106 0 LINE",
"99 581 LINE",
"76 587 LINE"
);
},
{
closed = 1;
nodes = (
"25 244 LINE",
"425 206 LINE",
"425 222 LINE",
"25 299 LINE"
);
},
{
closed = 1;
nodes = (
"334 0 LINE",
"395 0 LINE",
"367 513 LINE",
"320 525 LINE"
);
},
{
closed = 1;
nodes = (
"25 217 LINE",
"425 194 LINE",
"425 215 LINE",
"25 257 LINE"
);
},
{
closed = 1;
nodes = (
"225 0 LINE",
"270 0 LINE",
"281 535 LINE",
"225 549 LINE"
);
},
{
closed = 1;
nodes = (
"25 174 LINE",
"425 174 LINE",
"425 196 LINE",
"25 223 LINE"
);
},
{
closed = 1;
nodes = (
"390 0 LINE",
"425 0 LINE",
"425 499 LINE",
"367 513 LINE"
);
},
{
closed = 1;
nodes = (
"25 292 LINE",
"425 215 LINE",
"425 222 LINE",
"25 322 LINE"
);
},
{
closed = 1;
nodes = (
"299 0 LINE",
"348 0 LINE",
"357 516 LINE",
"304 529 LINE"
);
},
{
closed = 1;
nodes = (
"25 427 LINE",
"425 427 LINE",
"425 436 LINE",
"25 460 LINE"
);
},
{
closed = 1;
nodes = (
"62 0 LINE",
"86 0 LINE",
"86 584 LINE",
"71 588 LINE"
);
},
{
closed = 1;
nodes = (
"25 452 LINE",
"425 436 LINE",
"425 456 LINE",
"25 484 LINE"
);
},
{
closed = 1;
nodes = (
"341 0 LINE",
"396 0 LINE",
"357 516 LINE",
"317 526 LINE"
);
},
{
closed = 1;
nodes = (
"25 478 LINE",
"425 452 LINE",
"425 465 LINE",
"25 518 LINE"
);
},
{
closed = 1;
nodes = (
"54 0 LINE",
"70 0 LINE",
"76 587 LINE",
"46 594 LINE"
);
},
{
closed = 1;
nodes = (
"25 512 LINE",
"425 462 LINE",
"425 474 LINE",
"25 555 LINE"
);
},
{
closed = 1;
nodes = (
"261 0 LINE",
"304 0 LINE",
"310 528 LINE",
"278 535 LINE"
);
},
{
closed = 1;
nodes = (
"25 554 LINE",
"425 470 LINE",
"425 484 LINE",
"25 573 LINE"
);
},
{
closed = 1;
nodes = (
"37 0 LINE",
"57 0 LINE",
"49 593 LINE",
"37 596 LINE"
);
}
);
width = 450;
},
{
components = (
{
name = _eye;
transform = "{1, 0, 0, 1, 303, -71}";
},
{
name = _eye;
transform = "{1, 0, 0, 1, 121, -71}";
},
{
name = _eye;
transform = "{1, 0, 0, 1, 303, 114}";
},
{
name = _eye;
transform = "{1, 0, 0, 1, 121, 114}";
},
{
name = _eye;
transform = "{1, 0, 0, 1, 303, -179}";
},
{
name = _eye;
transform = "{1, 0, 0, 1, 121, -179}";
},
{
name = _eye;
transform = "{1, 0, 0, 1, 303, 15}";
},
{
name = _eye;
transform = "{1, 0, 0, 1, 121, 15}";
}
);
layerId = "F1DD319B-D5A5-4BA6-A343-EFA3D63A9498";
paths = (
{
closed = 1;
nodes = (
"25 3 LINE",
"41 21 LINE",
"48 568 LINE",
"25 585 LINE"
);
},
{
closed = 1;
nodes = (
"48 568 LINE",
"411 585 LINE",
"425 600 LINE",
"25 585 LINE"
);
},
{
closed = 1;
nodes = (
"25 3 LINE",
"170 6 LINE",
"153 21 LINE",
"41 21 LINE"
);
},
{
closed = 1;
nodes = (
"153 21 LINE",
"170 6 LINE",
"180 182 LINE",
"161 157 LINE"
);
},
{
closed = 1;
nodes = (
"78 167 LINE",
"161 157 LINE",
"180 182 LINE",
"97 178 LINE"
);
},
{
closed = 1;
nodes = (
"78 167 LINE",
"97 178 LINE",
"100 244 LINE",
"77 264 LINE"
);
},
{
closed = 1;
nodes = (
"100 244 LINE",
"358 251 LINE",
"377 267 LINE",
"77 264 LINE"
);
},
{
closed = 1;
nodes = (
"353 185 LINE",
"377 160 LINE",
"377 267 LINE",
"358 251 LINE"
);
},
{
closed = 1;
nodes = (
"278 165 LINE",
"377 160 LINE",
"353 185 LINE",
"262 184 LINE"
);
},
{
closed = 1;
nodes = (
"250 1 LINE",
"267 15 LINE",
"278 165 LINE",
"262 184 LINE"
);
},
{
closed = 1;
nodes = (
"250 1 LINE",
"423 3 LINE",
"406 23 LINE",
"267 15 LINE"
);
},
{
closed = 1;
nodes = (
"406 23 LINE",
"423 3 LINE",
"425 600 LINE",
"411 585 LINE"
);
},
{
closed = 1;
nodes = (
"68 292 LINE",
"372 282 LINE",
"351 299 LINE",
"92 306 LINE"
);
},
{
closed = 1;
nodes = (
"351 299 LINE",
"372 282 LINE",
"372 366 LINE",
"347 349 LINE"
);
},
{
closed = 1;
nodes = (
"92 341 LINE",
"347 349 LINE",
"372 366 LINE",
"77 357 LINE"
);
},
{
closed = 1;
nodes = (
"68 292 LINE",
"92 306 LINE",
"92 341 LINE",
"77 357 LINE"
);
},
{
closed = 1;
nodes = (
"72 382 LINE",
"374 381 LINE",
"356 393 LINE",
"88 396 LINE"
);
},
{
closed = 1;
nodes = (
"356 393 LINE",
"374 381 LINE",
"363 440 LINE",
"351 427 LINE"
);
},
{
closed = 1;
nodes = (
"87 424 LINE",
"351 427 LINE",
"363 440 LINE",
"64 441 LINE"
);
},
{
closed = 1;
nodes = (
"72 382 LINE",
"88 396 LINE",
"87 424 LINE",
"64 441 LINE"
);
},
{
closed = 1;
nodes = (
"89 529 LINE",
"362 534 LINE",
"374 548 LINE",
"77 541 LINE"
);
},
{
closed = 1;
nodes = (
"365 490 LINE",
"382 473 LINE",
"374 548 LINE",
"362 534 LINE"
);
},
{
closed = 1;
nodes = (
"77 473 LINE",
"382 473 LINE",
"365 490 LINE",
"93 486 LINE"
);
},
{
closed = 1;
nodes = (
"77 473 LINE",
"93 486 LINE",
"89 529 LINE",
"77 541 LINE"
);
}
);
width = 450;
},
{
associatedMasterId = "9FEBDF96-C5A3-469C-9009-8CF8388B2B9F";
components = (
{
name = H;
},
{
alignment = -1;
name = _Lbottom;
transform = "{1, 0, 0, 1, 25, 427}";
}
);
layerId = "05A275A4-F28A-44EC-8AC4-FF65D7980058";
name = "Dec 4 21, 14:08";
width = 450;
}
);
unicode = 0041;
},
{
glyphname = B;
lastChange = "2021-12-23 08:36:23 +0000";
layers = (
{
background = {
paths = (
{
closed = 1;
nodes = (
"225 0 LINE",
"425 52 LINE",
"425 136 LINE",
"375 149 LINE",
"375 174 LINE",
"425 174 LINE",
"425 500 LINE",
"25 600 LINE",
"25 0 LINE"
);
},
{
closed = 1;
nodes = (
"125 174 LINE",
"225 174 LINE",
"225 125 LINE",
"125 101 LINE"
);
},
{
closed = 1;
nodes = (
"125 426 LINE",
"225 426 LINE",
"225 272 LINE",
"125 297 LINE"
);
}
);
};
components = (
{
name = _eye;
transform = "{1, 0, 0, 1, 288, -304}";
},
{
name = _eye;
transform = "{1, 0, 0, 1, 288, -127}";
}
);
layerId = "9FEBDF96-C5A3-469C-9009-8CF8388B2B9F";
paths = (
{
closed = 1;
nodes = (
"425 192 LINE",
"25 218 LINE",
"25 174 LINE",
"425 174 LINE"
);
},
{
closed = 1;
nodes = (
"98 0 LINE",
"103 577 LINE",
"59 588 LINE",
"46 0 LINE"
);
},
{
closed = 1;
nodes = (
"425 85 LINE",
"425 136 LINE",
"225 125 LINE",
"25 77 LINE",
"25 13 LINE"
);
},
{
closed = 1;
nodes = (
"425 474 LINE",
"25 534 LINE",
"25 426 LINE",
"425 426 LINE"
);
},
{
closed = 1;
nodes = (
"125 0 LINE",
"125 565 LINE",
"103 577 LINE",
"98 0 LINE"
);
},
{
closed = 1;
nodes = (
"297 528 LINE",
"297 23 LINE",
"375 41 LINE",
"367 505 LINE"
);
},
{
closed = 1;
nodes = (
"425 500 LINE",
"25 600 LINE",
"25 522 LINE",
"425 455 LINE"
);
},
{
closed = 1;
nodes = (
"107 0 LINE",
"109 577 LINE",
"59 588 LINE",
"61 0 LINE"
);
},
{
closed = 1;
nodes = (
"71 0 LINE",
"92 579 LINE",
"25 600 LINE",
"25 0 LINE"
);
},
{
closed = 1;
nodes = (
"425 186 LINE",
"425 221 LINE",
"25 323 LINE",
"25 203 LINE"
);
},
{
closed = 1;
nodes = (
"225 0 LINE",
"425 52 LINE",
"425 104 LINE",
"25 60 LINE",
"25 0 LINE"
);
},
{
closed = 1;
nodes = (
"348 156 LINE",
"352 37 LINE",
"425 52 LINE",
"425 136 LINE"
);
},
{
closed = 1;
nodes = (
"285 19 LINE",
"260 538 LINE",
"225 547 LINE",
"225 0 LINE"
);
},
{
closed = 1;
nodes = (
"425 174 LINE",
"425 500 LINE",
"348 517 LINE",
"356 174 LINE"
);
},
{
closed = 1;
nodes = (
"273 18 LINE",
"313 27 LINE",
"304 327 LINE",
"313 525 LINE",
"247 541 LINE",
"261 140 LINE"
);
}
);
width = 450;
},
{
components = (
{
name = _eye;
transform = "{1, 0, 0, 1, 218, -177}";
},
{
name = _eye;
transform = "{1, 0, 0, 1, 218, 0}";
}
);
layerId = "F1DD319B-D5A5-4BA6-A343-EFA3D63A9498";
paths = (
{
closed = 1;
nodes = (
"412 286 LINE",
"108 312 LINE",
"123 293 LINE",
"396 268 LINE"
);
},
{
closed = 1;
nodes = (
"116 113 LINE",
"123 293 LINE",
"108 312 LINE",
"102 94 LINE"
);
},
{
closed = 1;
nodes = (
"335 151 LINE",
"316 168 LINE",
"272 156 LINE",
"116 113 LINE",
"102 94 LINE"
);
},
{
closed = 1;
nodes = (
"329 459 LINE",
"139 484 LINE",
"161 461 LINE",
"315 447 LINE"
);
},
{
closed = 1;
nodes = (
"156 339 LINE",
"161 461 LINE",
"139 484 LINE",
"139 323 LINE"
);
},
{
closed = 1;
nodes = (
"397 417 LINE",
"402 351 LINE",
"425 327 LINE",
"416 418 LINE"
);
},
{
closed = 1;
nodes = (
"405 535 LINE",
"34 600 LINE",
"54 579 LINE",
"390 514 LINE"
);
},
{
closed = 1;
nodes = (
"74 321 LINE",
"54 579 LINE",
"34 600 LINE",
"55 312 LINE"
);
},
{
closed = 1;
nodes = (
"47 21 LINE",
"74 321 LINE",
"55 312 LINE",
"25 1 LINE"
);
},
{
closed = 1;
nodes = (
"425 327 LINE",
"402 351 LINE",
"156 339 LINE",
"139 323 LINE"
);
},
{
closed = 1;
nodes = (
"309 4 LINE",
"416 7 LINE",
"392 33 LINE",
"47 21 LINE",
"25 1 LINE"
);
},
{
closed = 1;
nodes = (
"393 111 LINE",
"392 33 LINE",
"416 7 LINE",
"414 112 LINE"
);
},
{
closed = 1;
nodes = (
"414 112 LINE",
"412 286 LINE",
"396 268 LINE",
"393 111 LINE"
);
},
{
closed = 1;
nodes = (
"416 418 LINE",
"405 535 LINE",
"390 514 LINE",
"397 417 LINE"
);
},
{
closed = 1;
nodes = (
"316 168 LINE",
"335 151 LINE",
"332 313 LINE",
"329 459 LINE",
"315 447 LINE",
"315 315 LINE"
);
}
);
width = 450;
},
{
associatedMasterId = "F1DD319B-D5A5-4BA6-A343-EFA3D63A9498";
layerId = "F71526DA-6F21-4601-AF86-C46103606201";
name = "Dec 4 21, 14:37";
paths = (
{
closed = 1;
nodes = (
"414 208 LINE",
"394 195 LINE",
"305 12 LINE",
"60 35 LINE",
"42 17 LINE",
"317 0 LINE"
);
},
{
closed = 1;
nodes = (
"60 35 LINE",
"47 585 LINE",
"25 600 LINE",
"42 17 LINE"
);
},
{
closed = 1;
nodes = (
"425 591 LINE",
"25 600 LINE",
"47 585 LINE",
"405 558 LINE"
);
},
{
closed = 1;
nodes = (
"445 425 LINE",
"425 591 LINE",
"405 558 LINE",
"425 425 LINE",
"387 280 LINE",
"398 255 LINE"
);
},
{
closed = 1;
nodes = (
"224 408 LINE",
"150 401 LINE",
"170 274 LINE",
"398 255 LINE",
"387 280 LINE",
"195 286 LINE",
"186 367 LINE",
"220 371 LINE",
"242 134 LINE",
"266 102 LINE"
);
},
{
closed = 1;
nodes = (
"266 102 LINE",
"242 134 LINE",
"127 111 LINE",
"138 215 LINE",
"394 195 LINE",
"414 208 LINE",
"129 242 LINE",
"101 95 LINE"
);
}
);
width = 440;
},
{
associatedMasterId = "9FEBDF96-C5A3-469C-9009-8CF8388B2B9F";
background = {
components = (
{
alignment = -1;
name = _Lbottom;
transform = "{1, 0, 0, 1, 25, 427}";
}
);
paths = (
{
closed = 1;
nodes = (
"225 0 LINE",
"425 52 LINE",
"225 125 LINE",
"25 75 LINE",
"25 0 LINE"
);
},
{
closed = 1;
nodes = (
"25 152 LINE",
"325 152 LINE",
"325 247 LINE",
"112 300 LINE",
"25 300 LINE"
);
},
{
closed = 1;
nodes = (
"25 0 LINE",
"125 0 LINE",
"125 575 LINE",
"25 600 LINE"
);
},
{
closed = 1;
nodes = (
"375 136 LINE",
"375 152 LINE",
"425 152 LINE",
"425 499 LINE",
"225 549 LINE",
"225 174 LINE"
);
},
{
closed = 1;
nodes = (
"425 52 LINE",
"425 124 LINE",
"225 174 LINE",
"225 0 LINE"
);
}
);
};
layerId = "AF2EBDF0-6E36-4249-BE5D-11E744AB00A0";
name = "Dec 12 21, 23:26";
paths = (
{
closed = 1;
nodes = (
"375 148 LINE",
"375 174 LINE",
"225 225 LINE",
"225 148 LINE"
);
},
{
closed = 1;
nodes = (
"125 426 LINE",
"125 444 LINE",
"27 456 LINE",
"25 426 LINE"
);
},
{
closed = 1;
nodes = (
"225 0 LINE",
"425 52 LINE",
"375 69 LINE",
"25 69 LINE",
"25 0 LINE"
);
},
{
closed = 1;
nodes = (
"425 136 LINE",
"225 186 LINE",
"225 0 LINE",
"425 52 LINE"
);
},
{
closed = 1;
nodes = (
"325 247 LINE",
"112 300 LINE",
"125 174 LINE",
"325 174 LINE"
);
},
{
closed = 1;
nodes = (
"125 76 LINE",
"125 552 LINE",
"25 426 LINE",
"25 76 LINE"
);
},
{
closed = 1;
nodes = (
"375 69 LINE",
"225 125 LINE",
"25 76 LINE",
"25 69 LINE"
);
},
{
closed = 1;
nodes = (
"425 426 LINE",
"225 549 LINE",
"225 174 LINE",
"425 174 LINE"
);
},
{
closed = 1;
nodes = (
"225 549 LINE",
"125 575 LINE",
"125 426 LINE",
"425 426 LINE"
);
},
{
closed = 1;
nodes = (
"25 426 LINE",
"125 426 LINE",
"125 575 LINE",
"25 600 LINE"
);
},
{
closed = 1;
nodes = (
"423 297 LINE",
"403 322 LINE",
"225 356 LINE",
"225 280 LINE"
);
},
{
closed = 1;
nodes = (
"425 500 LINE",
"225 549 LINE",
"403 322 LINE",
"425 352 LINE"
);
},
{
closed = 1;
nodes = (
"425 500 LINE",
"25 600 LINE",
"25 426 LINE",
"425 426 LINE"
);
}
);
width = 450;
}
);
unicode = 0042;
},
{
glyphname = C;
lastChange = "2021-12-17 23:11:33 +0000";
layers = (
{
background = {
paths = (
{
closed = 1;
nodes = (
"225 0 LINE",
"425 52 LINE",
"425 176 LINE",
"125 100 LINE",
"125 427 LINE",
"225 427 LINE",
"225 277 LINE",
"425 277 LINE",
"425 500 LINE",
"25 600 LINE",
"25 0 LINE"
);
}
);
};
components = (
{
name = _eye;
transform = "{1, 0, 0, 1, 206, 78}";
},
{
name = _eye;
transform = "{1, 0, 0, 1, 136, 67}";
}
);
layerId = "9FEBDF96-C5A3-469C-9009-8CF8388B2B9F";
paths = (
{
closed = 1;
nodes = (
"92 0 LINE",
"89 579 LINE",
"25 600 LINE",
"25 0 LINE"
);
},
{
closed = 1;
nodes = (
"124 0 LINE",
"124 570 LINE",
"61 584 LINE",
"61 0 LINE"
);
},
{
closed = 1;
nodes = (
"425 120 LINE",
"425 176 LINE",
"25 75 LINE",
"25 46 LINE"
);
},
{
closed = 1;
nodes = (
"425 500 LINE",
"326 520 LINE",
"345 277 LINE",
"425 277 LINE"
);
},
{
closed = 1;
nodes = (
"425 437 LINE",
"425 477 LINE",
"25 553 LINE",
"25 477 LINE"
);
},
{
closed = 1;
nodes = (
"425 427 LINE",
"425 446 LINE",
"25 498 LINE",
"25 427 LINE"
);
},
{
closed = 1;
nodes = (
"324 277 LINE",
"291 529 LINE",
"225 545 LINE",
"225 277 LINE"
);
},
{
closed = 1;
nodes = (
"372 505 LINE",
"267 529 LINE",
"277 277 LINE",
"365 277 LINE"
);
},
{
closed = 1;
nodes = (
"425 500 LINE",
"25 600 LINE",
"25 539 LINE",
"425 462 LINE"
);
},
{
closed = 1;
nodes = (
"225 0 LINE",
"425 52 LINE",
"425 134 LINE",
"25 55 LINE",
"25 0 LINE"
);
}
);
width = 450;
},
{
components = (
{
name = _eye;
transform = "{1, 0, 0, 1, 322, 44}";
},
{
name = _eye;
transform = "{1, 0, 0, 1, 252, 33}";
}
);
layerId = "F1DD319B-D5A5-4BA6-A343-EFA3D63A9498";
paths = (
{
closed = 1;
nodes = (
"65 30 LINE",
"44 575 LINE",
"25 597 LINE",
"49 14 LINE"
);
},
{
closed = 1;
nodes = (
"130 200 LINE",
"102 477 LINE",
"84 492 LINE",
"113 178 LINE"
);
},
{
closed = 1;
nodes = (
"407 220 LINE",
"425 242 LINE",
"130 200 LINE",
"113 178 LINE"
);
},
{
closed = 1;
nodes = (
"425 242 LINE",
"407 220 LINE",
"391 55 LINE",
"413 34 LINE"
);
},
{
closed = 1;
nodes = (
"293 494 LINE",
"309 510 LINE",
"84 492 LINE",
"102 477 LINE"
);
},
{
closed = 1;
nodes = (
"383 366 LINE",
"370 385 LINE",
"307 381 LINE",
"289 355 LINE"
);
},
{
closed = 1;
nodes = (
"307 381 LINE",
"309 510 LINE",
"293 494 LINE",
"289 355 LINE"
);
},
{
closed = 1;
nodes = (
"426 607 LINE",
"398 587 LINE",
"370 385 LINE",
"383 366 LINE"
);
},
{
closed = 1;
nodes = (
"426 607 LINE",
"25 597 LINE",
"44 575 LINE",
"398 587 LINE"
);
},
{
closed = 1;
nodes = (
"225 10 LINE",
"413 34 LINE",
"391 55 LINE",
"65 30 LINE",
"49 14 LINE"
);
}
);
width = 450;
},
{
associatedMasterId = "9FEBDF96-C5A3-469C-9009-8CF8388B2B9F";
components = (
{
alignment = -1;
name = _Ileft;
transform = "{1, 0, 0, 1, 25, 0}";
},
{
alignment = -1;
name = _Cbottom;
transform = "{1, 0, 0, 1, 25, 0}";
},
{
alignment = -1;
name = _Lbottom;
transform = "{1, 0, 0, 1, 25, 427}";
}
);
layerId = "10B201E3-337E-41B9-BB6F-1CDC56444161";
name = "Dec 4 21, 18:02";
paths = (
{
closed = 1;
nodes = (
"425 277 LINE",
"425 499 LINE",
"225 549 LINE",
"225 277 LINE"
);
}
);
width = 450;
},
{
associatedMasterId = "F1DD319B-D5A5-4BA6-A343-EFA3D63A9498";
layerId = "059E82F2-4386-4686-A8DE-FCFBCED88B28";
name = "Dec 12 21, 09:44";
paths = (
{
closed = 1;
nodes = (
"50 7 LINE",
"57 18 LINE",
"34 506 LINE",
"18 521 LINE"
);
},
{
closed = 1;
nodes = (
"50 7 LINE",
"425 7 LINE",
"406 22 LINE",
"57 18 LINE"
);
},
{
closed = 1;
nodes = (
"91 126 LINE",
"108 145 LINE",
"90 388 LINE",
"82 399 LINE"
);
},
{
closed = 1;
nodes = (
"91 126 LINE",
"409 144 LINE",
"419 152 LINE",
"108 145 LINE"
);
},
{
closed = 1;
nodes = (
"109 273 LINE",
"140 281 LINE",
"132 292 LINE",
"117 294 LINE"
);
},
{
closed = 1;
nodes = (
"109 273 LINE",
"117 294 LINE",
"113 405 LINE",
"107 396 LINE"
);
},
{
closed = 1;
nodes = (
"90 388 LINE",
"107 396 LINE",
"113 405 LINE",
"82 399 LINE"
);
},
{
closed = 1;
nodes = (
"406 22 LINE",
"425 7 LINE",
"419 152 LINE",
"409 144 LINE"
);
},
{
closed = 1;
nodes = (
"180 286 LINE",
"210 281 LINE",
"202 298 LINE",
"187 294 LINE"
);
},
{
closed = 1;
nodes = (
"132 292 LINE",
"140 281 LINE",
"147 409 LINE",
"139 418 LINE"
);
},
{
closed = 1;
nodes = (
"180 286 LINE",
"187 294 LINE",
"164 418 LINE",
"161 411 LINE"
);
},
{
closed = 1;
nodes = (
"67 435 LINE",
"90 453 LINE",
"84 490 LINE",
"74 500 LINE"
);
},
{
closed = 1;
nodes = (
"147 409 LINE",
"161 411 LINE",
"164 418 LINE",
"139 418 LINE"
);
},
{
closed = 1;
nodes = (
"202 298 LINE",
"210 281 LINE",
"226 392 LINE",
"221 423 LINE"
);
},
{
closed = 1;
nodes = (
"244 279 LINE",
"297 270 LINE",
"288 286 LINE",
"253 294 LINE"
);
},
{
closed = 1;
nodes = (
"244 279 LINE",
"253 294 LINE",
"241 423 LINE",
"235 392 LINE"
);
},
{
closed = 1;
nodes = (
"133 464 LINE",
"156 460 LINE",
"156 470 LINE",
"133 473 LINE"
);
},
{
closed = 1;
nodes = (
"34 506 LINE",
"203 521 LINE",
"208 542 LINE",
"18 521 LINE"
);
},
{
closed = 1;
nodes = (
"226 392 LINE",
"235 392 LINE",
"241 423 LINE",
"221 423 LINE"
);
},
{
closed = 1;
nodes = (
"84 490 LINE",
"216 487 LINE",
"196 493 LINE",
"74 500 LINE"
);
},
{
closed = 1;
nodes = (
"288 286 LINE",
"297 270 LINE",
"309 388 LINE",
"303 423 LINE"
);
},
{
closed = 1;
nodes = (
"67 435 LINE",
"369 442 LINE",
"346 455 LINE",
"90 453 LINE"
);
},
{
closed = 1;
nodes = (
"352 304 LINE",
"376 304 LINE",
"376 313 LINE",
"352 313 LINE"
);
},
{
closed = 1;
nodes = (
"242 530 LINE",
"218 546 LINE",
"232 491 LINE",
"239 509 LINE"
);
},
{
closed = 1;
nodes = (
"352 304 LINE",
"352 313 LINE",
"320 423 LINE",
"320 391 LINE"
);
},
{
closed = 1;
nodes = (
"309 388 LINE",
"320 391 LINE",
"320 423 LINE",
"303 423 LINE"
);
},
{
closed = 1;
nodes = (
"203 521 LINE",
"208 542 LINE",
"216 487 LINE",
"196 493 LINE"
);
},
{
closed = 1;
nodes = (
"239 509 LINE",
"368 471 LINE",
"343 472 LINE",
"232 491 LINE"
);
},
{
closed = 1;
nodes = (
"278 462 LINE",
"308 464 LINE",
"306 476 LINE",
"283 472 LINE"
);
},
{
closed = 1;
nodes = (
"376 313 LINE",
"376 304 LINE",
"441 517 LINE",
"418 511 LINE"
);
},
{
closed = 1;
nodes = (
"242 530 LINE",
"418 511 LINE",
"441 517 LINE",
"218 546 LINE"
);
},
{
closed = 1;
nodes = (
"346 455 LINE",
"369 442 LINE",
"368 471 LINE",
"343 472 LINE"
);
}
);
width = 470;
}
);
unicode = 0043;
},
{
glyphname = D;
lastChange = "2021-12-16 17:13:02 +0000";
layers = (
{
background = {
paths = (
{
closed = 1;
nodes = (
"225 0 LINE",
"425 51 LINE",
"425 500 LINE",
"25 600 LINE",
"25 0 LINE"
);
},
{
closed = 1;
nodes = (
"125 427 LINE",
"225 427 LINE",
"225 126 LINE",
"125 100 LINE"
);
}
);
};
components = (
{
name = _eye;
transform = "{1, 0, 0, 1, 249, -26}";
},
{
name = _eye;
transform = "{1, 0, 0, 1, 375, -26}";
}
);
layerId = "9FEBDF96-C5A3-469C-9009-8CF8388B2B9F";
paths = (
{
closed = 1;
nodes = (
"25 0 LINE",
"67 0 LINE",
"49 593 LINE",
"25 600 LINE"
);
},
{
closed = 1;
nodes = (
"25 0 LINE",
"225 0 LINE",
"425 51 LINE",
"425 87 LINE",
"25 16 LINE"
);
},
{
closed = 1;
nodes = (
"25 48 LINE",
"25 11 LINE",
"425 74 LINE",
"425 97 LINE"
);
},
{
closed = 1;
nodes = (
"379 40 LINE",
"425 51 LINE",
"425 500 LINE",
"399 506 LINE"
);
},
{
closed = 1;
nodes = (
"25 64 LINE",
"425 108 LINE",
"425 148 LINE",
"25 72 LINE"
);
},
{
closed = 1;
nodes = (
"25 36 LINE",
"425 97 LINE",
"425 124 LINE",
"25 70 LINE"
);
},
{
closed = 1;
nodes = (
"80 0 LINE",
"94 0 LINE",
"83 585 LINE",
"67 589 LINE"
);
},
{
closed = 1;
nodes = (
"83 0 LINE",
"83 585 LINE",
"38 596 LINE",
"67 0 LINE"
);
},
{
closed = 1;
nodes = (
"25 532 LINE",
"425 455 LINE",
"425 480 LINE",
"25 552 LINE"
);
},
{
closed = 1;
nodes = (
"225 0 LINE",
"274 13 LINE",
"271 538 LINE",
"225 549 LINE"
);
},
{
closed = 1;
nodes = (
"25 62 LINE",
"425 120 LINE",
"425 136 LINE",
"25 66 LINE"
);
},
{
closed = 1;
nodes = (
"268 11 LINE",
"314 23 LINE",
"319 526 LINE",
"260 541 LINE"
);
},
{
closed = 1;
nodes = (
"25 477 LINE",
"425 444 LINE",
"425 471 LINE",
"25 509 LINE"
);
},
{
closed = 1;
nodes = (
"305 21 LINE",
"373 38 LINE",
"369 513 LINE",
"312 528 LINE"
);
},
{
closed = 1;
nodes = (
"25 56 LINE",
"425 143 LINE",
"425 178 LINE",
"25 74 LINE"
);
},
{
closed = 1;
nodes = (
"425 427 LINE",
"425 463 LINE",
"25 539 LINE",
"25 427 LINE"
);
},
{
closed = 1;
nodes = (
"25 547 LINE",
"425 474 LINE",
"425 500 LINE",
"25 600 LINE"
);
},
{
closed = 1;
nodes = (
"345 31 LINE",
"385 41 LINE",
"401 505 LINE",
"367 514 LINE"
);
},
{
closed = 1;
nodes = (
"71 0 LINE",
"125 0 LINE",
"125 574 LINE",
"83 585 LINE"
);
}
);
width = 450;
},
{
components = (
{
name = _eye;
transform = "{1, 0, 0, 1, 249, -26}";
},
{
name = _eye;
transform = "{1, 0, 0, 1, 375, -26}";
}
);
layerId = "F1DD319B-D5A5-4BA6-A343-EFA3D63A9498";
paths = (
{
closed = 1;
nodes = (
"53 0 LINE",
"67 16 LINE",
"48 575 LINE",
"25 600 LINE"
);
},
{
closed = 1;
nodes = (
"53 0 LINE",
"111 0 LINE",
"189 -1 LINE",
"171 19 LINE",
"67 16 LINE"
);
},
{
closed = 1;
nodes = (
"171 19 LINE",
"189 -1 LINE",
"425 143 LINE",
"411 156 LINE"
);
},
{
closed = 1;
nodes = (
"411 156 LINE",
"425 143 LINE",
"425 313 LINE",
"408 279 LINE"
);
},
{
closed = 1;
nodes = (
"348 228 LINE",
"408 279 LINE",
"425 313 LINE",
"342 241 LINE"
);
},
{
closed = 1;
nodes = (
"201 186 LINE",
"348 228 LINE",
"342 241 LINE",
"215 211 LINE"
);
},
{
closed = 1;
nodes = (
"201 186 LINE",
"215 211 LINE",
"185 373 LINE",
"169 375 LINE"
);
},
{
closed = 1;
nodes = (
"185 373 LINE",
"288 566 LINE",
"285 593 LINE",
"169 375 LINE"
);
},
{
closed = 1;
nodes = (
"288 566 LINE",
"304 555 LINE",
"323 560 LINE",
"285 593 LINE"
);
},
{
closed = 1;
nodes = (
"216 388 LINE",
"235 386 LINE",
"323 560 LINE",
"304 555 LINE"
);
},
{
closed = 1;
nodes = (
"233 235 LINE",
"316 287 LINE",
"299 303 LINE",
"245 262 LINE"
);
},
{
closed = 1;
nodes = (
"299 303 LINE",
"316 287 LINE",
"346 514 LINE",
"335 547 LINE"
);
},
{
closed = 1;
nodes = (
"346 514 LINE",
"360 504 LINE",
"375 514 LINE",
"335 547 LINE"
);
},
{
closed = 1;
nodes = (
"349 289 LINE",
"365 319 LINE",
"375 514 LINE",
"360 504 LINE"
);
},
{
closed = 1;
nodes = (
"349 289 LINE",
"425 328 LINE",
"413 336 LINE",
"365 319 LINE"
);
},
{
closed = 1;
nodes = (
"402 407 LINE",
"413 414 LINE",
"232 590 LINE",
"223 574 LINE"
);
},
{
closed = 1;
nodes = (
"48 575 LINE",
"223 574 LINE",
"232 590 LINE",
"25 600 LINE"
);
},
{
closed = 1;
nodes = (
"413 336 LINE",
"425 328 LINE",
"413 414 LINE",
"402 407 LINE"
);
},
{
closed = 1;
nodes = (
"233 235 LINE",
"245 262 LINE",
"235 386 LINE",
"216 388 LINE"
);
}
);
width = 450;
},
{
associatedMasterId = "F1DD319B-D5A5-4BA6-A343-EFA3D63A9498";
layerId = "52202B0A-DB63-490B-9703-1E7AF1E75F75";
name = "Dec 12 21, 10:01";
paths = (
{
closed = 1;
nodes = (
"56 -1 LINE",
"66 9 LINE",
"46 558 LINE",
"23 583 LINE"
);
},
{
closed = 1;
nodes = (
"56 -1 LINE",
"168 -1 LINE",
"150 19 LINE",
"66 9 LINE"
);
},
{
closed = 1;
nodes = (
"150 19 LINE",
"168 -1 LINE",
"163 50 LINE",
"148 66 LINE"
);
},
{
closed = 1;
nodes = (
"163 50 LINE",
"190 71 LINE",
"190 89 LINE",
"148 66 LINE"
);
},
{
closed = 1;
nodes = (
"246 2 LINE",
"246 15 LINE",
"190 89 LINE",
"190 71 LINE"
);
},
{
closed = 1;
nodes = (
"246 2 LINE",
"283 11 LINE",
"270 20 LINE",
"246 15 LINE"
);
},
{
closed = 1;
nodes = (
"270 20 LINE",
"283 11 LINE",
"245 113 LINE",
"237 125 LINE"
);
},
{
closed = 1;
nodes = (
"245 113 LINE",
"278 116 LINE",
"285 125 LINE",
"237 125 LINE"
);
},
{
closed = 1;
nodes = (
"304 18 LINE",
"309 43 LINE",
"285 125 LINE",
"278 116 LINE"
);
},
{
closed = 1;
nodes = (
"304 18 LINE",
"375 85 LINE",
"354 82 LINE",
"309 43 LINE"
);
},
{
closed = 1;
nodes = (
"354 82 LINE",
"375 85 LINE",
"319 115 LINE",
"305 115 LINE"
);
},
{
closed = 1;
nodes = (
"319 115 LINE",
"339 134 LINE",
"339 149 LINE",
"305 115 LINE"
);
},
{
closed = 1;
nodes = (
"339 134 LINE",
"398 133 LINE",
"390 156 LINE",
"339 149 LINE"
);
},
{
closed = 1;
nodes = (
"390 156 LINE",
"398 133 LINE",
"413 312 LINE",
"386 267 LINE"
);
},
{
closed = 1;
nodes = (
"326 214 LINE",
"386 267 LINE",
"413 312 LINE",
"321 224 LINE"
);
},
{
closed = 1;
nodes = (
"180 169 LINE",
"326 214 LINE",
"321 224 LINE",
"194 194 LINE"
);
},
{
closed = 1;
nodes = (
"180 169 LINE",
"194 194 LINE",
"163 358 LINE",
"148 358 LINE"
);
},
{
closed = 1;
nodes = (
"163 358 LINE",
"260 553 LINE",
"260 571 LINE",
"148 358 LINE"
);
},
{
closed = 1;
nodes = (
"260 553 LINE",
"298 551 LINE",
"309 559 LINE",
"260 571 LINE"
);
},
{
closed = 1;
nodes = (
"202 371 LINE",
"214 367 LINE",
"309 559 LINE",
"298 551 LINE"
);
},
{
closed = 1;
nodes = (
"212 218 LINE",
"314 270 LINE",
"304 284 LINE",
"230 263 LINE"
);
},
{
closed = 1;
nodes = (
"304 284 LINE",
"314 270 LINE",
"322 507 LINE",
"312 517 LINE"
);
},
{
closed = 1;
nodes = (
"322 507 LINE",
"339 491 LINE",
"354 501 LINE",
"312 517 LINE"
);
},
{
closed = 1;
nodes = (
"328 272 LINE",
"340 295 LINE",
"354 501 LINE",
"339 491 LINE"
);
},
{
closed = 1;
nodes = (
"328 272 LINE",
"404 311 LINE",
"398 322 LINE",
"340 295 LINE"
);
},
{
closed = 1;
nodes = (
"381 390 LINE",
"392 397 LINE",
"239 571 LINE",
"235 564 LINE"
);
},
{
closed = 1;
nodes = (
"46 558 LINE",
"235 564 LINE",
"239 571 LINE",
"23 583 LINE"
);
},
{
closed = 1;
nodes = (
"398 322 LINE",
"404 311 LINE",
"392 397 LINE",
"381 390 LINE"
);
},
{
closed = 1;
nodes = (
"212 218 LINE",
"230 263 LINE",
"214 367 LINE",
"202 371 LINE"
);
},
{
closed = 1;
nodes = (
"371 350 LINE",
"369 363 LINE",
"357 372 LINE",
"353 352 LINE"
);
},
{
closed = 1;
nodes = (
"279 343 LINE",
"286 367 LINE",
"261 363 LINE",
"257 339 LINE"
);
}
);
width = 440;
},
{
associatedMasterId = "9FEBDF96-C5A3-469C-9009-8CF8388B2B9F";
components = (
{
alignment = -1;
name = _Ileft;
transform = "{1, 0, 0, 1, 25, 0}";
},
{
alignment = -1;
name = _Cbottom;
transform = "{1, 0, 0, 1, 25, 0}";
},
{
name = _Dright;
transform = "{1, 0, 0, 1, 225, 0}";
},
{
alignment = -1;
name = _Lbottom;
transform = "{1, 0, 0, 1, 25, 427}";
}
);
layerId = "01B0E48A-EA85-48CD-B062-5E8860F4F2EA";
name = "Dec 16 21, 18:04";
width = 450;
}
);
unicode = 0044;
},
{
glyphname = E;
lastChange = "2021-12-23 08:44:40 +0000";
layers = (
{
background = {
paths = (
{
closed = 1;
nodes = (
"425 0 LINE",
"425 73 LINE",
"125 148 LINE",
"125 174 LINE",
"325 174 LINE",
"325 247 LINE",
"125 297 LINE",
"125 427 LINE",
"225 427 LINE",
"225 351 LINE",
"425 351 LINE",
"425 500 LINE",
"25 600 LINE",
"25 0 LINE"
);
}
);
};
components = (
{
name = _eye;
transform = "{1, 0, 0, 1, 328, 22}";
},
{
name = _eye;
transform = "{1, 0, 0, 1, 292, 22}";
}
);
layerId = "9FEBDF96-C5A3-469C-9009-8CF8388B2B9F";
paths = (
{
closed = 1;
nodes = (
"25 535 LINE",
"425 465 LINE",
"425 500 LINE",
"25 600 LINE"
);
},
{
closed = 1;
nodes = (
"25 0 LINE",
"50 0 LINE",
"50 592 LINE",
"25 600 LINE"
);
},
{
closed = 1;
nodes = (
"25 0 LINE",
"425 0 LINE",
"425 13 LINE",
"25 37 LINE"
);
},
{
closed = 1;
nodes = (
"277 351 LINE",
"318 351 LINE",
"333 520 LINE",
"289 532 LINE"
);
},
{
closed = 1;
nodes = (
"25 21 LINE",
"425 9 LINE",
"425 28 LINE",
"25 104 LINE"
);
},
{
closed = 1;
nodes = (
"108 0 LINE",
"125 0 LINE",
"126 572 LINE",
"105 578 LINE"
);
},
{
closed = 1;
nodes = (
"25 93 LINE",
"425 20 LINE",
"425 53 LINE",
"25 146 LINE"
);
},
{
closed = 1;
nodes = (
"225 351 LINE",
"252 351 LINE",
"267 538 LINE",
"225 548 LINE"
);
},
{
closed = 1;
nodes = (
"25 137 LINE",
"425 39 LINE",
"425 73 LINE",
"25 173 LINE"
);
},
{
closed = 1;
nodes = (
"89 0 LINE",
"109 0 LINE",
"110 575 LINE",
"91 578 LINE"
);
},
{
closed = 1;
nodes = (
"25 174 LINE",
"325 174 LINE",
"325 194 LINE",
"25 225 LINE"
);
},
{
closed = 1;
nodes = (
"403 351 LINE",
"425 351 LINE",
"425 500 LINE",
"385 506 LINE"
);
},
{
closed = 1;
nodes = (
"25 206 LINE",
"325 187 LINE",
"325 206 LINE",
"25 248 LINE"
);
},
{
closed = 1;
nodes = (
"74 0 LINE",
"96 0 LINE",
"94 578 LINE",
"74 585 LINE"
);
},
{
closed = 1;
nodes = (
"25 241 LINE",
"325 200 LINE",
"325 235 LINE",
"25 290 LINE"
);
},
{
closed = 1;
nodes = (
"345 351 LINE",
"407 351 LINE",
"407 502 LINE",
"352 516 LINE"
);
},
{
closed = 1;
nodes = (
"25 276 LINE",
"325 221 LINE",
"325 247 LINE",
"25 322 LINE"
);
},
{
closed = 1;
nodes = (
"56 0 LINE",
"79 0 LINE",
"79 585 LINE",
"56 590 LINE"
);
},
{
closed = 1;
nodes = (
"25 427 LINE",
"425 427 LINE",
"425 439 LINE",
"25 452 LINE"
);
},
{
closed = 1;
nodes = (
"312 351 LINE",
"355 351 LINE",
"368 512 LINE",
"324 523 LINE"
);
},
{
closed = 1;
nodes = (
"25 445 LINE",
"425 435 LINE",
"425 459 LINE",
"25 527 LINE"
);
},
{
closed = 1;
nodes = (
"31 0 LINE",
"63 0 LINE",
"66 588 LINE",
"38 594 LINE"
);
},
{
closed = 1;
nodes = (
"25 523 LINE",
"425 450 LINE",
"425 477 LINE",
"25 540 LINE"
);
},
{
closed = 1;
nodes = (
"247 351 LINE",
"286 351 LINE",
"298 530 LINE",
"253 541 LINE"
);
}
);
width = 450;
},
{
components = (
{
name = _eye;
transform = "{1, 0, 0, 1, 343, 114}";
},
{
name = _eye;
transform = "{1, 0, 0, 1, 307, 114}";
}
);
layerId = "F1DD319B-D5A5-4BA6-A343-EFA3D63A9498";
paths = (
{
closed = 1;
nodes = (
"43 584 LINE",
"397 542 LINE",
"412 560 LINE",
"31 601 LINE"
);
},
{
closed = 1;
nodes = (
"25 0 LINE",
"49 24 LINE",
"43 584 LINE",
"31 601 LINE"
);
},
{
closed = 1;
nodes = (
"25 0 LINE",
"400 0 LINE",
"386 13 LINE",
"49 24 LINE"
);
},
{
closed = 1;
nodes = (
"386 13 LINE",
"400 0 LINE",
"415 99 LINE",
"396 82 LINE"
);
},
{
closed = 1;
nodes = (
"132 107 LINE",
"396 82 LINE",
"415 99 LINE",
"148 122 LINE"
);
},
{
closed = 1;
nodes = (
"132 107 LINE",
"148 122 LINE",
"140 175 LINE",
"125 187 LINE"
);
},
{
closed = 1;
nodes = (
"140 175 LINE",
"409 151 LINE",
"385 166 LINE",
"125 187 LINE"
);
},
{
closed = 1;
nodes = (
"385 166 LINE",
"409 151 LINE",
"403 200 LINE",
"388 192 LINE"
);
},
{
closed = 1;
nodes = (
"131 219 LINE",
"388 192 LINE",
"403 200 LINE",
"150 236 LINE"
);
},
{
closed = 1;
nodes = (
"131 219 LINE",
"150 236 LINE",
"148 256 LINE",
"131 268 LINE"
);
},
{
closed = 1;
nodes = (
"148 256 LINE",
"405 217 LINE",
"385 237 LINE",
"131 268 LINE"
);
},
{
closed = 1;
nodes = (
"385 237 LINE",
"405 217 LINE",
"385 304 LINE",
"372 290 LINE"
);
},
{
closed = 1;
nodes = (
"130 299 LINE",
"372 290 LINE",
"385 304 LINE",
"144 314 LINE"
);
},
{
closed = 1;
nodes = (
"130 299 LINE",
"144 314 LINE",
"141 343 LINE",
"124 359 LINE"
);
},
{
closed = 1;
nodes = (
"141 343 LINE",
"389 322 LINE",
"374 336 LINE",
"124 359 LINE"
);
},
{
closed = 1;
nodes = (
"374 336 LINE",
"389 322 LINE",
"409 374 LINE",
"392 362 LINE"
);
},
{
closed = 1;
nodes = (
"134 387 LINE",
"392 362 LINE",
"409 374 LINE",
"156 398 LINE"
);
},
{
closed = 1;
nodes = (
"134 387 LINE",
"156 398 LINE",
"153 416 LINE",
"140 429 LINE"
);
},
{
closed = 1;
nodes = (
"153 416 LINE",
"405 404 LINE",
"391 416 LINE",
"140 429 LINE"
);
},
{
closed = 1;
nodes = (
"391 416 LINE",
"405 404 LINE",
"422 447 LINE",
"402 435 LINE"
);
},
{
closed = 1;
nodes = (
"137 443 LINE",
"402 435 LINE",
"422 447 LINE",
"155 457 LINE"
);
},
{
closed = 1;
nodes = (
"137 443 LINE",
"155 457 LINE",
"165 481 LINE",
"152 498 LINE"
);
},
{
closed = 1;
nodes = (
"165 481 LINE",
"425 465 LINE",
"409 479 LINE",
"152 498 LINE"
);
},
{
closed = 1;
nodes = (
"409 479 LINE",
"425 465 LINE",
"412 560 LINE",
"397 542 LINE"
);
}
);
width = 450;
},
{
associatedMasterId = "9FEBDF96-C5A3-469C-9009-8CF8388B2B9F";
background = {
paths = (
{
closed = 1;
nodes = (
"425 0 LINE",
"425 73 LINE",
"125 148 LINE",
"125 174 LINE",
"325 174 LINE",
"325 247 LINE",
"125 297 LINE",
"125 427 LINE",
"225 427 LINE",
"225 351 LINE",
"425 351 LINE",
"425 500 LINE",
"25 600 LINE",
"25 0 LINE"
);
}
);
};
layerId = "C2AFEEA2-585B-427E-B013-F214862CA225";
name = "Dec 16 21, 18:23";
paths = (
{
closed = 1;
nodes = (
"425 0 LINE",
"425 73 LINE",
"125 148 LINE",
"125 174 LINE",
"325 174 LINE",
"325 247 LINE",
"125 297 LINE",
"125 427 LINE",
"225 427 LINE",
"225 351 LINE",
"425 351 LINE",
"425 500 LINE",
"25 600 LINE",
"25 0 LINE"
);
}
);
width = 450;
}
);
unicode = 0045;
},
{
glyphname = F;
lastChange = "2021-12-23 08:48:48 +0000";
layers = (
{
background = {
paths = (
{
closed = 1;
nodes = (
"125 0 LINE",
"125 174 LINE",
"325 174 LINE",
"325 247 LINE",
"125 297 LINE",
"125 427 LINE",
"225 427 LINE",
"225 351 LINE",
"425 351 LINE",
"425 500 LINE",
"25 600 LINE",
"25 0 LINE"
);
}
);
};
components = (
{
name = _eye;
transform = "{1, 0, 0, 1, 386, 10}";
},
{
name = _eye;
transform = "{1, 0, 0, 1, 260, 10}";
}
);
layerId = "9FEBDF96-C5A3-469C-9009-8CF8388B2B9F";
paths = (
{
closed = 1;
nodes = (
"25 0 LINE",
"50 0 LINE",
"60 589 LINE",
"25 600 LINE"
);
},
{
closed = 1;
nodes = (
"25 174 LINE",
"325 174 LINE",
"325 195 LINE",
"25 241 LINE"
);
},
{
closed = 1;
nodes = (
"25 219 LINE",
"325 186 LINE",
"325 212 LINE",
"25 296 LINE"
);
},
{
closed = 1;
nodes = (
"315 351 LINE",
"319 524 LINE",
"268 537 LINE",
"258 351 LINE"
);
},
{
closed = 1;
nodes = (
"25 289 LINE",
"325 205 LINE",
"325 247 LINE",
"25 322 LINE"
);
},
{
closed = 1;
nodes = (
"84 0 LINE",
"125 0 LINE",
"125 568 LINE",
"90 576 LINE"
);
},
{
closed = 1;
nodes = (
"25 486 LINE",
"425 441 LINE",
"425 468 LINE",
"25 549 LINE"
);
},
{
closed = 1;
nodes = (
"41 0 LINE",
"86 0 LINE",
"96 579 LINE",
"51 588 LINE"
);
},
{
closed = 1;
nodes = (
"25 427 LINE",
"425 427 LINE",
"425 449 LINE",
"25 458 LINE"
);
},
{
closed = 1;
nodes = (
"303 351 LINE",
"384 351 LINE",
"382 509 LINE",
"305 527 LINE"
);
},
{
closed = 1;
nodes = (
"25 543 LINE",
"425 464 LINE",
"425 489 LINE",
"25 579 LINE"
);
},
{
closed = 1;
nodes = (
"225 351 LINE",
"268 351 LINE",
"285 533 LINE",
"225 549 LINE"
);
},
{
closed = 1;
nodes = (
"25 447 LINE",
"425 430 LINE",
"425 458 LINE",
"25 502 LINE"
);
},
{
closed = 1;
nodes = (
"378 351 LINE",
"425 351 LINE",
"425 500 LINE",
"361 514 LINE"
);
},
{
closed = 1;
nodes = (
"25 576 LINE",
"425 480 LINE",
"425 500 LINE",
"25 600 LINE"
);
},
{
closed = 1;
nodes = (
"93 0 LINE",
"110 0 LINE",
"103 576 LINE",
"70 583 LINE"
);
}
);
width = 450;
},
{
components = (
{
name = _eye;
transform = "{1, 0, 0, 1, 285, 26}";
},
{
name = _eye;
transform = "{1, 0, 0, 1, 159, 26}";
}
);
layerId = "F1DD319B-D5A5-4BA6-A343-EFA3D63A9498";
paths = (
{
closed = 1;
nodes = (
"25 0 LINE",
"46 21 LINE",
"41 586 LINE",
"29 598 LINE"
);
},
{
closed = 1;
nodes = (
"25 0 LINE",
"190 0 LINE",
"176 14 LINE",
"46 21 LINE"
);
},
{
closed = 1;
nodes = (
"176 198 LINE",
"327 197 LINE",
"305 217 LINE",
"157 211 LINE"
);
},
{
closed = 1;
nodes = (
"327 197 LINE",
"337 283 LINE",
"316 263 LINE",
"305 217 LINE"
);
},
{
closed = 1;
nodes = (
"185 266 LINE",
"316 263 LINE",
"337 283 LINE",
"198 278 LINE"
);
},
{
closed = 1;
nodes = (
"185 266 LINE",
"198 278 LINE",
"220 489 LINE",
"203 480 LINE"
);
},
{
closed = 1;
nodes = (
"145 480 LINE",
"203 480 LINE",
"220 489 LINE",
"131 496 LINE"
);
},
{
closed = 1;
nodes = (
"129 334 LINE",
"151 345 LINE",
"145 480 LINE",
"131 496 LINE"
);
},
{
closed = 1;
nodes = (
"129 334 LINE",
"346 333 LINE",
"336 356 LINE",
"151 345 LINE"
);
},
{
closed = 1;
nodes = (
"336 356 LINE",
"346 333 LINE",
"353 536 LINE",
"332 528 LINE"
);
},
{
closed = 1;
nodes = (
"256 538 LINE",
"332 528 LINE",
"353 536 LINE",
"244 550 LINE"
);
},
{
closed = 1;
nodes = (
"252 372 LINE",
"266 386 LINE",
"256 538 LINE",
"244 550 LINE"
);
},
{
closed = 1;
nodes = (
"252 372 LINE",
"421 381 LINE",
"411 394 LINE",
"266 386 LINE"
);
},
{
closed = 1;
nodes = (
"411 394 LINE",
"421 381 LINE",
"425 599 LINE",
"404 580 LINE"
);
},
{
closed = 1;
nodes = (
"41 586 LINE",
"404 580 LINE",
"425 599 LINE",
"29 598 LINE"
);
},
{
closed = 1;
nodes = (
"176 14 LINE",
"190 0 LINE",
"176 198 LINE",
"157 211 LINE"
);
}
);
width = 450;
},
{
associatedMasterId = "F1DD319B-D5A5-4BA6-A343-EFA3D63A9498";
layerId = "53AEF97A-7202-46E2-8203-5AFBE6FDBA98";
name = "Dec 12 21, 10:02";
paths = (
{
closed = 1;
nodes = (
"25 0 LINE",
"46 21 LINE",
"41 586 LINE",
"29 598 LINE"
);
},
{
closed = 1;
nodes = (
"25 0 LINE",
"161 7 LINE",
"155 21 LINE",
"46 21 LINE"
);
},
{
closed = 1;
nodes = (
"155 21 LINE",
"161 7 LINE",
"159 198 LINE",
"140 211 LINE"
);
},
{
closed = 1;
nodes = (
"159 198 LINE",
"206 200 LINE",
"221 223 LINE",
"140 211 LINE"
);
},
{
closed = 1;
nodes = (
"210 97 LINE",
"216 110 LINE",
"221 223 LINE",
"206 200 LINE"
);
},
{
closed = 1;
nodes = (
"227 108 LINE",
"232 97 LINE",
"248 213 LINE",
"238 225 LINE"
);
},
{
closed = 1;
nodes = (
"280 104 LINE",
"283 119 LINE",
"274 230 LINE",
"264 204 LINE"
);
},
{
closed = 1;
nodes = (
"293 113 LINE",
"297 104 LINE",
"298 190 LINE",
"295 202 LINE"
);
},
{
closed = 1;
nodes = (
"308 180 LINE",
"322 126 LINE",
"323 137 LINE",
"313 202 LINE"
);
},
{
closed = 1;
nodes = (
"341 126 LINE",
"407 260 LINE",
"371 240 LINE",
"342 139 LINE"
);
},
{
closed = 1;
nodes = (
"168 266 LINE",
"371 240 LINE",
"407 260 LINE",
"181 278 LINE"
);
},
{
closed = 1;
nodes = (
"168 266 LINE",
"181 278 LINE",
"203 489 LINE",
"186 480 LINE"
);
},
{
closed = 1;
nodes = (
"128 477 LINE",
"186 480 LINE",
"203 489 LINE",
"114 496 LINE"
);
},
{
closed = 1;
nodes = (
"112 334 LINE",
"134 345 LINE",
"128 477 LINE",
"114 496 LINE"
);
},
{
closed = 1;
nodes = (
"112 334 LINE",
"329 333 LINE",
"319 356 LINE",
"134 345 LINE"
);
},
{
closed = 1;
nodes = (
"319 356 LINE",
"329 333 LINE",
"336 536 LINE",
"315 528 LINE"
);
},
{
closed = 1;
nodes = (
"244 535 LINE",
"315 528 LINE",
"336 536 LINE",
"227 550 LINE"
);
},
{
closed = 1;
nodes = (
"235 372 LINE",
"244 378 LINE",
"244 535 LINE",
"227 550 LINE"
);
},
{
closed = 1;
nodes = (
"235 372 LINE",
"401 381 LINE",
"394 394 LINE",
"244 378 LINE"
);
},
{
closed = 1;
nodes = (
"394 394 LINE",
"401 381 LINE",
"408 599 LINE",
"388 593 LINE"
);
},
{
closed = 1;
nodes = (
"41 586 LINE",
"388 593 LINE",
"408 599 LINE",
"29 598 LINE"
);
},
{
closed = 1;
nodes = (
"152 406 LINE",
"163 406 LINE",
"170 439 LINE",
"145 436 LINE"
);
},
{
closed = 1;
nodes = (
"274 442 LINE",
"287 442 LINE",
"295 484 LINE",
"268 476 LINE"
);
},
{
closed = 1;
nodes = (
"248 213 LINE",
"264 204 LINE",
"274 230 LINE",
"238 225 LINE"
);
},
{
closed = 1;
nodes = (
"298 190 LINE",
"308 180 LINE",
"313 202 LINE",
"295 202 LINE"
);
},
{
closed = 1;
nodes = (
"322 126 LINE",
"341 126 LINE",
"342 139 LINE",
"323 137 LINE"
);
},
{
closed = 1;
nodes = (
"280 104 LINE",
"297 104 LINE",
"293 113 LINE",
"283 119 LINE"
);
},
{
closed = 1;
nodes = (
"210 97 LINE",
"232 97 LINE",
"227 108 LINE",
"216 110 LINE"
);
}
);
width = 440;
},
{
associatedMasterId = "9FEBDF96-C5A3-469C-9009-8CF8388B2B9F";
components = (
{
alignment = -1;
name = _Lbottom;
transform = "{1, 0, 0, 1, 25, 427}";
},
{
name = _Fbottom;
transform = "{1, 0, 0, 1, 25, 0}";
}
);
layerId = "DAC380FD-5C9E-4E11-96F8-DCE80C2A0CD7";
name = "Dec 13 21, 08:46";
paths = (
{
closed = 1;
nodes = (
"125 0 LINE",
"125 311 LINE",
"125 575 LINE",
"25 600 LINE",
"25 0 LINE"
);
},
{
closed = 1;
nodes = (
"25 174 LINE",
"325 174 LINE",
"325 247 LINE",
"112 300 LINE",
"25 300 LINE"
);
},
{
closed = 1;
nodes = (
"425 351 LINE",
"425 427 LINE",
"225 427 LINE",
"225 351 LINE"
);
}
);
width = 450;
}
);
unicode = 0046;
},
{
glyphname = G;
lastChange = "2021-12-23 08:53:22 +0000";
layers = (
{
background = {
paths = (
{
closed = 1;
nodes = (
"225 0 LINE",
"425 52 LINE",
"425 222 LINE",
"225 272 LINE",
"175 284 LINE",
"175 177 LINE",
"225 177 LINE",
"225 125 LINE",
"125 100 LINE",
"125 427 LINE",
"225 427 LINE",
"225 351 LINE",
"425 351 LINE",
"425 500 LINE",
"25 600 LINE",
"25 0 LINE"
);
}
);
};
components = (
{
name = _eye;
transform = "{1, 0, 0, 1, 378, 6}";
},
{
name = _eye;
transform = "{1, 0, 0, 1, 236, 6}";
}
);
layerId = "9FEBDF96-C5A3-469C-9009-8CF8388B2B9F";
paths = (
{
closed = 1;
nodes = (
"25 0 LINE",
"225 0 LINE",
"425 52 LINE",
"425 78 LINE",
"25 26 LINE"
);
},
{
closed = 1;
nodes = (
"337 32 LINE",
"425 52 LINE",
"425 222 LINE",
"355 236 LINE"
);
},
{
closed = 1;
nodes = (
"175 177 LINE",
"425 177 LINE",
"425 209 LINE",
"175 215 LINE"
);
},
{
closed = 1;
nodes = (
"46 0 LINE",
"88 0 LINE",
"113 575 LINE",
"46 592 LINE"
);
},
{
closed = 1;
nodes = (
"25 491 LINE",
"425 471 LINE",
"425 491 LINE",
"25 550 LINE"
);
},
{
closed = 1;
nodes = (
"79 0 LINE",
"125 0 LINE",
"125 572 LINE",
"104 577 LINE"
);
},
{
closed = 1;
nodes = (
"175 237 LINE",
"425 192 LINE",
"425 222 LINE",
"175 284 LINE"
);
},
{
closed = 1;
nodes = (
"225 351 LINE",
"303 351 LINE",
"282 531 LINE",
"225 546 LINE"
);
},
{
closed = 1;
nodes = (
"25 540 LINE",
"425 482 LINE",
"425 500 LINE",
"25 600 LINE"
);
},
{
closed = 1;
nodes = (
"296 351 LINE",
"373 351 LINE",
"347 516 LINE",
"261 539 LINE"
);
},
{
closed = 1;
nodes = (
"175 200 LINE",
"425 202 LINE",
"425 215 LINE",
"175 247 LINE"
);
},
{
closed = 1;
nodes = (
"365 351 LINE",
"425 351 LINE",
"425 500 LINE",
"333 518 LINE"
);
},
{
closed = 1;
nodes = (
"25 428 LINE",
"425 428 LINE",
"425 460 LINE",
"25 471 LINE"
);
},
{
closed = 1;
nodes = (
"25 458 LINE",
"425 450 LINE",
"425 477 LINE",
"25 505 LINE"
);
},
{
closed = 1;
nodes = (
"25 0 LINE",
"59 0 LINE",
"79 583 LINE",
"25 600 LINE"
);
},
{
closed = 1;
nodes = (
"225 0 LINE",
"326 32 LINE",
"292 254 LINE",
"225 272 LINE"
);
},
{
closed = 1;
nodes = (
"425 98 LINE",
"425 174 LINE",
"25 75 LINE",
"25 47 LINE"
);
},
{
closed = 1;
nodes = (
"257 16 LINE",
"352 35 LINE",
"391 227 LINE",
"274 256 LINE"
);
},
{
closed = 1;
nodes = (
"25 17 LINE",
"425 70 LINE",
"425 106 LINE",
"25 56 LINE"
);
}
);
width = 450;
},
{
components = (
{
name = _eye;
transform = "{1, 0, 0, 1, 370, -51}";
},
{
name = _eye;
transform = "{1, 0, 0, 1, 228, -51}";
}
);
layerId = "F1DD319B-D5A5-4BA6-A343-EFA3D63A9498";
paths = (
{
closed = 1;
nodes = (
"49 1 LINE",
"241 0 LINE",
"371 0 LINE",
"355 13 LINE",
"69 27 LINE"
);
},
{
closed = 1;
nodes = (
"355 13 LINE",
"371 0 LINE",
"422 266 LINE",
"399 255 LINE"
);
},
{
closed = 1;
nodes = (
"202 266 LINE",
"399 255 LINE",
"422 266 LINE",
"188 283 LINE"
);
},
{
closed = 1;
nodes = (
"98 121 LINE",
"118 132 LINE",
"163 605 LINE",
"149 615 LINE"
);
},
{
closed = 1;
nodes = (
"163 605 LINE",
"210 608 LINE",
"227 628 LINE",
"149 615 LINE"
);
},
{
closed = 1;
nodes = (
"189 298 LINE",
"201 308 LINE",
"227 628 LINE",
"210 608 LINE"
);
},
{
closed = 1;
nodes = (
"189 298 LINE",
"278 288 LINE",
"265 306 LINE",
"201 308 LINE"
);
},
{
closed = 1;
nodes = (
"265 306 LINE",
"278 288 LINE",
"275 602 LINE",
"260 623 LINE"
);
},
{
closed = 1;
nodes = (
"275 602 LINE",
"322 597 LINE",
"334 612 LINE",
"260 623 LINE"
);
},
{
closed = 1;
nodes = (
"336 288 LINE",
"350 303 LINE",
"334 612 LINE",
"322 597 LINE"
);
},
{
closed = 1;
nodes = (
"336 288 LINE",
"425 281 LINE",
"405 304 LINE",
"350 303 LINE"
);
},
{
closed = 1;
nodes = (
"405 304 LINE",
"425 281 LINE",
"406 557 LINE",
"393 546 LINE"
);
},
{
closed = 1;
nodes = (
"118 591 LINE",
"393 546 LINE",
"406 557 LINE",
"118 606 LINE"
);
},
{
closed = 1;
nodes = (
"41 567 LINE",
"118 591 LINE",
"118 606 LINE",
"25 578 LINE"
);
},
{
closed = 1;
nodes = (
"49 1 LINE",
"69 27 LINE",
"41 567 LINE",
"25 578 LINE"
);
},
{
closed = 1;
nodes = (
"184 179 LINE",
"210 197 LINE",
"202 266 LINE",
"188 283 LINE"
);
},
{
closed = 1;
nodes = (
"312 159 LINE",
"334 170 LINE",
"210 197 LINE",
"184 179 LINE"
);
},
{
closed = 1;
nodes = (
"278 97 LINE",
"292 82 LINE",
"334 170 LINE",
"312 159 LINE"
);
},
{
closed = 1;
nodes = (
"98 121 LINE",
"292 82 LINE",
"278 97 LINE",
"118 132 LINE"
);
}
);
width = 450;
},
{
associatedMasterId = "9FEBDF96-C5A3-469C-9009-8CF8388B2B9F";
layerId = "A285210C-334D-4FAE-AA06-9031E1F1C807";
name = "Dec 16 21, 18:31";
paths = (
{
closed = 1;
nodes = (
"225 122 LINE",
"425 122 LINE",
"425 222 LINE",
"225 272 LINE"
);
},
{
closed = 1;
nodes = (
"425 177 LINE",
"425 222 LINE",
"175 284 LINE",
"175 177 LINE"
);
},
{
closed = 1;
nodes = (
"225 0 LINE",
"425 52 LINE",
"425 176 LINE",
"125 100 LINE",
"125 427 LINE",
"225 427 LINE",
"225 351 LINE",
"425 351 LINE",
"425 500 LINE",
"25 600 LINE",
"25 0 LINE"
);
}
);
width = 450;
}
);
unicode = 0047;
},
{
glyphname = H;
lastChange = "2021-12-17 23:20:57 +0000";
layers = (
{
background = {
paths = (
{
closed = 1;
nodes = (
"125 0 LINE",
"125 176 LINE",
"225 176 LINE",
"225 0 LINE",
"425 0 LINE",
"425 499 LINE",
"225 549 LINE",
"225 272 LINE",
"125 297 LINE",
"125 574 LINE",
"25 600 LINE",
"25 0 LINE"
);
}
);
};
components = (
{
name = _eye;
transform = "{1, 0, 0, 1, 150, -151}";
},
{
name = _eye;
transform = "{1, 0, 0, 1, 50, 71}";
},
{
name = _eye;
transform = "{1, 0, 0, 1, 79, -43}";
},
{
name = _eye;
transform = "{1, 0, 0, 1, 261, -185}";
},
{
name = _eye;
transform = "{1, 0, 0, 1, 70, -168}";
}
);
layerId = "9FEBDF96-C5A3-469C-9009-8CF8388B2B9F";
paths = (
{
closed = 1;
nodes = (
"25 0 LINE",
"37 0 LINE",
"71 588 LINE",
"25 600 LINE"
);
},
{
closed = 1;
nodes = (
"25 185 LINE",
"425 185 LINE",
"425 190 LINE",
"25 199 LINE"
);
},
{
closed = 1;
nodes = (
"225 0 LINE",
"247 0 LINE",
"253 542 LINE",
"225 549 LINE"
);
},
{
closed = 1;
nodes = (
"25 239 LINE",
"425 223 LINE",
"425 239 LINE",
"25 261 LINE"
);
},
{
closed = 1;
nodes = (
"80 0 LINE",
"97 0 LINE",
"121 575 LINE",
"79 586 LINE"
);
},
{
closed = 1;
nodes = (
"25 195 LINE",
"425 185 LINE",
"425 202 LINE",
"25 211 LINE"
);
},
{
closed = 1;
nodes = (
"364 0 LINE",
"412 0 LINE",
"393 507 LINE",
"345 519 LINE"
);
},
{
closed = 1;
nodes = (
"25 217 LINE",
"425 187 LINE",
"425 221 LINE",
"25 236 LINE"
);
},
{
closed = 1;
nodes = (
"351 0 LINE",
"383 0 LINE",
"377 511 LINE",
"325 524 LINE"
);
},
{
closed = 1;
nodes = (
"25 176 LINE",
"425 176 LINE",
"425 187 LINE",
"25 190 LINE"
);
},
{
closed = 1;
nodes = (
"403 0 LINE",
"425 0 LINE",
"425 499 LINE",
"369 513 LINE"
);
},
{
closed = 1;
nodes = (
"25 304 LINE",
"425 214 LINE",
"425 221 LINE",
"25 323 LINE"
);
},
{
closed = 1;
nodes = (
"319 0 LINE",
"356 0 LINE",
"337 521 LINE",
"297 531 LINE"
);
},
{
closed = 1;
nodes = (
"25 233 LINE",
"425 214 LINE",
"425 236 LINE",
"25 247 LINE"
);
},
{
closed = 1;
nodes = (
"261 0 LINE",
"305 0 LINE",
"293 532 LINE",
"257 541 LINE"
);
},
{
closed = 1;
nodes = (
"25 206 LINE",
"425 195 LINE",
"425 210 LINE",
"25 225 LINE"
);
},
{
closed = 1;
nodes = (
"300 0 LINE",
"328 0 LINE",
"317 526 LINE",
"281 535 LINE"
);
},
{
closed = 1;
nodes = (
"25 255 LINE",
"425 225 LINE",
"425 247 LINE",
"25 277 LINE"
);
},
{
closed = 1;
nodes = (
"56 0 LINE",
"84 0 LINE",
"98 581 LINE",
"48 594 LINE"
);
},
{
closed = 1;
nodes = (
"25 253 LINE",
"425 214 LINE",
"425 258 LINE",
"25 258 LINE"
);
},
{
closed = 1;
nodes = (
"242 0 LINE",
"274 0 LINE",
"277 536 LINE",
"245 544 LINE"
);
},
{
closed = 1;
nodes = (
"25 274 LINE",
"425 234 LINE",
"425 245 LINE",
"25 288 LINE"
);
},
{
closed = 1;
nodes = (
"33 0 LINE",
"61 0 LINE",
"75 587 LINE",
"29 599 LINE"
);
},
{
closed = 1;
nodes = (
"25 266 LINE",
"425 247 LINE",
"425 255 LINE",
"25 281 LINE"
);
},
{
closed = 1;
nodes = (
"93 0 LINE",
"125 0 LINE",
"125 574 LINE",
"102 580 LINE"
);
},
{
closed = 1;
nodes = (
"25 294 LINE",
"425 199 LINE",
"425 234 LINE",
"25 308 LINE"
);
}
);
width = 450;
},
{
components = (
{
name = _eye;
transform = "{1, 0, 0, 1, 192, -174}";
},
{
name = _eye;
transform = "{1, 0, 0, 1, 92, 48}";
},
{
name = _eye;
transform = "{1, 0, 0, 1, 121, -66}";
},
{
name = _eye;
transform = "{1, 0, 0, 1, 303, -208}";
},
{
name = _eye;
transform = "{1, 0, 0, 1, 112, -191}";
}
);
layerId = "F1DD319B-D5A5-4BA6-A343-EFA3D63A9498";
paths = (
{
closed = 1;
nodes = (
"32 0 LINE",
"48 20 LINE",
"41 578 LINE",
"25 593 LINE"
);
},
{
closed = 1;
nodes = (
"32 0 LINE",
"151 0 LINE",
"133 17 LINE",
"48 20 LINE"
);
},
{
closed = 1;
nodes = (
"133 17 LINE",
"151 0 LINE",
"163 237 LINE",
"149 223 LINE"
);
},
{
closed = 1;
nodes = (
"104 223 LINE",
"149 223 LINE",
"163 237 LINE",
"85 242 LINE"
);
},
{
closed = 1;
nodes = (
"107 108 LINE",
"119 123 LINE",
"104 223 LINE",
"85 242 LINE"
);
},
{
closed = 1;
nodes = (
"107 108 LINE",
"351 110 LINE",
"334 129 LINE",
"119 123 LINE"
);
},
{
closed = 1;
nodes = (
"334 129 LINE",
"351 110 LINE",
"342 211 LINE",
"331 200 LINE"
);
},
{
closed = 1;
nodes = (
"295 205 LINE",
"331 200 LINE",
"342 211 LINE",
"280 226 LINE"
);
},
{
closed = 1;
nodes = (
"278 3 LINE",
"296 19 LINE",
"295 205 LINE",
"280 226 LINE"
);
},
{
closed = 1;
nodes = (
"278 3 LINE",
"425 7 LINE",
"403 26 LINE",
"296 19 LINE"
);
},
{
closed = 1;
nodes = (
"403 26 LINE",
"425 7 LINE",
"419 603 LINE",
"403 587 LINE"
);
},
{
closed = 1;
nodes = (
"247 579 LINE",
"403 587 LINE",
"419 603 LINE",
"229 600 LINE"
);
},
{
closed = 1;
nodes = (
"261 265 LINE",
"277 257 LINE",
"247 579 LINE",
"229 600 LINE"
);
},
{
closed = 1;
nodes = (
"184 234 LINE",
"277 257 LINE",
"261 265 LINE",
"173 243 LINE"
);
},
{
closed = 1;
nodes = (
"172 159 LINE",
"188 175 LINE",
"184 234 LINE",
"173 243 LINE"
);
},
{
closed = 1;
nodes = (
"172 159 LINE",
"235 156 LINE",
"223 171 LINE",
"188 175 LINE"
);
},
{
closed = 1;
nodes = (
"223 171 LINE",
"235 156 LINE",
"229 365 LINE",
"216 350 LINE"
);
},
{
closed = 1;
nodes = (
"112 344 LINE",
"216 350 LINE",
"229 365 LINE",
"94 357 LINE"
);
},
{
closed = 1;
nodes = (
"105 267 LINE",
"122 282 LINE",
"112 344 LINE",
"94 357 LINE"
);
},
{
closed = 1;
nodes = (
"105 267 LINE",
"167 265 LINE",
"157 283 LINE",
"122 282 LINE"
);
},
{
closed = 1;
nodes = (
"157 283 LINE",
"167 265 LINE",
"188 478 LINE",
"177 463 LINE"
);
},
{
closed = 1;
nodes = (
"83 459 LINE",
"177 463 LINE",
"188 478 LINE",
"69 478 LINE"
);
},
{
closed = 1;
nodes = (
"76 397 LINE",
"87 414 LINE",
"83 459 LINE",
"69 478 LINE"
);
},
{
closed = 1;
nodes = (
"76 397 LINE",
"142 395 LINE",
"131 407 LINE",
"87 414 LINE"
);
},
{
closed = 1;
nodes = (
"131 407 LINE",
"142 395 LINE",
"148 596 LINE",
"127 572 LINE"
);
},
{
closed = 1;
nodes = (
"41 578 LINE",
"127 572 LINE",
"148 596 LINE",
"25 593 LINE"
);
}
);
width = 450;
},
{
associatedMasterId = "9FEBDF96-C5A3-469C-9009-8CF8388B2B9F";
components = (
{
alignment = -1;
name = _Ileft;
transform = "{1, 0, 0, 1, 25, 0}";
},
{
alignment = -1;
name = _Hright;
transform = "{1, 0, 0, 1, 225, 0}";
}
);
layerId = "EA2C796A-4456-4BA7-9133-2152115D4885";
name = "Dec 16 21, 18:45";
paths = (
{
closed = 1;
nodes = (
"25 176 LINE",
"325 176 LINE",
"325 247 LINE",
"112 300 LINE",
"25 300 LINE"
);
}
);
width = 450;
}
);
unicode = 0048;
},
{
glyphname = I;
lastChange = "2021-12-16 18:01:57 +0000";
layers = (
{
background = {
paths = (
{
closed = 1;
nodes = (
"425 0 LINE",
"425 73 LINE",
"325 98 LINE",
"325 427 LINE",
"425 427 LINE",
"425 500 LINE",
"25 600 LINE",
"25 427 LINE",
"125 427 LINE",
"125 148 LINE",
"25 173 LINE",
"25 0 LINE"
);
}
);
};
components = (
{
name = _eye;
transform = "{1, 0, 0, 1, 150, 72}";
},
{
name = _eye;
transform = "{1, 0, 0, 1, 286, 72}";
}
);
layerId = "9FEBDF96-C5A3-469C-9009-8CF8388B2B9F";
paths = (
{
closed = 1;
nodes = (
"125 0 LINE",
"149 0 LINE",
"135 572 LINE",
"119 576 LINE"
);
},
{
closed = 1;
nodes = (
"25 427 LINE",
"425 427 LINE",
"425 451 LINE",
"25 482 LINE"
);
},
{
closed = 1;
nodes = (
"186 0 LINE",
"217 0 LINE",
"212 551 LINE",
"167 563 LINE"
);
},
{
closed = 1;
nodes = (
"25 549 LINE",
"425 462 LINE",
"425 484 LINE",
"25 590 LINE"
);
},
{
closed = 1;
nodes = (
"167 0 LINE",
"198 0 LINE",
"173 563 LINE",
"154 566 LINE"
);
},
{
closed = 1;
nodes = (
"25 123 LINE",
"425 44 LINE",
"425 73 LINE",
"25 173 LINE"
);
},
{
closed = 1;
nodes = (
"147 0 LINE",
"173 0 LINE",
"157 566 LINE",
"130 572 LINE"
);
},
{
closed = 1;
nodes = (
"25 0 LINE",
"425 0 LINE",
"425 17 LINE",
"25 60 LINE"
);
},
{
closed = 1;
nodes = (
"285 0 LINE",
"325 0 LINE",
"325 523 LINE",
"292 530 LINE"
);
},
{
closed = 1;
nodes = (
"25 52 LINE",
"425 17 LINE",
"425 52 LINE",
"25 128 LINE"
);
},
{
closed = 1;
nodes = (
"195 0 LINE",
"263 0 LINE",
"271 537 LINE",
"243 543 LINE"
);
},
{
closed = 1;
nodes = (
"25 500 LINE",
"425 433 LINE",
"425 469 LINE",
"25 558 LINE"
);
},
{
closed = 1;
nodes = (
"195 0 LINE",
"220 0 LINE",
"246 543 LINE",
"204 554 LINE"
);
},
{
closed = 1;
nodes = (
"25 475 LINE",
"425 440 LINE",
"425 446 LINE",
"25 506 LINE"
);
},
{
closed = 1;
nodes = (
"248 0 LINE",
"299 0 LINE",
"299 530 LINE",
"258 541 LINE"
);
},
{
closed = 1;
nodes = (
"25 587 LINE",
"425 478 LINE",
"425 500 LINE",
"25 600 LINE"
);
}
);
width = 450;
},
{
components = (
{
name = _eye;
transform = "{1, 0, 0, 1, 157, 90}";
},
{
name = _eye;
transform = "{1, 0, 0, 1, 293, 90}";
}
);
layerId = "F1DD319B-D5A5-4BA6-A343-EFA3D63A9498";
paths = (
{
closed = 1;
nodes = (
"45 424 LINE",
"64 441 LINE",
"58 587 LINE",
"39 602 LINE"
);
},
{
closed = 1;
nodes = (
"45 424 LINE",
"226 414 LINE",
"201 439 LINE",
"64 441 LINE"
);
},
{
closed = 1;
nodes = (
"201 439 LINE",
"226 414 LINE",
"208 529 LINE",
"189 519 LINE"
);
},
{
closed = 1;
nodes = (
"118 528 LINE",
"189 519 LINE",
"208 529 LINE",
"104 545 LINE"
);
},
{
closed = 1;
nodes = (
"110 152 LINE",
"135 124 LINE",
"118 528 LINE",
"104 545 LINE"
);
},
{
closed = 1;
nodes = (
"45 141 LINE",
"135 124 LINE",
"110 152 LINE",
"25 169 LINE"
);
},
{
closed = 1;
nodes = (
"33 0 LINE",
"54 27 LINE",
"45 141 LINE",
"25 169 LINE"
);
},
{
closed = 1;
nodes = (
"33 0 LINE",
"404 0 LINE",
"391 17 LINE",
"54 27 LINE"
);
},
{
closed = 1;
nodes = (
"391 17 LINE",
"404 0 LINE",
"425 114 LINE",
"399 93 LINE"
);
},
{
closed = 1;
nodes = (
"300 114 LINE",
"399 93 LINE",
"425 114 LINE",
"322 132 LINE"
);
},
{
closed = 1;
nodes = (
"300 114 LINE",
"322 132 LINE",
"351 540 LINE",
"338 527 LINE"
);
},
{
closed = 1;
nodes = (
"262 520 LINE",
"338 527 LINE",
"351 540 LINE",
"243 530 LINE"
);
},
{
closed = 1;
nodes = (
"238 444 LINE",
"258 455 LINE",
"262 520 LINE",
"243 530 LINE"
);
},
{
closed = 1;
nodes = (
"238 444 LINE",
"385 406 LINE",
"367 440 LINE",
"258 455 LINE"
);
},
{
closed = 1;
nodes = (
"367 440 LINE",
"385 406 LINE",
"407 614 LINE",
"386 599 LINE"
);
},
{
closed = 1;
nodes = (
"58 587 LINE",
"386 599 LINE",
"407 614 LINE",
"39 602 LINE"
);
}
);
width = 450;
},
{
associatedMasterId = "9FEBDF96-C5A3-469C-9009-8CF8388B2B9F";
components = (
{
alignment = -1;
name = _Lbottom;
transform = "{1, 0, 0, 1, 25, 0}";
},
{
alignment = -1;
name = _Lbottom;
transform = "{1, 0, 0, 1, 25, 427}";
},
{
alignment = -1;
name = _Hright;
transform = "{1, 0, 0, 1, 125, 0}";
}
);
layerId = "5292ECBB-C724-486B-82CB-472AE72D5DC7";
name = "Nov 30 21, 17:18";
width = 450;
},
{
associatedMasterId = "F1DD319B-D5A5-4BA6-A343-EFA3D63A9498";
layerId = "12CA9774-130A-4C6E-8D9E-4CEC82443D70";
name = "Dec 12 21, 10:03";
paths = (
{
closed = 1;
nodes = (
"38 424 LINE",
"53 430 LINE",
"57 585 LINE",
"38 600 LINE"
);
},
{
closed = 1;
nodes = (
"38 424 LINE",
"244 414 LINE",
"219 439 LINE",
"53 430 LINE"
);
},
{
closed = 1;
nodes = (
"219 439 LINE",
"244 414 LINE",
"220 526 LINE",
"207 519 LINE"
);
},
{
closed = 1;
nodes = (
"132 532 LINE",
"207 519 LINE",
"220 526 LINE",
"122 545 LINE"
);
},
{
closed = 1;
nodes = (
"122 138 LINE",
"145 117 LINE",
"132 532 LINE",
"122 545 LINE"
);
},
{
closed = 1;
nodes = (
"43 134 LINE",
"145 117 LINE",
"122 138 LINE",
"29 169 LINE"
);
},
{
closed = 1;
nodes = (
"26 0 LINE",
"43 25 LINE",
"43 134 LINE",
"29 169 LINE"
);
},
{
closed = 1;
nodes = (
"26 0 LINE",
"117 7 LINE",
"99 20 LINE",
"43 25 LINE"
);
},
{
closed = 1;
nodes = (
"99 20 LINE",
"117 7 LINE",
"126 59 LINE",
"113 71 LINE"
);
},
{
closed = 1;
nodes = (
"126 59 LINE",
"163 52 LINE",
"174 71 LINE",
"113 71 LINE"
);
},
{
closed = 1;
nodes = (
"163 0 LINE",
"182 24 LINE",
"174 71 LINE",
"163 52 LINE"
);
},
{
closed = 1;
nodes = (
"163 0 LINE",
"267 7 LINE",
"244 27 LINE",
"182 24 LINE"
);
},
{
closed = 1;
nodes = (
"244 27 LINE",
"267 7 LINE",
"261 52 LINE",
"251 67 LINE"
);
},
{
closed = 1;
nodes = (
"261 52 LINE",
"318 52 LINE",
"332 71 LINE",
"251 67 LINE"
);
},
{
closed = 1;
nodes = (
"318 0 LINE",
"345 20 LINE",
"332 71 LINE",
"318 52 LINE"
);
},
{
closed = 1;
nodes = (
"318 0 LINE",
"424 0 LINE",
"412 15 LINE",
"345 20 LINE"
);
},
{
closed = 1;
nodes = (
"412 15 LINE",
"424 0 LINE",
"433 103 LINE",
"419 93 LINE"
);
},
{
closed = 1;
nodes = (
"328 111 LINE",
"419 93 LINE",
"433 103 LINE",
"340 139 LINE"
);
},
{
closed = 1;
nodes = (
"328 111 LINE",
"340 139 LINE",
"358 556 LINE",
"350 548 LINE"
);
},
{
closed = 1;
nodes = (
"276 543 LINE",
"350 548 LINE",
"358 556 LINE",
"257 553 LINE"
);
},
{
closed = 1;
nodes = (
"251 471 LINE",
"262 477 LINE",
"276 543 LINE",
"257 553 LINE"
);
},
{
closed = 1;
nodes = (
"251 471 LINE",
"405 417 LINE",
"386 457 LINE",
"262 477 LINE"
);
},
{
closed = 1;
nodes = (
"386 457 LINE",
"405 417 LINE",
"417 609 LINE",
"405 600 LINE"
);
},
{
closed = 1;
nodes = (
"57 585 LINE",
"405 600 LINE",
"417 609 LINE",
"38 600 LINE"
);
},
{
closed = 1;
nodes = (
"155 466 LINE",
"190 472 LINE",
"179 500 LINE",
"155 500 LINE"
);
},
{
closed = 1;
nodes = (
"287 487 LINE",
"318 487 LINE",
"318 513 LINE",
"300 515 LINE"
);
}
);
width = 450;
}
);
unicode = 0049;
},
{
glyphname = J;
lastChange = "2021-12-23 08:57:22 +0000";
layers = (
{
background = {
paths = (
{
closed = 1;
nodes = (
"425 0 LINE",
"425 500 LINE",
"25 600 LINE",
"25 277 LINE",
"125 277 LINE",
"125 427 LINE",
"225 427 LINE",
"225 123 LINE",
"25 173 LINE",
"25 0 LINE"
);
}
);
};
components = (
{
name = _eye;
transform = "{1, 0, 0, 1, 171, 84}";
},
{
name = _eye;
transform = "{1, 0, 0, 1, 257, 78}";
},
{
name = _eye;
transform = "{1, 0, 0, 1, 340, 76}";
},
{
name = _eye;
transform = "{1, 0, 0, 1, 91, 92}";
}
);
layerId = "9FEBDF96-C5A3-469C-9009-8CF8388B2B9F";
paths = (
{
closed = 1;
nodes = (
"25 277 LINE",
"79 277 LINE",
"50 593 LINE",
"25 599 LINE"
);
},
{
closed = 1;
nodes = (
"25 540 LINE",
"425 484 LINE",
"425 496 LINE",
"25 575 LINE"
);
},
{
closed = 1;
nodes = (
"79 277 LINE",
"97 277 LINE",
"77 586 LINE",
"53 592 LINE"
);
},
{
closed = 1;
nodes = (
"25 451 LINE",
"425 463 LINE",
"425 475 LINE",
"25 480 LINE"
);
},
{
closed = 1;
nodes = (
"53 277 LINE",
"79 277 LINE",
"63 589 LINE",
"49 593 LINE"
);
},
{
closed = 1;
nodes = (
"25 474 LINE",
"425 458 LINE",
"425 471 LINE",
"25 500 LINE"
);
},
{
closed = 1;
nodes = (
"106 277 LINE",
"125 277 LINE",
"125 574 LINE",
"90 583 LINE"
);
},
{
closed = 1;
nodes = (
"25 447 LINE",
"425 458 LINE",
"425 467 LINE",
"25 474 LINE"
);
},
{
closed = 1;
nodes = (
"91 277 LINE",
"109 277 LINE",
"91 581 LINE",
"65 589 LINE"
);
},
{
closed = 1;
nodes = (
"25 563 LINE",
"425 479 LINE",
"425 500 LINE",
"25 600 LINE"
);
},
{
closed = 1;
nodes = (
"252 0 LINE",
"323 0 LINE",
"307 526 LINE",
"243 545 LINE"
);
},
{
closed = 1;
nodes = (
"25 437 LINE",
"425 448 LINE",
"425 459 LINE",
"25 454 LINE"
);
},
{
closed = 1;
nodes = (
"225 0 LINE",
"287 0 LINE",
"243 545 LINE",
"225 549 LINE"
);
},
{
closed = 1;
nodes = (
"25 495 LINE",
"425 467 LINE",
"425 484 LINE",
"25 522 LINE"
);
},
{
closed = 1;
nodes = (
"355 0 LINE",
"377 0 LINE",
"346 516 LINE",
"327 519 LINE"
);
},
{
closed = 1;
nodes = (
"25 427 LINE",
"425 427 LINE",
"425 451 LINE",
"25 443 LINE"
);
},
{
closed = 1;
nodes = (
"316 0 LINE",
"363 0 LINE",
"337 519 LINE",
"298 526 LINE"
);
},
{
closed = 1;
nodes = (
"25 518 LINE",
"425 484 LINE",
"425 491 LINE",
"25 545 LINE"
);
},
{
closed = 1;
nodes = (
"408 0 LINE",
"425 0 LINE",
"425 498 LINE",
"410 502 LINE"
);
},
{
closed = 1;
nodes = (
"425 0 LINE",
"425 19 LINE",
"25 73 LINE",
"25 0 LINE"
);
},
{
closed = 1;
nodes = (
"264 0 LINE",
"278 -1 LINE",
"287 529 LINE",
"264 537 LINE"
);
},
{
closed = 1;
nodes = (
"25 73 LINE",
"425 9 LINE",
"425 37 LINE",
"25 144 LINE"
);
},
{
closed = 1;
nodes = (
"373 0 LINE",
"410 0 LINE",
"417 501 LINE",
"337 519 LINE"
);
},
{
closed = 1;
nodes = (
"25 122 LINE",
"425 27 LINE",
"425 73 LINE",
"25 173 LINE"
);
}
);
width = 450;
},
{
components = (
{
name = _eye;
transform = "{1, 0, 0, 1, 167, 127}";
},
{
name = _eye;
transform = "{1, 0, 0, 1, 248, 127}";
},
{
name = _eye;
transform = "{1, 0, 0, 1, 340, 127}";
},
{
name = _eye;
transform = "{1, 0, 0, 1, 91, 127}";
}
);
layerId = "F1DD319B-D5A5-4BA6-A343-EFA3D63A9498";
paths = (
{
closed = 1;
nodes = (
"41 283 LINE",
"62 311 LINE",
"43 585 LINE",
"26 600 LINE"
);
},
{
closed = 1;
nodes = (
"43 585 LINE",
"115 576 LINE",
"130 587 LINE",
"26 600 LINE"
);
},
{
closed = 1;
nodes = (
"132 400 LINE",
"144 388 LINE",
"130 587 LINE",
"115 576 LINE"
);
},
{
closed = 1;
nodes = (
"75 376 LINE",
"144 388 LINE",
"132 400 LINE",
"92 396 LINE"
);
},
{
closed = 1;
nodes = (
"75 376 LINE",
"92 396 LINE",
"81 544 LINE",
"72 555 LINE"
);
},
{
closed = 1;
nodes = (
"81 544 LINE",
"193 538 LINE",
"206 556 LINE",
"72 555 LINE"
);
},
{
closed = 1;
nodes = (
"204 411 LINE",
"217 402 LINE",
"206 556 LINE",
"193 538 LINE"
);
},
{
closed = 1;
nodes = (
"160 391 LINE",
"217 402 LINE",
"204 411 LINE",
"172 409 LINE"
);
},
{
closed = 1;
nodes = (
"160 391 LINE",
"172 409 LINE",
"157 583 LINE",
"142 601 LINE"
);
},
{
closed = 1;
nodes = (
"157 583 LINE",
"279 588 LINE",
"288 600 LINE",
"142 601 LINE"
);
},
{
closed = 1;
nodes = (
"293 428 LINE",
"309 417 LINE",
"288 600 LINE",
"279 588 LINE"
);
},
{
closed = 1;
nodes = (
"227 406 LINE",
"309 417 LINE",
"293 428 LINE",
"242 423 LINE"
);
},
{
closed = 1;
nodes = (
"227 406 LINE",
"242 423 LINE",
"233 548 LINE",
"220 561 LINE"
);
},
{
closed = 1;
nodes = (
"233 548 LINE",
"375 538 LINE",
"389 554 LINE",
"220 561 LINE"
);
},
{
closed = 1;
nodes = (
"377 444 LINE",
"394 428 LINE",
"389 554 LINE",
"375 538 LINE"
);
},
{
closed = 1;
nodes = (
"320 420 LINE",
"394 428 LINE",
"377 444 LINE",
"333 436 LINE"
);
},
{
closed = 1;
nodes = (
"320 420 LINE",
"333 436 LINE",
"328 584 LINE",
"312 602 LINE"
);
},
{
closed = 1;
nodes = (
"328 584 LINE",
"409 579 LINE",
"420 591 LINE",
"312 602 LINE"
);
},
{
closed = 1;
nodes = (
"408 19 LINE",
"425 0 LINE",
"420 591 LINE",
"409 579 LINE"
);
},
{
closed = 1;
nodes = (
"425 0 LINE",
"408 19 LINE",
"50 25 LINE",
"25 1 LINE"
);
},
{
closed = 1;
nodes = (
"25 1 LINE",
"50 25 LINE",
"57 237 LINE",
"43 259 LINE"
);
},
{
closed = 1;
nodes = (
"57 237 LINE",
"362 144 LINE",
"347 172 LINE",
"43 259 LINE"
);
},
{
closed = 1;
nodes = (
"347 172 LINE",
"362 144 LINE",
"383 376 LINE",
"364 355 LINE"
);
},
{
closed = 1;
nodes = (
"41 283 LINE",
"364 355 LINE",
"383 376 LINE",
"62 311 LINE"
);
}
);
width = 450;
},
{
associatedMasterId = "9FEBDF96-C5A3-469C-9009-8CF8388B2B9F";
components = (
{
alignment = -1;
name = _Lbottom;
transform = "{1, 0, 0, 1, 25, 0}";
},
{
alignment = -1;
name = _Lbottom;
transform = "{1, 0, 0, 1, 25, 427}";
},
{
alignment = -1;
name = _Hright;
transform = "{1, 0, 0, 1, 225, 0}";
}
);
layerId = "AE36E5A9-D3D4-4107-84EC-5F5DBBE4F9AC";
name = "Dec 16 21, 19:10";
paths = (
{
closed = 1;
nodes = (
"25 427 LINE",
"25 277 LINE",
"125 277 LINE",
"125 427 LINE"
);
}
);
width = 450;
}
);
unicode = 004A;
},
{
glyphname = K;
lastChange = "2021-12-23 17:23:56 +0000";
layers = (
{
background = {
paths = (
{
closed = 1;
nodes = (
"25 174 LINE",
"325 174 LINE",
"325 247 LINE",
"112 300 LINE",
"25 300 LINE"
);
},
{
closed = 1;
nodes = (
"311 0 LINE",
"425 0 LINE",
"425 136 LINE",
"225 186 LINE",
"225 0 LINE"
);
},
{
closed = 1;
nodes = (
"25 0 LINE",
"125 0 LINE",
"125 575 LINE",
"25 600 LINE"
);
},
{
closed = 1;
nodes = (
"375 148 LINE",
"375 174 LINE",
"425 174 LINE",
"425 499 LINE",
"225 549 LINE",
"225 186 LINE"
);
}
);
};
components = (
{
name = _eye;
transform = "{1, 0, 0, 1, 229, -162}";
},
{
name = _eye;
transform = "{1, 0, 0, 1, 114, -169}";
}
);
layerId = "9FEBDF96-C5A3-469C-9009-8CF8388B2B9F";
paths = (
{
closed = 1;
nodes = (
"25 0 LINE",
"46 0 LINE",
"57 592 LINE",
"25 600 LINE"
);
},
{
closed = 1;
nodes = (
"27 207 LINE",
"425 203 LINE",
"425 212 LINE",
"27 225 LINE"
);
},
{
closed = 1;
nodes = (
"38 0 LINE",
"90 0 LINE",
"77 587 LINE",
"37 597 LINE"
);
},
{
closed = 1;
nodes = (
"27 243 LINE",
"425 238 LINE",
"425 242 LINE",
"27 254 LINE"
);
},
{
closed = 1;
nodes = (
"241 0 LINE",
"269 0 LINE",
"289 533 LINE",
"249 543 LINE"
);
},
{
closed = 1;
nodes = (
"27 190 LINE",
"425 190 LINE",
"425 197 LINE",
"27 200 LINE"
);
},
{
closed = 1;
nodes = (
"369 0 LINE",
"425 0 LINE",
"425 136 LINE",
"375 148 LINE"
);
},
{
closed = 1;
nodes = (
"311 0 LINE",
"330 0 LINE",
"333 522 LINE",
"301 530 LINE"
);
},
{
closed = 1;
nodes = (
"27 228 LINE",
"425 216 LINE",
"425 233 LINE",
"27 241 LINE"
);
},
{
closed = 1;
nodes = (
"265 0 LINE",
"289 0 LINE",
"297 531 LINE",
"269 538 LINE"
);
},
{
closed = 1;
nodes = (
"27 257 LINE",
"425 244 LINE",
"425 255 LINE",
"27 270 LINE"
);
},
{
closed = 1;
nodes = (
"375 174 LINE",
"425 174 LINE",
"425 499 LINE",
"365 514 LINE"
);
},
{
closed = 1;
nodes = (
"25 184 LINE",
"425 180 LINE",
"425 237 LINE",
"25 226 LINE"
);
},
{
closed = 1;
nodes = (
"273 0 LINE",
"311 0 LINE",
"309 528 LINE",
"281 535 LINE"
);
},
{
closed = 1;
nodes = (
"27 273 LINE",
"425 262 LINE",
"425 273 LINE",
"27 292 LINE"
);
},
{
closed = 1;
nodes = (
"320 0 LINE",
"375 0 LINE",
"377 511 LINE",
"317 526 LINE"
);
},
{
closed = 1;
nodes = (
"25 219 LINE",
"425 202 LINE",
"425 227 LINE",
"25 246 LINE"
);
},
{
closed = 1;
nodes = (
"95 0 LINE",
"125 0 LINE",
"125 575 LINE",
"85 585 LINE"
);
},
{
closed = 1;
nodes = (
"25 174 LINE",
"425 174 LINE",
"425 186 LINE",
"25 187 LINE"
);
},
{
closed = 1;
nodes = (
"225 0 LINE",
"252 0 LINE",
"261 540 LINE",
"225 549 LINE"
);
},
{
closed = 1;
nodes = (
"25 207 LINE",
"425 210 LINE",
"425 261 LINE",
"25 259 LINE"
);
},
{
closed = 1;
nodes = (
"85 0 LINE",
"98 0 LINE",
"93 583 LINE",
"69 589 LINE"
);
},
{
closed = 1;
nodes = (
"25 251 LINE",
"425 220 LINE",
"425 247 LINE",
"25 323 LINE"
);
}
);
width = 450;
},
{
components = (
{
name = _eye;
transform = "{1, 0, 0, 1, 271, 60}";
},
{
name = _eye;
transform = "{1, 0, 0, 1, 156, 53}";
}
);
layerId = "F1DD319B-D5A5-4BA6-A343-EFA3D63A9498";
paths = (
{
closed = 1;
nodes = (
"25 0 LINE",
"46 21 LINE",
"42 579 LINE",
"27 603 LINE"
);
},
{
closed = 1;
nodes = (
"25 0 LINE",
"116 0 LINE",
"100 15 LINE",
"46 21 LINE"
);
},
{
closed = 1;
nodes = (
"100 15 LINE",
"116 0 LINE",
"95 305 LINE",
"74 333 LINE"
);
},
{
closed = 1;
nodes = (
"95 305 LINE",
"129 292 LINE",
"143 301 LINE",
"74 333 LINE"
);
},
{
closed = 1;
nodes = (
"295 0 LINE",
"307 15 LINE",
"143 301 LINE",
"129 292 LINE"
);
},
{
closed = 1;
nodes = (
"295 0 LINE",
"425 0 LINE",
"403 18 LINE",
"307 15 LINE"
);
},
{
closed = 1;
nodes = (
"403 18 LINE",
"425 0 LINE",
"411 148 LINE",
"398 141 LINE"
);
},
{
closed = 1;
nodes = (
"398 141 LINE",
"411 148 LINE",
"341 260 LINE",
"328 235 LINE"
);
},
{
closed = 1;
nodes = (
"200 259 LINE",
"328 235 LINE",
"341 260 LINE",
"219 271 LINE"
);
},
{
closed = 1;
nodes = (
"200 259 LINE",
"219 271 LINE",
"231 317 LINE",
"211 329 LINE"
);
},
{
closed = 1;
nodes = (
"231 317 LINE",
"398 408 LINE",
"385 416 LINE",
"211 329 LINE"
);
},
{
closed = 1;
nodes = (
"385 416 LINE",
"398 408 LINE",
"410 542 LINE",
"394 524 LINE"
);
},
{
closed = 1;
nodes = (
"245 509 LINE",
"394 524 LINE",
"410 542 LINE",
"234 522 LINE"
);
},
{
closed = 1;
nodes = (
"226 398 LINE",
"242 416 LINE",
"245 509 LINE",
"234 522 LINE"
);
},
{
closed = 1;
nodes = (
"226 398 LINE",
"308 412 LINE",
"298 428 LINE",
"242 416 LINE"
);
},
{
closed = 1;
nodes = (
"298 428 LINE",
"308 412 LINE",
"411 597 LINE",
"380 579 LINE"
);
},
{
closed = 1;
nodes = (
"182 583 LINE",
"380 579 LINE",
"411 597 LINE",
"173 598 LINE"
);
},
{
closed = 1;
nodes = (
"104 398 LINE",
"124 411 LINE",
"182 583 LINE",
"173 598 LINE"
);
},
{
closed = 1;
nodes = (
"104 398 LINE",
"202 407 LINE",
"191 419 LINE",
"124 411 LINE"
);
},
{
closed = 1;
nodes = (
"191 419 LINE",
"202 407 LINE",
"208 517 LINE",
"193 503 LINE"
);
},
{
closed = 1;
nodes = (
"86 489 LINE",
"193 503 LINE",
"208 517 LINE",
"99 506 LINE"
);
},
{
closed = 1;
nodes = (
"86 489 LINE",
"99 506 LINE",
"109 601 LINE",
"90 584 LINE"
);
},
{
closed = 1;
nodes = (
"42 579 LINE",
"90 584 LINE",
"109 601 LINE",
"27 603 LINE"
);
}
);
width = 450;
},
{
associatedMasterId = "F1DD319B-D5A5-4BA6-A343-EFA3D63A9498";
layerId = "CEF67F7C-FF89-4B26-9D74-AED61DA3082C";
name = "Dec 12 21, 10:03";
paths = (
{
closed = 1;
nodes = (
"10 0 LINE",
"26 12 LINE",
"31 600 LINE",
"16 625 LINE"
);
},
{
closed = 1;
nodes = (
"10 0 LINE",
"105 0 LINE",
"88 16 LINE",
"26 12 LINE"
);
},
{
closed = 1;
nodes = (
"88 16 LINE",
"105 0 LINE",
"78 324 LINE",
"67 340 LINE"
);
},
{
closed = 1;
nodes = (
"78 324 LINE",
"118 303 LINE",
"132 312 LINE",
"67 340 LINE"
);
},
{
closed = 1;
nodes = (
"127 9 LINE",
"144 19 LINE",
"132 312 LINE",
"118 303 LINE"
);
},
{
closed = 1;
nodes = (
"127 9 LINE",
"208 -1 LINE",
"196 27 LINE",
"144 19 LINE"
);
},
{
closed = 1;
nodes = (
"196 27 LINE",
"208 -1 LINE",
"200 190 LINE",
"182 224 LINE"
);
},
{
closed = 1;
nodes = (
"200 190 LINE",
"233 200 LINE",
"242 209 LINE",
"182 224 LINE"
);
},
{
closed = 1;
nodes = (
"281 5 LINE",
"296 16 LINE",
"242 209 LINE",
"233 200 LINE"
);
},
{
closed = 1;
nodes = (
"281 5 LINE",
"414 0 LINE",
"390 25 LINE",
"296 16 LINE"
);
},
{
closed = 1;
nodes = (
"390 25 LINE",
"414 0 LINE",
"398 152 LINE",
"386 152 LINE"
);
},
{
closed = 1;
nodes = (
"386 152 LINE",
"398 152 LINE",
"330 270 LINE",
"317 244 LINE"
);
},
{
closed = 1;
nodes = (
"189 268 LINE",
"317 244 LINE",
"330 270 LINE",
"208 275 LINE"
);
},
{
closed = 1;
nodes = (
"189 268 LINE",
"208 275 LINE",
"222 332 LINE",
"200 341 LINE"
);
},
{
closed = 1;
nodes = (
"222 332 LINE",
"387 423 LINE",
"377 429 LINE",
"200 341 LINE"
);
},
{
closed = 1;
nodes = (
"377 429 LINE",
"387 423 LINE",
"399 562 LINE",
"384 550 LINE"
);
},
{
closed = 1;
nodes = (
"234 528 LINE",
"384 550 LINE",
"399 562 LINE",
"223 541 LINE"
);
},
{
closed = 1;
nodes = (
"215 420 LINE",
"231 431 LINE",
"234 528 LINE",
"223 541 LINE"
);
},
{
closed = 1;
nodes = (
"215 420 LINE",
"292 428 LINE",
"287 444 LINE",
"231 431 LINE"
);
},
{
closed = 1;
nodes = (
"287 444 LINE",
"292 428 LINE",
"400 619 LINE",
"369 594 LINE"
);
},
{
closed = 1;
nodes = (
"186 607 LINE",
"369 594 LINE",
"400 619 LINE",
"174 619 LINE"
);
},
{
closed = 1;
nodes = (
"93 413 LINE",
"116 422 LINE",
"186 607 LINE",
"174 619 LINE"
);
},
{
closed = 1;
nodes = (
"93 413 LINE",
"183 419 LINE",
"174 434 LINE",
"116 422 LINE"
);
},
{
closed = 1;
nodes = (
"174 434 LINE",
"183 419 LINE",
"189 520 LINE",
"174 512 LINE"
);
},
{
closed = 1;
nodes = (
"75 494 LINE",
"174 512 LINE",
"189 520 LINE",
"85 516 LINE"
);
},
{
closed = 1;
nodes = (
"75 494 LINE",
"85 516 LINE",
"98 623 LINE",
"78 604 LINE"
);
},
{
closed = 1;
nodes = (
"31 600 LINE",
"78 604 LINE",
"98 623 LINE",
"16 625 LINE"
);
},
{
closed = 1;
nodes = (
"142 469 LINE",
"171 471 LINE",
"171 486 LINE",
"150 493 LINE"
);
},
{
closed = 1;
nodes = (
"252 479 LINE",
"272 478 LINE",
"272 493 LINE",
"251 500 LINE"
);
}
);
width = 440;
},
{
associatedMasterId = "9FEBDF96-C5A3-469C-9009-8CF8388B2B9F";
layerId = "C94EB837-997C-4E80-91A0-E05ADC9A33F3";
name = "Dec 16 21, 19:20";
paths = (
{
closed = 1;
nodes = (
"25 174 LINE",
"325 174 LINE",
"325 247 LINE",
"112 300 LINE",
"25 300 LINE"
);
},
{
closed = 1;
nodes = (
"311 0 LINE",
"425 0 LINE",
"425 136 LINE",
"225 186 LINE",
"225 0 LINE"
);
},
{
closed = 1;
nodes = (
"25 0 LINE",
"125 0 LINE",
"125 575 LINE",
"25 600 LINE"
);
},
{
closed = 1;
nodes = (
"375 148 LINE",
"375 174 LINE",
"425 174 LINE",
"425 499 LINE",
"225 549 LINE",
"225 186 LINE"
);
}
);
width = 450;
}
);
unicode = 004B;
},
{
glyphname = L;
lastChange = "2021-12-18 10:21:13 +0000";
layers = (
{
background = {
paths = (
{
closed = 1;
nodes = (
"425 0 LINE",
"425 75 LINE",
"225 126 LINE",
"225 549 LINE",
"25 600 LINE",
"25 0 LINE"
);
}
);
};
components = (
{
name = _eye;
transform = "{1, 0, 0, 1, 153, 60}";
},
{
name = _eye;
transform = "{1, 0, 0, 1, 52, 60}";
}
);
layerId = "9FEBDF96-C5A3-469C-9009-8CF8388B2B9F";
paths = (
{
closed = 1;
nodes = (
"25 149 LINE",
"425 24 LINE",
"425 75 LINE",
"25 177 LINE"
);
},
{
closed = 1;
nodes = (
"71 0 LINE",
"121 0 LINE",
"112 578 LINE",
"76 587 LINE"
);
},
{
closed = 1;
nodes = (
"25 90 LINE",
"425 33 LINE",
"425 69 LINE",
"25 114 LINE"
);
},
{
closed = 1;
nodes = (
"153 0 LINE",
"179 0 LINE",
"174 562 LINE",
"135 572 LINE"
);
},
{
closed = 1;
nodes = (
"25 107 LINE",
"425 44 LINE",
"425 53 LINE",
"25 159 LINE"
);
},
{
closed = 1;
nodes = (
"104 0 LINE",
"156 0 LINE",
"139 571 LINE",
"112 578 LINE"
);
},
{
closed = 1;
nodes = (
"25 19 LINE",
"425 9 LINE",
"425 60 LINE",
"25 92 LINE"
);
},
{
closed = 1;
nodes = (
"169 0 LINE",
"225 0 LINE",
"225 549 LINE",
"174 562 LINE"
);
},
{
closed = 1;
nodes = (
"25 0 LINE",
"425 0 LINE",
"425 16 LINE",
"25 24 LINE"
);
},
{
closed = 1;
nodes = (
"25 0 LINE",
"86 0 LINE",
"76 587 LINE",
"25 601 LINE"
);
}
);
width = 450;
},
{
background = {
paths = (
{
closed = 1;
nodes = (
"45 468 LINE",
"74 470 LINE",
"74 485 LINE",
"53 492 LINE"
);
},
{
closed = 1;
nodes = (
"155 478 LINE",
"175 477 LINE",
"175 492 LINE",
"154 499 LINE"
);
},
{
closed = 1;
nodes = (
"95 0 LINE",
"96 65 LINE",
"137 73 LINE",
"140 0 LINE",
"176 -10 LINE",
"185 45 LINE",
"199 46 LINE",
"196 -10 LINE",
"233 -6 LINE",
"237 43 LINE",
"254 38 LINE",
"259 -7 LINE",
"287 0 LINE",
"293 42 LINE",
"311 35 LINE",
"316 0 LINE",
"360 0 LINE",
"360 135 LINE",
"194 167 LINE",
"199 564 LINE",
"137 556 LINE",
"122 360 LINE",
"101 355 LINE",
"97 582 LINE",
"28 599 LINE",
"17 -6 LINE"
);
},
{
closed = 1;
nodes = (
"41 582 LINE",
"86 571 LINE",
"85 329 LINE",
"143 349 LINE",
"143 544 LINE",
"185 554 LINE",
"178 157 LINE",
"353 117 LINE",
"344 16 LINE",
"321 7 LINE",
"317 60 LINE",
"284 51 LINE",
"280 9 LINE",
"266 16 LINE",
"261 44 LINE",
"231 48 LINE",
"225 7 LINE",
"208 4 LINE",
"212 55 LINE",
"176 53 LINE",
"172 16 LINE",
"145 7 LINE",
"152 83 LINE",
"86 74 LINE",
"88 12 LINE",
"32 9 LINE"
);
}
);
};
components = (
{
name = _eye;
transform = "{1, 0, 0, 1, 153, 60}";
},
{
name = _eye;
transform = "{1, 0, 0, 1, 52, 60}";
}
);
layerId = "F1DD319B-D5A5-4BA6-A343-EFA3D63A9498";
paths = (
{
closed = 1;
nodes = (
"39 584 LINE",
"85 581 LINE",
"104 600 LINE",
"25 598 LINE"
);
},
{
closed = 1;
nodes = (
"89 334 LINE",
"108 358 LINE",
"104 600 LINE",
"85 581 LINE"
);
},
{
closed = 1;
nodes = (
"89 334 LINE",
"138 337 LINE",
"125 356 LINE",
"108 358 LINE"
);
},
{
closed = 1;
nodes = (
"125 356 LINE",
"138 337 LINE",
"151 578 LINE",
"138 599 LINE"
);
},
{
closed = 1;
nodes = (
"151 578 LINE",
"190 584 LINE",
"208 601 LINE",
"138 599 LINE"
);
},
{
closed = 1;
nodes = (
"179 149 LINE",
"195 161 LINE",
"208 601 LINE",
"190 584 LINE"
);
},
{
closed = 1;
nodes = (
"179 149 LINE",
"401 112 LINE",
"425 129 LINE",
"195 161 LINE"
);
},
{
closed = 1;
nodes = (
"382 16 LINE",
"395 0 LINE",
"425 129 LINE",
"401 112 LINE"
);
},
{
closed = 1;
nodes = (
"28 0 LINE",
"395 0 LINE",
"382 16 LINE",
"52 24 LINE"
);
},
{
closed = 1;
nodes = (
"28 0 LINE",
"52 24 LINE",
"39 584 LINE",
"25 598 LINE"
);
}
);
width = 450;
},
{
associatedMasterId = "9FEBDF96-C5A3-469C-9009-8CF8388B2B9F";
components = (
{
name = I;
},
{
alignment = -1;
name = _Lbottom;
transform = "{1, 0, 0, 1, 20, 0}";
}
);
layerId = "42FFE05F-7C0E-436E-AD2C-8FA4746C679C";
name = "Nov 26 21, 22:41";
width = 440;
},
{
associatedMasterId = "F1DD319B-D5A5-4BA6-A343-EFA3D63A9498";
layerId = "928C90B7-57AD-4FB9-9258-9E798AFC85E7";
name = "Dec 12 21, 10:03";
paths = (
{
closed = 1;
nodes = (
"35 468 LINE",
"64 470 LINE",
"64 485 LINE",
"43 492 LINE"
);
},
{
closed = 1;
nodes = (
"145 478 LINE",
"165 477 LINE",
"165 492 LINE",
"144 499 LINE"
);
},
{
closed = 1;
nodes = (
"85 0 LINE",
"86 65 LINE",
"127 73 LINE",
"130 0 LINE",
"166 -10 LINE",
"175 45 LINE",
"189 46 LINE",
"186 -10 LINE",
"223 -6 LINE",
"227 43 LINE",
"244 38 LINE",
"249 -7 LINE",
"277 0 LINE",
"283 42 LINE",
"301 35 LINE",
"306 0 LINE",
"350 0 LINE",
"350 135 LINE",
"184 167 LINE",
"189 564 LINE",
"127 556 LINE",
"112 360 LINE",
"91 355 LINE",
"87 582 LINE",
"18 599 LINE",
"7 -6 LINE"
);
},
{
closed = 1;
nodes = (
"31 582 LINE",
"76 571 LINE",
"75 329 LINE",
"133 349 LINE",
"133 544 LINE",
"175 554 LINE",
"168 157 LINE",
"343 117 LINE",
"334 16 LINE",
"311 7 LINE",
"307 60 LINE",
"274 51 LINE",
"270 9 LINE",
"256 16 LINE",
"251 44 LINE",
"221 48 LINE",
"215 7 LINE",
"198 4 LINE",
"202 55 LINE",
"166 53 LINE",
"162 16 LINE",
"135 7 LINE",
"142 83 LINE",
"76 74 LINE",
"78 12 LINE",
"22 9 LINE"
);
}
);
width = 370;
}
);
unicode = 004C;
},
{
glyphname = Lslash;
lastChange = "2021-12-18 09:40:43 +0000";
layers = (
{
background = {
paths = (
{
closed = 1;
nodes = (
"475 0 LINE",
"475 75 LINE",
"275 126 LINE",
"275 549 LINE",
"75 600 LINE",
"75 0 LINE"
);
},
{
closed = 1;
nodes = (
"425 276 LINE",
"425 322 LINE",
"25 322 LINE",
"25 176 LINE"
);
}
);
};
components = (
{
name = _eye;
transform = "{1, 0, 0, 1, 223, 47}";
},
{
name = _eye;
transform = "{1, 0, 0, 1, 122, 47}";
}
);
layerId = "9FEBDF96-C5A3-469C-9009-8CF8388B2B9F";
paths = (
{
closed = 1;
nodes = (
"75 149 LINE",
"475 24 LINE",
"475 75 LINE",
"75 177 LINE"
);
},
{
closed = 1;
nodes = (
"121 0 LINE",
"171 0 LINE",
"162 578 LINE",
"126 587 LINE"
);
},
{
closed = 1;
nodes = (
"75 90 LINE",
"475 33 LINE",
"475 69 LINE",
"75 114 LINE"
);
},
{
closed = 1;
nodes = (
"203 0 LINE",
"229 0 LINE",
"224 562 LINE",
"185 572 LINE"
);
},
{
closed = 1;
nodes = (
"75 107 LINE",
"475 44 LINE",
"475 53 LINE",
"75 159 LINE"
);
},
{
closed = 1;
nodes = (
"154 0 LINE",
"206 0 LINE",
"189 571 LINE",
"162 578 LINE"
);
},
{
closed = 1;
nodes = (
"75 19 LINE",
"475 9 LINE",
"475 60 LINE",
"75 92 LINE"
);
},
{
closed = 1;
nodes = (
"219 0 LINE",
"275 0 LINE",
"275 549 LINE",
"224 562 LINE"
);
},
{
closed = 1;
nodes = (
"75 0 LINE",
"475 0 LINE",
"475 16 LINE",
"75 24 LINE"
);
},
{
closed = 1;
nodes = (
"75 0 LINE",
"136 0 LINE",
"126 587 LINE",
"75 601 LINE"
);
},
{
closed = 1;
nodes = (
"25 230 LINE",
"425 290 LINE",
"425 322 LINE",
"25 322 LINE"
);
},
{
closed = 1;
nodes = (
"185 9 LINE",
"263 4 LINE",
"263 545 LINE",
"206 557 LINE"
);
},
{
closed = 1;
nodes = (
"25 176 LINE",
"425 276 LINE",
"425 301 LINE",
"25 261 LINE"
);
},
{
closed = 1;
nodes = (
"142 9 LINE",
"215 9 LINE",
"197 562 LINE",
"142 571 LINE"
);
}
);
width = 500;
},
{
components = (
{
name = _eye;
transform = "{1, 0, 0, 1, 206, 59}";
},
{
name = _eye;
transform = "{1, 0, 0, 1, 101, 60}";
}
);
layerId = "F1DD319B-D5A5-4BA6-A343-EFA3D63A9498";
paths = (
{
closed = 1;
nodes = (
"89 584 LINE",
"135 581 LINE",
"154 600 LINE",
"75 598 LINE"
);
},
{
closed = 1;
nodes = (
"139 334 LINE",
"158 358 LINE",
"154 600 LINE",
"135 581 LINE"
);
},
{
closed = 1;
nodes = (
"139 334 LINE",
"188 337 LINE",
"175 356 LINE",
"158 358 LINE"
);
},
{
closed = 1;
nodes = (
"175 356 LINE",
"188 337 LINE",
"201 578 LINE",
"188 599 LINE"
);
},
{
closed = 1;
nodes = (
"201 578 LINE",
"240 584 LINE",
"258 601 LINE",
"188 599 LINE"
);
},
{
closed = 1;
nodes = (
"251 245 LINE",
"269 231 LINE",
"258 601 LINE",
"240 584 LINE"
);
},
{
closed = 1;
nodes = (
"270 122 LINE",
"451 112 LINE",
"475 129 LINE",
"293 138 LINE"
);
},
{
closed = 1;
nodes = (
"432 16 LINE",
"445 0 LINE",
"475 129 LINE",
"451 112 LINE"
);
},
{
closed = 1;
nodes = (
"78 0 LINE",
"445 0 LINE",
"432 16 LINE",
"99 20 LINE"
);
},
{
closed = 1;
nodes = (
"78 0 LINE",
"99 20 LINE",
"89 584 LINE",
"75 598 LINE"
);
},
{
closed = 1;
nodes = (
"39 242 LINE",
"318 342 LINE",
"345 373 LINE",
"25 258 LINE"
);
},
{
closed = 1;
nodes = (
"270 122 LINE",
"293 138 LINE",
"345 373 LINE",
"318 342 LINE"
);
},
{
closed = 1;
nodes = (
"25 146 LINE",
"269 231 LINE",
"251 245 LINE",
"43 169 LINE"
);
},
{
closed = 1;
nodes = (
"25 146 LINE",
"43 169 LINE",
"39 242 LINE",
"25 258 LINE"
);
}
);
width = 500;
}
);
unicode = 0141;
},
{
glyphname = M;
lastChange = "2021-12-17 09:04:13 +0000";
layers = (
{
background = {
paths = (
{
closed = 1;
nodes = (
"125 0 LINE",
"125 427 LINE",
"225 427 LINE",
"225 0 LINE",
"325 0 LINE",
"325 427 LINE",
"425 427 LINE",
"425 0 LINE",
"625 0 LINE",
"625 500 LINE",
"225 600 LINE",
"225 550 LINE",
"25 600 LINE",
"25 0 LINE"
);
}
);
};
components = (
{
name = _eye;
transform = "{1, 0, 0, 1, 376, 83}";
},
{
name = _eye;
transform = "{1, 0, 0, 1, 207, 83}";
}
);
layerId = "9FEBDF96-C5A3-469C-9009-8CF8388B2B9F";
paths = (
{
closed = 1;
nodes = (
"25 0 LINE",
"53 0 LINE",
"67 587 LINE",
"25 600 LINE"
);
},
{
closed = 1;
nodes = (
"25 451 LINE",
"225 452 LINE",
"225 469 LINE",
"25 478 LINE"
);
},
{
closed = 1;
nodes = (
"47 0 LINE",
"82 0 LINE",
"89 583 LINE",
"48 593 LINE"
);
},
{
closed = 1;
nodes = (
"25 494 LINE",
"225 502 LINE",
"225 535 LINE",
"25 565 LINE"
);
},
{
closed = 1;
nodes = (
"77 0 LINE",
"125 0 LINE",
"125 574 LINE",
"79 586 LINE"
);
},
{
closed = 1;
nodes = (
"25 442 LINE",
"225 442 LINE",
"225 457 LINE",
"25 457 LINE"
);
},
{
closed = 1;
nodes = (
"225 0 LINE",
"265 0 LINE",
"279 585 LINE",
"225 600 LINE"
);
},
{
closed = 1;
nodes = (
"25 479 LINE",
"225 485 LINE",
"225 507 LINE",
"25 515 LINE"
);
},
{
closed = 1;
nodes = (
"258 0 LINE",
"294 0 LINE",
"302 580 LINE",
"265 589 LINE"
);
},
{
closed = 1;
nodes = (
"25 427 LINE",
"225 427 LINE",
"225 447 LINE",
"25 451 LINE"
);
},
{
closed = 1;
nodes = (
"287 0 LINE",
"325 0 LINE",
"325 575 LINE",
"287 583 LINE"
);
},
{
closed = 1;
nodes = (
"425 0 LINE",
"477 0 LINE",
"477 535 LINE",
"425 549 LINE"
);
},
{
closed = 1;
nodes = (
"225 454 LINE",
"625 441 LINE",
"625 457 LINE",
"225 473 LINE"
);
},
{
closed = 1;
nodes = (
"468 0 LINE",
"513 0 LINE",
"517 526 LINE",
"472 537 LINE"
);
},
{
closed = 1;
nodes = (
"225 493 LINE",
"625 461 LINE",
"625 484 LINE",
"225 510 LINE"
);
},
{
closed = 1;
nodes = (
"505 0 LINE",
"550 0 LINE",
"554 517 LINE",
"506 529 LINE"
);
},
{
closed = 1;
nodes = (
"225 442 LINE",
"625 431 LINE",
"625 447 LINE",
"225 457 LINE"
);
},
{
closed = 1;
nodes = (
"540 0 LINE",
"582 0 LINE",
"585 509 LINE",
"545 519 LINE"
);
},
{
closed = 1;
nodes = (
"225 509 LINE",
"625 473 LINE",
"625 496 LINE",
"225 534 LINE"
);
},
{
closed = 1;
nodes = (
"570 0 LINE",
"609 0 LINE",
"611 503 LINE",
"577 509 LINE"
);
},
{
closed = 1;
nodes = (
"225 427 LINE",
"625 427 LINE",
"625 436 LINE",
"225 442 LINE"
);
},
{
closed = 1;
nodes = (
"599 0 LINE",
"625 0 LINE",
"625 500 LINE",
"581 510 LINE"
);
},
{
closed = 1;
nodes = (
"225 456 LINE",
"625 456 LINE",
"625 473 LINE",
"225 480 LINE"
);
},
{
closed = 1;
nodes = (
"225 544 LINE",
"625 490 LINE",
"625 500 LINE",
"225 600 LINE"
);
},
{
closed = 1;
nodes = (
"458 0 LINE",
"475 0 LINE",
"496 531 LINE",
"436 543 LINE"
);
},
{
closed = 1;
nodes = (
"552 0 LINE",
"585 509 LINE",
"524 524 LINE",
"545 0 LINE"
);
},
{
closed = 1;
nodes = (
"225 531 LINE",
"625 487 LINE",
"625 497 LINE",
"225 547 LINE"
);
},
{
closed = 1;
nodes = (
"248 593 LINE",
"291 0 LINE",
"297 0 LINE",
"303 579 LINE"
);
},
{
closed = 1;
nodes = (
"309 0 LINE",
"317 0 LINE",
"320 576 LINE",
"303 579 LINE"
);
},
{
closed = 1;
nodes = (
"25 546 LINE",
"225 519 LINE",
"225 550 LINE",
"25 600 LINE"
);
},
{
closed = 1;
nodes = (
"25 471 LINE",
"225 469 LINE",
"225 487 LINE",
"25 493 LINE"
);
},
{
closed = 1;
nodes = (
"225 475 LINE",
"625 465 LINE",
"625 466 LINE",
"225 496 LINE"
);
}
);
width = 650;
},
{
components = (
{
name = _eye;
transform = "{1, 0, 0, 1, 390, 115}";
},
{
name = _eye;
transform = "{1, 0, 0, 1, 254, 115}";
}
);
layerId = "F1DD319B-D5A5-4BA6-A343-EFA3D63A9498";
paths = (
{
closed = 1;
nodes = (
"25 0 LINE",
"44 21 LINE",
"61 592 LINE",
"44 608 LINE"
);
},
{
closed = 1;
nodes = (
"25 0 LINE",
"99 1 LINE",
"82 18 LINE",
"44 21 LINE"
);
},
{
closed = 1;
nodes = (
"82 18 LINE",
"99 1 LINE",
"98 441 LINE",
"84 465 LINE"
);
},
{
closed = 1;
nodes = (
"98 441 LINE",
"132 449 LINE",
"154 482 LINE",
"84 465 LINE"
);
},
{
closed = 1;
nodes = (
"115 0 LINE",
"134 15 LINE",
"154 482 LINE",
"132 449 LINE"
);
},
{
closed = 1;
nodes = (
"115 0 LINE",
"176 0 LINE",
"156 14 LINE",
"134 15 LINE"
);
},
{
closed = 1;
nodes = (
"156 14 LINE",
"176 0 LINE",
"187 375 LINE",
"173 395 LINE"
);
},
{
closed = 1;
nodes = (
"187 375 LINE",
"212 381 LINE",
"231 403 LINE",
"173 395 LINE"
);
},
{
closed = 1;
nodes = (
"187 0 LINE",
"210 23 LINE",
"231 403 LINE",
"212 381 LINE"
);
},
{
closed = 1;
nodes = (
"187 0 LINE",
"248 3 LINE",
"234 20 LINE",
"210 23 LINE"
);
},
{
closed = 1;
nodes = (
"234 20 LINE",
"248 3 LINE",
"288 309 LINE",
"268 331 LINE"
);
},
{
closed = 1;
nodes = (
"390 0 LINE",
"411 19 LINE",
"386 344 LINE",
"369 320 LINE"
);
},
{
closed = 1;
nodes = (
"390 0 LINE",
"455 0 LINE",
"438 16 LINE",
"411 19 LINE"
);
},
{
closed = 1;
nodes = (
"438 16 LINE",
"455 0 LINE",
"448 372 LINE",
"426 389 LINE"
);
},
{
closed = 1;
nodes = (
"448 372 LINE",
"472 376 LINE",
"493 402 LINE",
"426 389 LINE"
);
},
{
closed = 1;
nodes = (
"472 0 LINE",
"488 15 LINE",
"493 402 LINE",
"472 376 LINE"
);
},
{
closed = 1;
nodes = (
"472 0 LINE",
"534 2 LINE",
"513 18 LINE",
"488 15 LINE"
);
},
{
closed = 1;
nodes = (
"513 18 LINE",
"534 2 LINE",
"533 453 LINE",
"515 474 LINE"
);
},
{
closed = 1;
nodes = (
"533 453 LINE",
"554 456 LINE",
"575 484 LINE",
"515 474 LINE"
);
},
{
closed = 1;
nodes = (
"554 0 LINE",
"569 15 LINE",
"575 484 LINE",
"554 456 LINE"
);
},
{
closed = 1;
nodes = (
"554 0 LINE",
"623 0 LINE",
"605 22 LINE",
"569 15 LINE"
);
},
{
closed = 1;
nodes = (
"605 22 LINE",
"623 0 LINE",
"625 596 LINE",
"605 585 LINE"
);
},
{
closed = 1;
nodes = (
"288 309 LINE",
"369 320 LINE",
"386 344 LINE",
"268 331 LINE"
);
},
{
closed = 1;
nodes = (
"382 600 LINE",
"605 585 LINE",
"625 596 LINE",
"364 617 LINE"
);
},
{
closed = 1;
nodes = (
"344 364 LINE",
"361 385 LINE",
"382 600 LINE",
"364 617 LINE"
);
},
{
closed = 1;
nodes = (
"404 368 LINE",
"463 559 LINE",
"433 540 LINE",
"397 388 LINE"
);
},
{
closed = 1;
nodes = (
"229 545 LINE",
"433 540 LINE",
"463 559 LINE",
"206 561 LINE"
);
},
{
closed = 1;
nodes = (
"206 561 LINE",
"252 362 LINE",
"266 384 LINE",
"229 545 LINE"
);
},
{
closed = 1;
nodes = (
"299 378 LINE",
"320 360 LINE",
"310 619 LINE",
"293 598 LINE"
);
},
{
closed = 1;
nodes = (
"61 592 LINE",
"293 598 LINE",
"310 619 LINE",
"44 608 LINE"
);
},
{
closed = 1;
nodes = (
"252 362 LINE",
"320 360 LINE",
"299 378 LINE",
"266 384 LINE"
);
},
{
closed = 1;
nodes = (
"344 364 LINE",
"404 368 LINE",
"397 388 LINE",
"361 385 LINE"
);
}
);
width = 650;
},
{
associatedMasterId = "9FEBDF96-C5A3-469C-9009-8CF8388B2B9F";
components = (
{
alignment = -1;
name = _Ileft;
transform = "{1, 0, 0, 1, 25, 0}";
},
{
alignment = -1;
name = _Lbottom;
transform = "{1, 0, 0, 1, 25, 427}";
},
{
alignment = -1;
name = N;
transform = "{1, 0, 0, 1, 200, 0}";
}
);
layerId = "606C2C82-382E-4A13-A9A6-17039DBC889F";
name = "Dec 16 21, 19:40";
width = 650;
}
);
unicode = 004D;
},
{
glyphname = N;
lastChange = "2021-12-17 23:36:41 +0000";
layers = (
{
background = {
paths = (
{
closed = 1;
nodes = (
"425 0 LINE",
"425 499 LINE",
"225 549 LINE",
"225 0 LINE"
);
},
{
closed = 1;
nodes = (
"25 0 LINE",
"125 0 LINE",
"125 574 LINE",
"25 600 LINE"
);
},
{
closed = 1;
nodes = (
"425 427 LINE",
"425 500 LINE",
"25 600 LINE",
"25 427 LINE"
);
}
);
};
components = (
{
name = _eye;
transform = "{1, 0, 0, 1, 236, 69}";
},
{
name = _eye;
transform = "{1, 0, 0, 1, 99, 69}";
}
);
layerId = "9FEBDF96-C5A3-469C-9009-8CF8388B2B9F";
paths = (
{
closed = 1;
nodes = (
"25 0 LINE",
"44 0 LINE",
"67 580 LINE",
"25 600 LINE"
);
},
{
closed = 1;
nodes = (
"25 586 LINE",
"425 483 LINE",
"425 500 LINE",
"25 600 LINE"
);
},
{
closed = 1;
nodes = (
"225 0 LINE",
"274 0 LINE",
"272 532 LINE",
"225 549 LINE"
);
},
{
closed = 1;
nodes = (
"25 523 LINE",
"425 438 LINE",
"425 455 LINE",
"25 541 LINE"
);
},
{
closed = 1;
nodes = (
"37 0 LINE",
"76 0 LINE",
"110 573 LINE",
"64 588 LINE"
);
},
{
closed = 1;
nodes = (
"25 533 LINE",
"425 452 LINE",
"425 462 LINE",
"25 556 LINE"
);
},
{
closed = 1;
nodes = (
"313 0 LINE",
"372 0 LINE",
"357 511 LINE",
"302 527 LINE"
);
},
{
closed = 1;
nodes = (
"25 567 LINE",
"425 471 LINE",
"425 492 LINE",
"25 592 LINE"
);
},
{
closed = 1;
nodes = (
"398 0 LINE",
"425 0 LINE",
"425 500 LINE",
"382 507 LINE"
);
},
{
closed = 1;
nodes = (
"25 427 LINE",
"425 427 LINE",
"425 443 LINE",
"25 476 LINE"
);
},
{
closed = 1;
nodes = (
"260 0 LINE",
"322 0 LINE",
"319 518 LINE",
"255 541 LINE"
);
},
{
closed = 1;
nodes = (
"25 545 LINE",
"425 459 LINE",
"425 476 LINE",
"25 573 LINE"
);
},
{
closed = 1;
nodes = (
"362 0 LINE",
"409 0 LINE",
"403 500 LINE",
"344 519 LINE"
);
},
{
closed = 1;
nodes = (
"25 492 LINE",
"425 446 LINE",
"425 465 LINE",
"25 527 LINE"
);
},
{
closed = 1;
nodes = (
"64 0 LINE",
"125 0 LINE",
"125 574 LINE",
"76 580 LINE"
);
},
{
closed = 1;
nodes = (
"25 470 LINE",
"425 433 LINE",
"425 448 LINE",
"25 501 LINE"
);
}
);
width = 450;
},
{
components = (
{
name = _eye;
transform = "{1, 0, 0, 1, 312, -153}";
},
{
name = _eye;
transform = "{1, 0, 0, 1, 175, -153}";
}
);
layerId = "F1DD319B-D5A5-4BA6-A343-EFA3D63A9498";
paths = (
{
closed = 1;
nodes = (
"45 3 LINE",
"64 20 LINE",
"40 598 LINE",
"25 612 LINE"
);
},
{
closed = 1;
nodes = (
"40 598 LINE",
"107 587 LINE",
"121 612 LINE",
"25 612 LINE"
);
},
{
closed = 1;
nodes = (
"224 203 LINE",
"245 185 LINE",
"121 612 LINE",
"107 587 LINE"
);
},
{
closed = 1;
nodes = (
"97 181 LINE",
"245 185 LINE",
"224 203 LINE",
"115 213 LINE"
);
},
{
closed = 1;
nodes = (
"97 181 LINE",
"115 213 LINE",
"96 471 LINE",
"69 498 LINE"
);
},
{
closed = 1;
nodes = (
"96 471 LINE",
"295 455 LINE",
"275 471 LINE",
"69 498 LINE"
);
},
{
closed = 1;
nodes = (
"275 471 LINE",
"295 455 LINE",
"253 586 LINE",
"234 599 LINE"
);
},
{
closed = 1;
nodes = (
"253 586 LINE",
"403 588 LINE",
"425 606 LINE",
"234 599 LINE"
);
},
{
closed = 1;
nodes = (
"408 18 LINE",
"425 0 LINE",
"425 606 LINE",
"403 588 LINE"
);
},
{
closed = 1;
nodes = (
"314 0 LINE",
"425 0 LINE",
"408 18 LINE",
"332 23 LINE"
);
},
{
closed = 1;
nodes = (
"314 0 LINE",
"332 23 LINE",
"217 528 LINE",
"192 547 LINE"
);
},
{
closed = 1;
nodes = (
"217 528 LINE",
"300 517 LINE",
"319 542 LINE",
"192 547 LINE"
);
},
{
closed = 1;
nodes = (
"372 105 LINE",
"397 80 LINE",
"319 542 LINE",
"300 517 LINE"
);
},
{
closed = 1;
nodes = (
"167 111 LINE",
"397 80 LINE",
"372 105 LINE",
"149 128 LINE"
);
},
{
closed = 1;
nodes = (
"163 23 LINE",
"194 0 LINE",
"167 111 LINE",
"149 128 LINE"
);
},
{
closed = 1;
nodes = (
"45 3 LINE",
"194 0 LINE",
"163 23 LINE",
"64 20 LINE"
);
}
);
width = 450;
},
{
associatedMasterId = "9FEBDF96-C5A3-469C-9009-8CF8388B2B9F";
components = (
{
alignment = -1;
name = _Hright;
transform = "{1, 0, 0, 1, 225, 0}";
},
{
alignment = -1;
name = _Ileft;
transform = "{1, 0, 0, 1, 25, 0}";
},
{
alignment = -1;
name = _Lbottom;
transform = "{1, 0, 0, 1, 25, 427}";
}
);
layerId = "499C6BE2-E23C-4C48-8319-218E48D28954";
name = "Dec 16 21, 19:49";
width = 450;
}
);
unicode = 004E;
},
{
glyphname = O;
lastChange = "2021-12-17 23:54:06 +0000";
layers = (
{
background = {
paths = (
{
closed = 1;
nodes = (
"425 71 LINE",
"25 173 LINE",
"25 35 LINE",
"225 -15 LINE",
"425 37 LINE"
);
},
{
closed = 1;
nodes = (
"25 35 LINE",
"125 35 LINE",
"125 574 LINE",
"25 600 LINE"
);
},
{
closed = 1;
nodes = (
"425 37 LINE",
"425 499 LINE",
"225 549 LINE",
"225 -15 LINE"
);
},
{
closed = 1;
nodes = (
"425 427 LINE",
"425 500 LINE",
"25 600 LINE",
"25 427 LINE"
);
}
);
};
components = (
{
name = _eye;
transform = "{1, 0, 0, 1, 196, 72}";
},
{
name = _eye;
transform = "{1, 0, 0, 1, 110, 72}";
}
);
layerId = "9FEBDF96-C5A3-469C-9009-8CF8388B2B9F";
paths = (
{
closed = 1;
nodes = (
"425 436 LINE",
"25 476 LINE",
"25 427 LINE",
"425 427 LINE"
);
},
{
closed = 1;
nodes = (
"83 582 LINE",
"66 29 LINE",
"112 21 LINE",
"112 577 LINE"
);
},
{
closed = 1;
nodes = (
"344 17 LINE",
"372 509 LINE",
"332 515 LINE",
"312 10 LINE"
);
},
{
closed = 1;
nodes = (
"377 507 LINE",
"355 21 LINE",
"403 37 LINE",
"403 500 LINE"
);
},
{
closed = 1;
nodes = (
"425 500 LINE",
"25 600 LINE",
"25 582 LINE",
"425 487 LINE"
);
},
{
closed = 1;
nodes = (
"104 579 LINE",
"95 21 LINE",
"125 12 LINE",
"125 574 LINE"
);
},
{
closed = 1;
nodes = (
"322 14 LINE",
"355 515 LINE",
"316 523 LINE",
"285 5 LINE"
);
},
{
closed = 1;
nodes = (
"250 540 LINE",
"246 -6 LINE",
"274 1 LINE",
"294 530 LINE"
);
},
{
closed = 1;
nodes = (
"25 546 LINE",
"425 464 LINE",
"425 492 LINE",
"25 588 LINE"
);
},
{
closed = 1;
nodes = (
"381 29 LINE",
"389 507 LINE",
"365 508 LINE",
"336 17 LINE"
);
},
{
closed = 1;
nodes = (
"425 476 LINE",
"25 554 LINE",
"25 511 LINE",
"425 454 LINE"
);
},
{
closed = 1;
nodes = (
"25 492 LINE",
"425 440 LINE",
"425 466 LINE",
"25 515 LINE"
);
},
{
closed = 1;
nodes = (
"425 446 LINE",
"25 507 LINE",
"25 468 LINE",
"425 432 LINE"
);
},
{
closed = 1;
nodes = (
"25 140 LINE",
"425 63 LINE",
"425 71 LINE",
"25 173 LINE"
);
},
{
closed = 1;
nodes = (
"25 89 LINE",
"425 43 LINE",
"425 57 LINE",
"25 122 LINE"
);
},
{
closed = 1;
nodes = (
"425 37 LINE",
"425 500 LINE",
"397 506 LINE",
"397 32 LINE"
);
},
{
closed = 1;
nodes = (
"25 66 LINE",
"425 61 LINE",
"425 71 LINE",
"25 113 LINE"
);
},
{
closed = 1;
nodes = (
"225 549 LINE",
"225 -15 LINE",
"256 -2 LINE",
"268 533 LINE"
);
},
{
closed = 1;
nodes = (
"277 533 LINE",
"265 -1 LINE",
"302 8 LINE",
"324 520 LINE"
);
},
{
closed = 1;
nodes = (
"25 42 LINE",
"425 47 LINE",
"425 67 LINE",
"25 72 LINE"
);
},
{
closed = 1;
nodes = (
"59 583 LINE",
"54 30 LINE",
"75 24 LINE",
"93 579 LINE"
);
},
{
closed = 1;
nodes = (
"25 35 LINE",
"225 -15 LINE",
"425 37 LINE",
"425 53 LINE",
"25 47 LINE"
);
},
{
closed = 1;
nodes = (
"425 67 LINE",
"25 147 LINE",
"25 101 LINE",
"425 41 LINE"
);
},
{
closed = 1;
nodes = (
"61 30 LINE",
"75 579 LINE",
"25 600 LINE",
"25 35 LINE"
);
}
);
width = 450;
},
{
components = (
{
name = _eye;
transform = "{1, 0, 0, 1, 270, -33}";
},
{
name = _eye;
transform = "{1, 0, 0, 1, 184, -33}";
}
);
layerId = "F1DD319B-D5A5-4BA6-A343-EFA3D63A9498";
paths = (
{
closed = 1;
nodes = (
"125 472 LINE",
"16 489 LINE",
"50 466 LINE",
"138 450 LINE"
);
},
{
closed = 1;
nodes = (
"95 142 LINE",
"65 -6 LINE",
"98 41 LINE",
"117 163 LINE"
);
},
{
closed = 1;
nodes = (
"277 -36 LINE",
"288 91 LINE",
"274 113 LINE",
"269 9 LINE"
);
},
{
closed = 1;
nodes = (
"369 236 LINE",
"421 164 LINE",
"456 146 LINE",
"394 230 LINE"
);
},
{
closed = 1;
nodes = (
"230 526 LINE",
"125 634 LINE",
"144 591 LINE",
"224 493 LINE"
);
},
{
closed = 1;
nodes = (
"125 634 LINE",
"125 472 LINE",
"138 450 LINE",
"144 591 LINE"
);
},
{
closed = 1;
nodes = (
"323 514 LINE",
"305 674 LINE",
"297 617 LINE",
"301 466 LINE"
);
},
{
closed = 1;
nodes = (
"305 674 LINE",
"230 526 LINE",
"224 493 LINE",
"297 617 LINE"
);
},
{
closed = 1;
nodes = (
"301 466 LINE",
"411 557 LINE",
"431 600 LINE",
"323 514 LINE"
);
},
{
closed = 1;
nodes = (
"401 432 LINE",
"431 600 LINE",
"411 557 LINE",
"376 425 LINE"
);
},
{
closed = 1;
nodes = (
"488 407 LINE",
"401 432 LINE",
"376 425 LINE",
"462 403 LINE"
);
},
{
closed = 1;
nodes = (
"406 343 LINE",
"488 407 LINE",
"462 403 LINE",
"373 340 LINE"
);
},
{
closed = 1;
nodes = (
"500 283 LINE",
"406 343 LINE",
"373 340 LINE",
"462 288 LINE"
);
},
{
closed = 1;
nodes = (
"394 230 LINE",
"500 283 LINE",
"462 288 LINE",
"369 236 LINE"
);
},
{
closed = 1;
nodes = (
"339 152 LINE",
"456 146 LINE",
"421 164 LINE",
"310 172 LINE"
);
},
{
closed = 1;
nodes = (
"397 14 LINE",
"339 152 LINE",
"310 172 LINE",
"360 61 LINE"
);
},
{
closed = 1;
nodes = (
"288 91 LINE",
"397 14 LINE",
"360 61 LINE",
"274 113 LINE"
);
},
{
closed = 1;
nodes = (
"193 92 LINE",
"98 41 LINE",
"65 -6 LINE",
"191 73 LINE"
);
},
{
closed = 1;
nodes = (
"191 73 LINE",
"277 -36 LINE",
"269 9 LINE",
"193 92 LINE"
);
},
{
closed = 1;
nodes = (
"16 129 LINE",
"95 142 LINE",
"117 163 LINE",
"43 149 LINE"
);
},
{
closed = 1;
nodes = (
"77 244 LINE",
"16 129 LINE",
"43 149 LINE",
"99 258 LINE"
);
},
{
closed = 1;
nodes = (
"0 313 LINE",
"39 278 LINE",
"77 244 LINE",
"99 258 LINE",
"24 310 LINE"
);
},
{
closed = 1;
nodes = (
"92 361 LINE",
"0 313 LINE",
"24 310 LINE",
"125 353 LINE"
);
},
{
closed = 1;
nodes = (
"125 353 LINE",
"50 466 LINE",
"16 489 LINE",
"92 361 LINE"
);
}
);
width = 500;
},
{
associatedMasterId = "9FEBDF96-C5A3-469C-9009-8CF8388B2B9F";
layerId = "DF0019D7-61BF-4D54-979F-2ECA678CBFC4";
name = "Nov 27 21, 10:52";
paths = (
{
closed = 1;
nodes = (
"425 71 LINE",
"25 173 LINE",
"25 35 LINE",
"225 -15 LINE",
"425 37 LINE"
);
},
{
closed = 1;
nodes = (
"25 35 LINE",
"125 35 LINE",
"125 574 LINE",
"25 600 LINE"
);
},
{
closed = 1;
nodes = (
"425 37 LINE",
"425 499 LINE",
"225 549 LINE",
"225 -15 LINE"
);
},
{
closed = 1;
nodes = (
"425 427 LINE",
"425 500 LINE",
"25 600 LINE",
"25 427 LINE"
);
}
);
width = 436;
},
{
associatedMasterId = "F1DD319B-D5A5-4BA6-A343-EFA3D63A9498";
layerId = "073F96BC-B824-45EE-B877-A43D449BABB3";
name = "Dec 9 21, 11:29";
paths = (
{
closed = 1;
nodes = (
"210 325 LINE",
"226 369 LINE",
"188 366 LINE",
"163 319 LINE"
);
},
{
closed = 1;
nodes = (
"271 312 LINE",
"280 354 LINE",
"245 358 LINE",
"226 305 LINE"
);
},
{
closed = 1;
nodes = (
"294 563 LINE",
"291 435 LINE",
"385 541 LINE",
"400 584 LINE",
"312 478 LINE",
"313 610 LINE"
);
},
{
closed = 1;
nodes = (
"81 56 LINE",
"155 117 LINE",
"176 140 LINE",
"83 82 LINE"
);
},
{
closed = 1;
nodes = (
"324 56 LINE",
"371 47 LINE",
"341 152 LINE",
"316 169 LINE",
"348 101 LINE",
"330 77 LINE"
);
},
{
closed = 1;
nodes = (
"418 279 LINE",
"415 258 LINE",
"286 233 LINE",
"338 227 LINE",
"444 252 LINE",
"438 279 LINE"
);
},
{
closed = 1;
nodes = (
"72 434 LINE",
"93 370 LINE",
"110 357 LINE",
"90 416 LINE"
);
},
{
closed = 1;
nodes = (
"151 584 LINE",
"178 566 LINE",
"223 426 LINE",
"277 570 LINE",
"294 563 LINE",
"313 610 LINE",
"295 621 LINE",
"222 481 LINE",
"178 619 LINE",
"138 602 LINE"
);
},
{
closed = 1;
nodes = (
"421 544 LINE",
"400 584 LINE",
"385 541 LINE",
"408 537 LINE"
);
},
{
closed = 1;
nodes = (
"439 448 LINE",
"375 409 LINE",
"421 544 LINE",
"408 537 LINE",
"359 398 LINE",
"434 435 LINE"
);
},
{
closed = 1;
nodes = (
"394 363 LINE",
"469 421 LINE",
"439 448 LINE",
"434 435 LINE",
"451 418 LINE",
"358 363 LINE"
);
},
{
closed = 1;
nodes = (
"452 308 LINE",
"460 341 LINE",
"394 363 LINE",
"358 363 LINE",
"443 341 LINE",
"421 322 LINE"
);
},
{
closed = 1;
nodes = (
"438 279 LINE",
"344 307 LINE",
"452 308 LINE",
"421 322 LINE",
"305 308 LINE",
"418 279 LINE"
);
},
{
closed = 1;
nodes = (
"406 189 LINE",
"338 227 LINE",
"286 233 LINE",
"375 194 LINE"
);
},
{
closed = 1;
nodes = (
"341 152 LINE",
"395 157 LINE",
"406 189 LINE",
"375 194 LINE",
"378 169 LINE",
"316 169 LINE"
);
},
{
closed = 1;
nodes = (
"237 117 LINE",
"256 1 LINE",
"295 33 LINE",
"282 41 LINE",
"263 44 LINE",
"240 139 LINE"
);
},
{
closed = 1;
nodes = (
"295 33 LINE",
"289 133 LINE",
"324 56 LINE",
"330 77 LINE",
"279 165 LINE",
"282 41 LINE"
);
},
{
closed = 1;
nodes = (
"163 36 LINE",
"204 42 LINE",
"237 117 LINE",
"240 139 LINE",
"197 66 LINE",
"176 71 LINE"
);
},
{
closed = 1;
nodes = (
"176 71 LINE",
"176 140 LINE",
"155 117 LINE",
"163 36 LINE"
);
},
{
closed = 1;
nodes = (
"103 152 LINE",
"58 87 LINE",
"81 56 LINE",
"83 82 LINE",
"68 91 LINE",
"124 169 LINE"
);
},
{
closed = 1;
nodes = (
"22 173 LINE",
"22 131 LINE",
"103 152 LINE",
"124 169 LINE",
"56 148 LINE",
"35 169 LINE"
);
},
{
closed = 1;
nodes = (
"33 229 LINE",
"110 224 LINE",
"22 173 LINE",
"35 169 LINE",
"134 224 LINE",
"45 241 LINE"
);
},
{
closed = 1;
nodes = (
"85 294 LINE",
"34 266 LINE",
"33 229 LINE",
"45 241 LINE",
"56 271 LINE",
"117 281 LINE"
);
},
{
closed = 1;
nodes = (
"43 374 LINE",
"39 338 LINE",
"85 294 LINE",
"117 281 LINE",
"50 338 LINE",
"56 363 LINE"
);
},
{
closed = 1;
nodes = (
"56 363 LINE",
"110 357 LINE",
"93 370 LINE",
"43 374 LINE"
);
},
{
closed = 1;
nodes = (
"147 428 LINE",
"99 475 LINE",
"72 434 LINE",
"90 416 LINE",
"102 448 LINE",
"160 400 LINE"
);
},
{
closed = 1;
nodes = (
"160 400 LINE",
"151 584 LINE",
"138 602 LINE",
"147 428 LINE"
);
}
);
width = 450;
}
);
unicode = 004F;
},
{
glyphname = P;
lastChange = "2021-12-16 19:16:31 +0000";
layers = (
{
background = {
paths = (
{
closed = 1;
nodes = (
"125 0 LINE",
"125 174 LINE",
"425 174 LINE",
"425 500 LINE",
"25 600 LINE",
"25 0 LINE"
);
},
{
closed = 1;
nodes = (
"125 427 LINE",
"225 427 LINE",
"225 272 LINE",
"125 297 LINE"
);
}
);
};
components = (
{
name = _eye;
transform = "{1, 0, 0, 1, 330, -18}";
},
{
name = _eye;
transform = "{1, 0, 0, 1, 84, -18}";
}
);
layerId = "9FEBDF96-C5A3-469C-9009-8CF8388B2B9F";
paths = (
{
closed = 1;
nodes = (
"25 0 LINE",
"37 0 LINE",
"44 594 LINE",
"25 597 LINE"
);
},
{
closed = 1;
nodes = (
"25 548 LINE",
"425 462 LINE",
"425 500 LINE",
"25 600 LINE"
);
},
{
closed = 1;
nodes = (
"382 174 LINE",
"425 174 LINE",
"425 498 LINE",
"392 507 LINE"
);
},
{
closed = 1;
nodes = (
"346 174 LINE",
"399 174 LINE",
"405 505 LINE",
"312 524 LINE"
);
},
{
closed = 1;
nodes = (
"25 270 LINE",
"425 204 LINE",
"425 222 LINE",
"25 322 LINE"
);
},
{
closed = 1;
nodes = (
"225 174 LINE",
"263 174 LINE",
"284 531 LINE",
"225 547 LINE"
);
},
{
closed = 1;
nodes = (
"25 427 LINE",
"425 427 LINE",
"425 448 LINE",
"25 505 LINE"
);
},
{
closed = 1;
nodes = (
"263 174 LINE",
"357 174 LINE",
"340 518 LINE",
"264 538 LINE"
);
},
{
closed = 1;
nodes = (
"25 222 LINE",
"425 184 LINE",
"425 213 LINE",
"25 296 LINE"
);
},
{
closed = 1;
nodes = (
"35 0 LINE",
"88 0 LINE",
"88 584 LINE",
"44 594 LINE"
);
},
{
closed = 1;
nodes = (
"25 494 LINE",
"425 442 LINE",
"425 480 LINE",
"25 561 LINE"
);
},
{
closed = 1;
nodes = (
"77 0 LINE",
"125 0 LINE",
"125 573 LINE",
"77 584 LINE"
);
},
{
closed = 1;
nodes = (
"25 174 LINE",
"425 174 LINE",
"425 194 LINE",
"25 236 LINE"
);
}
);
width = 450;
},
{
components = (
{
name = _eye;
transform = "{1, 0, 0, 1, 270, -18}";
},
{
name = _eye;
transform = "{1, 0, 0, 1, 136, -18}";
}
);
layerId = "F1DD319B-D5A5-4BA6-A343-EFA3D63A9498";
paths = (
{
closed = 1;
nodes = (
"25 0 LINE",
"40 15 LINE",
"48 572 LINE",
"25 591 LINE"
);
},
{
closed = 1;
nodes = (
"48 572 LINE",
"393 582 LINE",
"410 601 LINE",
"25 591 LINE"
);
},
{
closed = 1;
nodes = (
"409 424 LINE",
"425 425 LINE",
"410 601 LINE",
"393 582 LINE"
);
},
{
closed = 1;
nodes = (
"379 304 LINE",
"393 279 LINE",
"425 425 LINE",
"409 424 LINE"
);
},
{
closed = 1;
nodes = (
"234 287 LINE",
"393 279 LINE",
"379 304 LINE",
"249 303 LINE"
);
},
{
closed = 1;
nodes = (
"234 287 LINE",
"249 303 LINE",
"258 442 LINE",
"237 462 LINE"
);
},
{
closed = 1;
nodes = (
"258 442 LINE",
"328 448 LINE",
"344 462 LINE",
"237 462 LINE"
);
},
{
closed = 1;
nodes = (
"290 252 LINE",
"314 228 LINE",
"344 462 LINE",
"328 448 LINE"
);
},
{
closed = 1;
nodes = (
"93 219 LINE",
"314 228 LINE",
"290 252 LINE",
"110 237 LINE"
);
},
{
closed = 1;
nodes = (
"93 219 LINE",
"110 237 LINE",
"133 487 LINE",
"117 505 LINE"
);
},
{
closed = 1;
nodes = (
"133 487 LINE",
"187 494 LINE",
"205 514 LINE",
"117 505 LINE"
);
},
{
closed = 1;
nodes = (
"125 20 LINE",
"147 0 LINE",
"205 514 LINE",
"187 494 LINE"
);
},
{
closed = 1;
nodes = (
"25 0 LINE",
"147 0 LINE",
"125 20 LINE",
"40 15 LINE"
);
}
);
width = 450;
},
{
associatedMasterId = "9FEBDF96-C5A3-469C-9009-8CF8388B2B9F";
components = (
{
alignment = -1;
name = _Lbottom;
transform = "{1, 0, 0, 1, 25, 427}";
},
{
alignment = -1;
name = _Ileft;
transform = "{1, 0, 0, 1, 25, 0}";
}
);
layerId = "E56E6AA4-836D-4FC6-8A86-8D0E4A38E159";
name = "Dec 16 21, 20:12";
paths = (
{
closed = 1;
nodes = (
"425 174 LINE",
"425 499 LINE",
"225 549 LINE",
"225 174 LINE"
);
},
{
closed = 1;
nodes = (
"25 174 LINE",
"325 174 LINE",
"325 247 LINE",
"112 300 LINE",
"25 300 LINE"
);
}
);
width = 450;
}
);
unicode = 0050;
},
{
glyphname = Q;
lastChange = "2021-12-23 09:00:28 +0000";
layers = (
{
background = {
paths = (
{
closed = 1;
nodes = (
"325 -50 LINE",
"325 11 LINE",
"425 37 LINE",
"425 500 LINE",
"25 600 LINE",
"25 35 LINE",
"225 -15 LINE",
"225 -50 LINE"
);
},
{
closed = 1;
nodes = (
"125 148 LINE",
"125 427 LINE",
"225 427 LINE",
"225 122 LINE"
);
}
);
};
components = (
{
name = _eye;
transform = "{1, 0, 0, 1, 289, 81}";
},
{
name = _eye;
transform = "{1, 0, 0, 1, 144, 86}";
}
);
layerId = "9FEBDF96-C5A3-469C-9009-8CF8388B2B9F";
paths = (
{
closed = 1;
nodes = (
"25 35 LINE",
"82 25 LINE",
"78 580 LINE",
"25 600 LINE"
);
},
{
closed = 1;
nodes = (
"25 88 LINE",
"425 47 LINE",
"425 71 LINE",
"25 173 LINE"
);
},
{
closed = 1;
nodes = (
"25 47 LINE",
"425 37 LINE",
"425 47 LINE",
"25 82 LINE"
);
},
{
closed = 1;
nodes = (
"375 27 LINE",
"425 37 LINE",
"425 500 LINE",
"382 510 LINE"
);
},
{
closed = 1;
nodes = (
"25 475 LINE",
"425 444 LINE",
"425 500 LINE",
"25 600 LINE"
);
},
{
closed = 1;
nodes = (
"287 -50 LINE",
"325 -50 LINE",
"328 523 LINE",
"290 532 LINE"
);
},
{
closed = 1;
nodes = (
"25 128 LINE",
"425 43 LINE",
"425 66 LINE",
"25 145 LINE"
);
},
{
closed = 1;
nodes = (
"269 -50 LINE",
"292 -50 LINE",
"305 529 LINE",
"287 532 LINE"
);
},
{
closed = 1;
nodes = (
"243 -50 LINE",
"272 -50 LINE",
"288 532 LINE",
"255 541 LINE"
);
},
{
closed = 1;
nodes = (
"25 55 LINE",
"425 47 LINE",
"425 62 LINE",
"25 71 LINE"
);
},
{
closed = 1;
nodes = (
"225 -50 LINE",
"247 -50 LINE",
"261 539 LINE",
"225 549 LINE"
);
},
{
closed = 1;
nodes = (
"25 35 LINE",
"225 -15 LINE",
"425 37 LINE",
"425 56 LINE",
"25 100 LINE"
);
},
{
closed = 1;
nodes = (
"60 30 LINE",
"125 13 LINE",
"125 571 LINE",
"72 584 LINE"
);
},
{
closed = 1;
nodes = (
"25 427 LINE",
"425 427 LINE",
"425 452 LINE",
"25 487 LINE"
);
},
{
closed = 1;
nodes = (
"316 11 LINE",
"417 37 LINE",
"391 507 LINE",
"325 524 LINE"
);
}
);
width = 450;
},
{
components = (
{
name = _eye;
transform = "{1, 0, 0, 1, 263, -18}";
},
{
name = _eye;
transform = "{1, 0, 0, 1, 172, -18}";
}
);
layerId = "F1DD319B-D5A5-4BA6-A343-EFA3D63A9498";
paths = (
{
closed = 1;
nodes = (
"34 51 LINE",
"50 66 LINE",
"40 579 LINE",
"25 595 LINE"
);
},
{
closed = 1;
nodes = (
"34 51 LINE",
"310 67 LINE",
"319 82 LINE",
"50 66 LINE"
);
},
{
closed = 1;
nodes = (
"309 5 LINE",
"412 13 LINE",
"401 26 LINE",
"286 21 LINE"
);
},
{
closed = 1;
nodes = (
"401 26 LINE",
"412 13 LINE",
"421 601 LINE",
"401 579 LINE"
);
},
{
closed = 1;
nodes = (
"40 579 LINE",
"401 579 LINE",
"421 601 LINE",
"25 595 LINE"
);
},
{
closed = 1;
nodes = (
"402 -78 LINE",
"425 -94 LINE",
"361 84 LINE",
"342 80 LINE"
);
},
{
closed = 1;
nodes = (
"369 -94 LINE",
"425 -94 LINE",
"402 -78 LINE",
"378 -79 LINE"
);
},
{
closed = 1;
nodes = (
"369 -94 LINE",
"378 -79 LINE",
"319 82 LINE",
"310 67 LINE"
);
},
{
closed = 1;
nodes = (
"327 -76 LINE",
"356 -92 LINE",
"309 5 LINE",
"286 21 LINE"
);
},
{
closed = 1;
nodes = (
"289 -91 LINE",
"356 -92 LINE",
"327 -76 LINE",
"299 -76 LINE"
);
},
{
closed = 1;
nodes = (
"289 -91 LINE",
"299 -76 LINE",
"257 20 LINE",
"240 1 LINE"
);
},
{
closed = 1;
nodes = (
"94 -2 LINE",
"167 0 LINE",
"240 1 LINE",
"257 20 LINE",
"111 17 LINE"
);
},
{
closed = 1;
nodes = (
"94 -2 LINE",
"111 17 LINE",
"106 498 LINE",
"86 518 LINE"
);
},
{
closed = 1;
nodes = (
"106 498 LINE",
"356 511 LINE",
"372 526 LINE",
"86 518 LINE"
);
},
{
closed = 1;
nodes = (
"342 80 LINE",
"361 84 LINE",
"372 526 LINE",
"356 511 LINE"
);
}
);
width = 450;
},
{
associatedMasterId = "9FEBDF96-C5A3-469C-9009-8CF8388B2B9F";
components = (
{
name = _Lbottom;
transform = "{1, 0, 0, 1, 25, 427}";
}
);
layerId = "8AE7EE92-853B-41B5-9A2C-751D3C47F14C";
name = "Dec 16 21, 20:16";
paths = (
{
closed = 1;
nodes = (
"425 71 LINE",
"25 173 LINE",
"25 35 LINE",
"225 -15 LINE",
"425 37 LINE"
);
},
{
closed = 1;
nodes = (
"25 35 LINE",
"125 35 LINE",
"125 574 LINE",
"25 600 LINE"
);
},
{
closed = 1;
nodes = (
"425 71 LINE",
"425 499 LINE",
"225 549 LINE",
"225 122 LINE"
);
},
{
closed = 1;
nodes = (
"225 -50 LINE",
"325 -50 LINE",
"325 87 LINE",
"225 112 LINE"
);
}
);
width = 450;
}
);
unicode = 0051;
},
{
glyphname = R;
lastChange = "2021-12-23 17:22:16 +0000";
layers = (
{
background = {
paths = (
{
closed = 1;
nodes = (
"25 0 LINE",
"125 0 LINE",
"125 174 LINE",
"225 174 LINE",
"225 0 LINE",
"425 0 LINE",
"425 136 LINE",
"375 149 LINE",
"375 174 LINE",
"425 174 LINE",
"425 500 LINE",
"25 600 LINE"
);
},
{
closed = 1;
nodes = (
"225 427 LINE",
"225 272 LINE",
"125 297 LINE",
"125 427 LINE"
);
}
);
};
components = (
{
name = _eye;
transform = "{1, 0, 0, 1, 262, 82}";
},
{
name = _eye;
transform = "{1, 0, 0, 1, 165, 82}";
}
);
layerId = "9FEBDF96-C5A3-469C-9009-8CF8388B2B9F";
paths = (
{
closed = 1;
nodes = (
"25 0 LINE",
"54 0 LINE",
"60 590 LINE",
"25 600 LINE"
);
},
{
closed = 1;
nodes = (
"25 510 LINE",
"425 462 LINE",
"425 500 LINE",
"25 600 LINE"
);
},
{
closed = 1;
nodes = (
"369 0 LINE",
"423 0 LINE",
"425 136 LINE",
"375 149 LINE"
);
},
{
closed = 1;
nodes = (
"25 427 LINE",
"425 427 LINE",
"425 451 LINE",
"25 470 LINE"
);
},
{
closed = 1;
nodes = (
"288 0 LINE",
"326 0 LINE",
"311 528 LINE",
"288 531 LINE"
);
},
{
closed = 1;
nodes = (
"25 460 LINE",
"425 441 LINE",
"425 470 LINE",
"25 528 LINE"
);
},
{
closed = 1;
nodes = (
"319 0 LINE",
"375 0 LINE",
"375 510 LINE",
"308 528 LINE"
);
},
{
closed = 1;
nodes = (
"25 459 LINE",
"425 451 LINE",
"425 456 LINE",
"25 556 LINE"
);
},
{
closed = 1;
nodes = (
"375 174 LINE",
"425 174 LINE",
"425 500 LINE",
"375 510 LINE"
);
},
{
closed = 1;
nodes = (
"25 203 LINE",
"425 203 LINE",
"425 242 LINE",
"25 251 LINE"
);
},
{
closed = 1;
nodes = (
"272 0 LINE",
"299 0 LINE",
"299 531 LINE",
"269 536 LINE"
);
},
{
closed = 1;
nodes = (
"25 174 LINE",
"425 174 LINE",
"425 195 LINE",
"25 214 LINE"
);
},
{
closed = 1;
nodes = (
"243 0 LINE",
"281 0 LINE",
"275 536 LINE",
"243 543 LINE"
);
},
{
closed = 1;
nodes = (
"25 235 LINE",
"425 235 LINE",
"425 255 LINE",
"25 281 LINE"
);
},
{
closed = 1;
nodes = (
"225 0 LINE",
"248 0 LINE",
"248 543 LINE",
"228 547 LINE"
);
},
{
closed = 1;
nodes = (
"25 206 LINE",
"425 187 LINE",
"425 210 LINE",
"25 249 LINE"
);
},
{
closed = 1;
nodes = (
"103 0 LINE",
"125 0 LINE",
"125 569 LINE",
"109 576 LINE"
);
},
{
closed = 1;
nodes = (
"25 246 LINE",
"425 217 LINE",
"425 221 LINE",
"25 322 LINE"
);
},
{
closed = 1;
nodes = (
"68 0 LINE",
"116 0 LINE",
"116 574 LINE",
"79 581 LINE"
);
},
{
closed = 1;
nodes = (
"25 241 LINE",
"425 203 LINE",
"425 215 LINE",
"25 256 LINE"
);
},
{
closed = 1;
nodes = (
"48 0 LINE",
"78 0 LINE",
"84 583 LINE",
"48 591 LINE"
);
},
{
closed = 1;
nodes = (
"25 177 LINE",
"425 177 LINE",
"425 211 LINE",
"25 224 LINE"
);
}
);
width = 450;
},
{
components = (
{
name = _eye;
transform = "{1, 0, 0, 1, 272, -8}";
},
{
name = _eye;
transform = "{1, 0, 0, 1, 175, -8}";
}
);
layerId = "F1DD319B-D5A5-4BA6-A343-EFA3D63A9498";
paths = (
{
closed = 1;
nodes = (
"32 0 LINE",
"45 12 LINE",
"49 576 LINE",
"25 592 LINE"
);
},
{
closed = 1;
nodes = (
"49 576 LINE",
"383 580 LINE",
"400 601 LINE",
"25 592 LINE"
);
},
{
closed = 1;
nodes = (
"363 308 LINE",
"388 282 LINE",
"400 601 LINE",
"383 580 LINE"
);
},
{
closed = 1;
nodes = (
"120 286 LINE",
"388 282 LINE",
"363 308 LINE",
"138 302 LINE"
);
},
{
closed = 1;
nodes = (
"120 286 LINE",
"138 302 LINE",
"152 470 LINE",
"135 487 LINE"
);
},
{
closed = 1;
nodes = (
"152 470 LINE",
"243 475 LINE",
"263 491 LINE",
"135 487 LINE"
);
},
{
closed = 1;
nodes = (
"213 241 LINE",
"234 260 LINE",
"263 491 LINE",
"243 475 LINE"
);
},
{
closed = 1;
nodes = (
"213 241 LINE",
"331 242 LINE",
"342 255 LINE",
"234 260 LINE"
);
},
{
closed = 1;
nodes = (
"399 19 LINE",
"425 1 LINE",
"342 255 LINE",
"331 242 LINE"
);
},
{
closed = 1;
nodes = (
"314 1 LINE",
"425 1 LINE",
"399 19 LINE",
"329 24 LINE"
);
},
{
closed = 1;
nodes = (
"314 1 LINE",
"329 24 LINE",
"278 214 LINE",
"266 199 LINE"
);
},
{
closed = 1;
nodes = (
"246 193 LINE",
"266 199 LINE",
"278 214 LINE",
"228 210 LINE"
);
},
{
closed = 1;
nodes = (
"277 21 LINE",
"301 1 LINE",
"246 193 LINE",
"228 210 LINE"
);
},
{
closed = 1;
nodes = (
"228 1 LINE",
"301 1 LINE",
"277 21 LINE",
"237 15 LINE"
);
},
{
closed = 1;
nodes = (
"228 1 LINE",
"237 15 LINE",
"203 210 LINE",
"187 198 LINE"
);
},
{
closed = 1;
nodes = (
"165 195 LINE",
"187 198 LINE",
"203 210 LINE",
"154 211 LINE"
);
},
{
closed = 1;
nodes = (
"146 15 LINE",
"161 0 LINE",
"165 195 LINE",
"154 211 LINE"
);
},
{
closed = 1;
nodes = (
"111 0 LINE",
"161 0 LINE",
"146 15 LINE",
"123 13 LINE"
);
},
{
closed = 1;
nodes = (
"111 0 LINE",
"123 13 LINE",
"131 211 LINE",
"112 195 LINE"
);
},
{
closed = 1;
nodes = (
"93 195 LINE",
"112 195 LINE",
"131 211 LINE",
"76 210 LINE"
);
},
{
closed = 1;
nodes = (
"80 15 LINE",
"93 0 LINE",
"93 195 LINE",
"76 210 LINE"
);
},
{
closed = 1;
nodes = (
"32 0 LINE",
"93 0 LINE",
"80 15 LINE",
"45 12 LINE"
);
}
);
width = 450;
},
{
associatedMasterId = "9FEBDF96-C5A3-469C-9009-8CF8388B2B9F";
components = (
{
alignment = -1;
name = _Lbottom;
transform = "{1, 0, 0, 1, 25, 427}";
},
{
name = K;
}
);
layerId = "D74CA46F-571F-438B-B133-A56EF58A931A";
name = "Dec 16 21, 20:24";
width = 450;
}
);
unicode = 0052;
},
{
glyphname = S;
lastChange = "2021-12-16 19:38:25 +0000";
layers = (
{
background = {
paths = (
{
closed = 1;
nodes = (
"225 0 LINE",
"425 52 LINE",
"425 221 LINE",
"325 247 LINE",
"225 272 LINE",
"125 297 LINE",
"125 427 LINE",
"225 427 LINE",
"225 351 LINE",
"425 351 LINE",
"425 500 LINE",
"25 600 LINE",
"25 174 LINE",
"225 174 LINE",
"225 123 LINE",
"25 73 LINE",
"25 0 LINE"
);
}
);
};
components = (
{
name = _eye;
transform = "{1, 0, 0, 1, 243, 78}";
},
{
name = _eye;
transform = "{1, 0, 0, 1, 157, 78}";
}
);
layerId = "9FEBDF96-C5A3-469C-9009-8CF8388B2B9F";
paths = (
{
closed = 1;
nodes = (
"425 122 LINE",
"25 30 LINE",
"25 0 LINE",
"225 0 LINE",
"425 52 LINE"
);
},
{
closed = 1;
nodes = (
"425 221 LINE",
"382 229 LINE",
"341 34 LINE",
"425 52 LINE"
);
},
{
closed = 1;
nodes = (
"225 0 LINE",
"332 30 LINE",
"329 243 LINE",
"225 272 LINE"
);
},
{
closed = 1;
nodes = (
"25 26 LINE",
"425 108 LINE",
"425 174 LINE",
"25 73 LINE"
);
},
{
closed = 1;
nodes = (
"25 196 LINE",
"425 185 LINE",
"425 197 LINE",
"25 229 LINE"
);
},
{
closed = 1;
nodes = (
"305 26 LINE",
"374 41 LINE",
"399 221 LINE",
"325 244 LINE"
);
},
{
closed = 1;
nodes = (
"25 174 LINE",
"425 174 LINE",
"425 197 LINE",
"25 200 LINE"
);
},
{
closed = 1;
nodes = (
"72 174 LINE",
"94 174 LINE",
"94 579 LINE",
"79 583 LINE"
);
},
{
closed = 1;
nodes = (
"25 470 LINE",
"425 455 LINE",
"425 481 LINE",
"25 500 LINE"
);
},
{
closed = 1;
nodes = (
"87 174 LINE",
"125 174 LINE",
"125 572 LINE",
"93 579 LINE"
);
},
{
closed = 1;
nodes = (
"25 217 LINE",
"425 195 LINE",
"425 207 LINE",
"25 272 LINE"
);
},
{
closed = 1;
nodes = (
"47 174 LINE",
"62 174 LINE",
"69 586 LINE",
"45 593 LINE"
);
},
{
closed = 1;
nodes = (
"25 484 LINE",
"425 471 LINE",
"425 490 LINE",
"25 553 LINE"
);
},
{
closed = 1;
nodes = (
"56 174 LINE",
"79 174 LINE",
"87 583 LINE",
"66 587 LINE"
);
},
{
closed = 1;
nodes = (
"25 262 LINE",
"425 201 LINE",
"425 221 LINE",
"25 324 LINE"
);
},
{
closed = 1;
nodes = (
"25 174 LINE",
"51 174 LINE",
"55 591 LINE",
"25 600 LINE"
);
},
{
closed = 1;
nodes = (
"25 543 LINE",
"425 487 LINE",
"425 500 LINE",
"25 600 LINE"
);
},
{
closed = 1;
nodes = (
"291 351 LINE",
"425 351 LINE",
"425 500 LINE",
"311 526 LINE"
);
},
{
closed = 1;
nodes = (
"25 427 LINE",
"425 427 LINE",
"425 439 LINE",
"25 465 LINE"
);
},
{
closed = 1;
nodes = (
"25 459 LINE",
"425 437 LINE",
"425 450 LINE",
"25 519 LINE"
);
},
{
closed = 1;
nodes = (
"225 351 LINE",
"310 351 LINE",
"329 520 LINE",
"225 546 LINE"
);
}
);
width = 450;
},
{
components = (
{
name = _eye;
transform = "{1, 0, 0, 1, 188, 59}";
},
{
name = _eye;
transform = "{1, 0, 0, 1, 102, 59}";
}
);
layerId = "F1DD319B-D5A5-4BA6-A343-EFA3D63A9498";
paths = (
{
closed = 1;
nodes = (
"386 20 LINE",
"67 33 LINE",
"43 3 LINE",
"220 2 LINE",
"403 0 LINE"
);
},
{
closed = 1;
nodes = (
"425 418 LINE",
"412 399 LINE",
"386 20 LINE",
"403 0 LINE"
);
},
{
closed = 1;
nodes = (
"43 3 LINE",
"67 33 LINE",
"42 236 LINE",
"25 256 LINE"
);
},
{
closed = 1;
nodes = (
"42 236 LINE",
"355 142 LINE",
"333 175 LINE",
"25 256 LINE"
);
},
{
closed = 1;
nodes = (
"246 333 LINE",
"412 399 LINE",
"425 418 LINE",
"268 362 LINE"
);
},
{
closed = 1;
nodes = (
"333 175 LINE",
"355 142 LINE",
"360 339 LINE",
"343 323 LINE"
);
},
{
closed = 1;
nodes = (
"137 263 LINE",
"343 323 LINE",
"360 339 LINE",
"159 289 LINE"
);
},
{
closed = 1;
nodes = (
"137 263 LINE",
"159 289 LINE",
"183 500 LINE",
"169 515 LINE"
);
},
{
closed = 1;
nodes = (
"183 500 LINE",
"224 502 LINE",
"242 522 LINE",
"169 515 LINE"
);
},
{
closed = 1;
nodes = (
"207 335 LINE",
"227 323 LINE",
"242 522 LINE",
"224 502 LINE"
);
},
{
closed = 1;
nodes = (
"60 282 LINE",
"227 323 LINE",
"207 335 LINE",
"75 301 LINE"
);
},
{
closed = 1;
nodes = (
"60 282 LINE",
"75 301 LINE",
"106 524 LINE",
"95 539 LINE"
);
},
{
closed = 1;
nodes = (
"106 524 LINE",
"140 522 LINE",
"159 541 LINE",
"95 539 LINE"
);
},
{
closed = 1;
nodes = (
"111 338 LINE",
"127 327 LINE",
"159 541 LINE",
"140 522 LINE"
);
},
{
closed = 1;
nodes = (
"25 290 LINE",
"127 327 LINE",
"111 338 LINE",
"44 311 LINE"
);
},
{
closed = 1;
nodes = (
"25 290 LINE",
"44 311 LINE",
"87 583 LINE",
"76 597 LINE"
);
},
{
closed = 1;
nodes = (
"87 583 LINE",
"390 569 LINE",
"418 597 LINE",
"76 597 LINE"
);
},
{
closed = 1;
nodes = (
"376 457 LINE",
"388 440 LINE",
"418 597 LINE",
"390 569 LINE"
);
},
{
closed = 1;
nodes = (
"338 416 LINE",
"388 440 LINE",
"376 457 LINE",
"335 434 LINE"
);
},
{
closed = 1;
nodes = (
"275 441 LINE",
"338 416 LINE",
"335 434 LINE",
"262 470 LINE"
);
},
{
closed = 1;
nodes = (
"246 333 LINE",
"268 362 LINE",
"275 441 LINE",
"262 470 LINE"
);
}
);
width = 450;
},
{
associatedMasterId = "9FEBDF96-C5A3-469C-9009-8CF8388B2B9F";
components = (
{
alignment = -1;
name = _Lbottom;
transform = "{1, 0, 0, 1, 25, 427}";
}
);
layerId = "2F42660F-DFE2-47FF-91DF-7A55FE0C5116";
name = "Dec 16 21, 20:32";
paths = (
{
closed = 1;
nodes = (
"225 272 LINE",
"225 0 LINE",
"425 52 LINE",
"425 221 LINE"
);
},
{
closed = 1;
nodes = (
"25 278 LINE",
"125 254 LINE",
"125 451 LINE",
"25 451 LINE"
);
},
{
closed = 1;
nodes = (
"25 174 LINE",
"325 174 LINE",
"325 247 LINE",
"112 300 LINE",
"25 300 LINE"
);
},
{
closed = 1;
nodes = (
"425 52 LINE",
"425 173 LINE",
"25 73 LINE",
"25 0 LINE",
"225 0 LINE"
);
},
{
closed = 1;
nodes = (
"425 351 LINE",
"425 439 LINE",
"225 439 LINE",
"225 351 LINE"
);
}
);
width = 450;
}
);
unicode = 0053;
},
{
glyphname = T;
lastChange = "2021-12-17 23:40:49 +0000";
layers = (
{
background = {
paths = (
{
closed = 1;
nodes = (
"126 427 LINE",
"126 0 LINE",
"326 0 LINE",
"326 385 LINE",
"276 398 LINE",
"276 427 LINE",
"425 427 LINE",
"425 499 LINE",
"25 600 LINE",
"25 427 LINE"
);
}
);
};
components = (
{
name = _eye;
transform = "{1, 0, 0, 1, 252, 75}";
},
{
name = _eye;
transform = "{1, 0, 0, 1, 127, 75}";
}
);
layerId = "9FEBDF96-C5A3-469C-9009-8CF8388B2B9F";
paths = (
{
closed = 1;
nodes = (
"25 435 LINE",
"425 435 LINE",
"425 454 LINE",
"25 471 LINE"
);
},
{
closed = 1;
nodes = (
"157 0 LINE",
"196 0 LINE",
"199 549 LINE",
"176 556 LINE"
);
},
{
closed = 1;
nodes = (
"25 427 LINE",
"425 427 LINE",
"425 447 LINE",
"25 484 LINE"
);
},
{
closed = 1;
nodes = (
"267 0 LINE",
"326 0 LINE",
"326 385 LINE",
"276 398 LINE"
);
},
{
closed = 1;
nodes = (
"25 427 LINE",
"425 427 LINE",
"425 441 LINE",
"25 447 LINE"
);
},
{
closed = 1;
nodes = (
"211 545 LINE",
"193 555 LINE",
"193 0 LINE",
"214 0 LINE"
);
},
{
closed = 1;
nodes = (
"425 476 LINE",
"25 536 LINE",
"25 495 LINE",
"425 461 LINE"
);
},
{
closed = 1;
nodes = (
"165 0 LINE",
"187 556 LINE",
"161 561 LINE",
"140 0 LINE"
);
},
{
closed = 1;
nodes = (
"276 533 LINE",
"233 543 LINE",
"239 0 LINE",
"276 0 LINE"
);
},
{
closed = 1;
nodes = (
"425 467 LINE",
"25 525 LINE",
"25 463 LINE",
"425 447 LINE"
);
},
{
closed = 1;
nodes = (
"425 499 LINE",
"25 600 LINE",
"25 565 LINE",
"425 479 LINE"
);
},
{
closed = 1;
nodes = (
"25 509 LINE",
"425 471 LINE",
"425 487 LINE",
"25 545 LINE"
);
},
{
closed = 1;
nodes = (
"425 495 LINE",
"25 575 LINE",
"25 518 LINE",
"425 454 LINE"
);
},
{
closed = 1;
nodes = (
"216 549 LINE",
"229 0 LINE",
"243 0 LINE",
"249 539 LINE"
);
},
{
closed = 1;
nodes = (
"126 0 LINE",
"146 0 LINE",
"166 553 LINE",
"126 569 LINE"
);
},
{
closed = 1;
nodes = (
"206 548 LINE",
"200 0 LINE",
"232 0 LINE",
"228 544 LINE"
);
}
);
width = 450;
},
{
background = {
paths = (
{
closed = 1;
nodes = (
"296 0 LINE",
"289 318 LINE",
"285 486 LINE",
"437 463 LINE",
"405 319 LINE",
"374 137 LINE",
"457 186 LINE",
"465 305 LINE",
"489 487 LINE",
"467 600 LINE",
"282 593 LINE",
"282 626 LINE",
"366 635 LINE",
"346 549 LINE",
"151 576 LINE",
"147 622 LINE",
"234 645 LINE",
"226 541 LINE",
"62 541 LINE",
"63 515 LINE",
"59 457 LINE",
"79 300 LINE",
"105 180 LINE",
"155 172 LINE",
"173 216 LINE",
"192 300 LINE",
"166 471 LINE",
"240 463 LINE",
"225 0 LINE"
);
},
{
closed = 1;
nodes = (
"257 481 LINE",
"155 482 LINE",
"172 281 LINE",
"141 202 LINE",
"112 198 LINE",
"95 340 LINE",
"90 406 LINE",
"74 516 LINE",
"71 531 LINE",
"246 520 LINE",
"246 660 LINE",
"117 642 LINE",
"139 565 LINE",
"353 543 LINE",
"378 654 LINE",
"265 646 LINE",
"271 580 LINE",
"457 591 LINE",
"472 487 LINE",
"447 294 LINE",
"441 188 LINE",
"398 162 LINE",
"433 352 LINE",
"446 479 LINE",
"279 499 LINE",
"279 315 LINE",
"279 20 LINE",
"250 20 LINE"
);
},
{
closed = 1;
nodes = (
"207 591 LINE",
"207 615 LINE",
"184 620 LINE",
"184 591 LINE"
);
},
{
closed = 1;
nodes = (
"336 605 LINE",
"341 624 LINE",
"315 627 LINE",
"318 600 LINE"
);
},
{
closed = 1;
nodes = (
"140 156 LINE",
"151 121 LINE",
"145 182 LINE",
"116 186 LINE",
"102 147 LINE",
"114 147 LINE",
"120 60 LINE"
);
},
{
closed = 1;
nodes = (
"433 168 LINE",
"451 105 LINE",
"448 188 LINE",
"382 144 LINE",
"391 84 LINE",
"406 154 LINE",
"423 68 LINE"
);
}
);
};
components = (
{
name = _eye;
transform = "{1, 0, 0, 1, 269, 122}";
},
{
name = _eye;
transform = "{1, 0, 0, 1, 144, 122}";
}
);
layerId = "F1DD319B-D5A5-4BA6-A343-EFA3D63A9498";
paths = (
{
closed = 1;
nodes = (
"34 403 LINE",
"145 387 LINE",
"162 405 LINE",
"54 421 LINE"
);
},
{
closed = 1;
nodes = (
"131 0 LINE",
"156 20 LINE",
"162 405 LINE",
"145 387 LINE"
);
},
{
closed = 1;
nodes = (
"131 0 LINE",
"307 4 LINE",
"281 34 LINE",
"156 20 LINE"
);
},
{
closed = 1;
nodes = (
"281 34 LINE",
"307 4 LINE",
"307 396 LINE",
"290 416 LINE"
);
},
{
closed = 1;
nodes = (
"307 396 LINE",
"424 381 LINE",
"401 410 LINE",
"290 416 LINE"
);
},
{
closed = 1;
nodes = (
"202 558 LINE",
"191 545 LINE",
"191 487 LINE",
"212 471 LINE"
);
},
{
closed = 1;
nodes = (
"191 487 LINE",
"120 495 LINE",
"95 471 LINE",
"212 471 LINE"
);
},
{
closed = 1;
nodes = (
"120 495 LINE",
"115 583 LINE",
"101 601 LINE",
"95 471 LINE"
);
},
{
closed = 1;
nodes = (
"334 560 LINE",
"318 545 LINE",
"332 499 LINE",
"356 483 LINE"
);
},
{
closed = 1;
nodes = (
"332 499 LINE",
"241 483 LINE",
"227 465 LINE",
"356 483 LINE"
);
},
{
closed = 1;
nodes = (
"425 584 LINE",
"227 600 LINE",
"243 583 LINE",
"406 567 LINE"
);
},
{
closed = 1;
nodes = (
"40 536 LINE",
"191 545 LINE",
"202 558 LINE",
"25 553 LINE"
);
},
{
closed = 1;
nodes = (
"334 560 LINE",
"101 601 LINE",
"115 583 LINE",
"318 545 LINE"
);
},
{
closed = 1;
nodes = (
"227 600 LINE",
"227 465 LINE",
"241 483 LINE",
"243 583 LINE"
);
},
{
closed = 1;
nodes = (
"34 403 LINE",
"54 421 LINE",
"40 536 LINE",
"25 553 LINE"
);
},
{
closed = 1;
nodes = (
"406 567 LINE",
"401 410 LINE",
"424 381 LINE",
"425 584 LINE"
);
}
);
width = 450;
},
{
associatedMasterId = "F1DD319B-D5A5-4BA6-A343-EFA3D63A9498";
layerId = "EB48805B-4405-47EB-81E4-696AE0231A11";
name = "Nov 27 21, 13:09";
paths = (
{
closed = 1;
nodes = (
"254 0 LINE",
"247 318 LINE",
"243 486 LINE",
"399 463 LINE",
"370 419 OFFCURVE",
"308 319 OFFCURVE",
"363 319 CURVE SMOOTH",
"386 319 OFFCURVE",
"299 218 OFFCURVE",
"332 137 CURVE",
"415 186 LINE",
"425 228 OFFCURVE",
"403 258 OFFCURVE",
"423 305 CURVE SMOOTH",
"447 360 OFFCURVE",
"452 425 OFFCURVE",
"447 487 CURVE SMOOTH",
"443 527 OFFCURVE",
"435 566 OFFCURVE",
"425 600 CURVE",
"240 593 LINE",
"240 626 LINE",
"324 635 LINE",
"304 549 LINE",
"109 576 LINE",
"105 622 LINE",
"192 645 LINE",
"184 541 LINE",
"20 541 LINE",
"20 536 OFFCURVE",
"22 526 OFFCURVE",
"21 515 CURVE SMOOTH",
"19 493 OFFCURVE",
"15 480 OFFCURVE",
"17 457 CURVE SMOOTH",
"20 417 OFFCURVE",
"46 327 OFFCURVE",
"37 300 CURVE SMOOTH",
"20 248 OFFCURVE",
"29 207 OFFCURVE",
"63 180 CURVE",
"113 172 LINE",
"124 185 OFFCURVE",
"133 189 OFFCURVE",
"127 216 CURVE SMOOTH",
"119 252 OFFCURVE",
"134 252 OFFCURVE",
"150 300 CURVE SMOOTH",
"165 345 OFFCURVE",
"97 395 OFFCURVE",
"124 471 CURVE",
"198 463 LINE",
"183 0 LINE"
);
},
{
closed = 1;
nodes = (
"99 59 OFFCURVE",
"84 160 OFFCURVE",
"98 156 CURVE SMOOTH",
"112 152 OFFCURVE",
"89 70 OFFCURVE",
"114 71 CURVE SMOOTH",
"134 72 OFFCURVE",
"103 179 OFFCURVE",
"103 182 CURVE",
"74 186 LINE",
"42 148 OFFCURVE",
"40 95 OFFCURVE",
"54 92 CURVE SMOOTH",
"79 87 OFFCURVE",
"57 150 OFFCURVE",
"72 147 CURVE SMOOTH",
"94 143 OFFCURVE",
"57 61 OFFCURVE",
"78 60 CURVE SMOOTH"
);
},
{
closed = 1;
nodes = (
"402 69 OFFCURVE",
"369 164 OFFCURVE",
"391 168 CURVE SMOOTH",
"413 172 OFFCURVE",
"380 99 OFFCURVE",
"409 105 CURVE SMOOTH",
"429 109 OFFCURVE",
"416 176 OFFCURVE",
"406 188 CURVE",
"340 144 LINE",
"340 141 OFFCURVE",
"332 94 OFFCURVE",
"349 84 CURVE SMOOTH",
"370 71 OFFCURVE",
"350 150 OFFCURVE",
"364 154 CURVE SMOOTH",
"378 158 OFFCURVE",
"360 67 OFFCURVE",
"381 68 CURVE SMOOTH"
);
},
{
closed = 1;
nodes = (
"215 481 LINE",
"113 482 LINE",
"85 458 OFFCURVE",
"104 426 OFFCURVE",
"114 403 CURVE SMOOTH",
"141 342 OFFCURVE",
"126 228 OFFCURVE",
"99 202 CURVE",
"70 198 LINE",
"42 242 OFFCURVE",
"71 302 OFFCURVE",
"53 340 CURVE SMOOTH",
"40 367 OFFCURVE",
"47 381 OFFCURVE",
"48 406 CURVE SMOOTH",
"50 439 OFFCURVE",
"40 484 OFFCURVE",
"32 516 CURVE SMOOTH",
"31 521 OFFCURVE",
"30 526 OFFCURVE",
"29 531 CURVE",
"204 520 LINE",
"204 660 LINE",
"75 642 LINE",
"97 565 LINE",
"311 543 LINE",
"336 654 LINE",
"223 646 LINE",
"229 580 LINE",
"415 591 LINE",
"424 560 OFFCURVE",
"429 524 OFFCURVE",
"430 487 CURVE SMOOTH",
"433 420 OFFCURVE",
"425 350 OFFCURVE",
"405 294 CURVE SMOOTH",
"384 235 OFFCURVE",
"406 203 OFFCURVE",
"399 188 CURVE",
"356 162 LINE",
"344 192 OFFCURVE",
"363 289 OFFCURVE",
"391 352 CURVE SMOOTH",
"418 412 OFFCURVE",
"413 450 OFFCURVE",
"404 479 CURVE",
"237 499 LINE",
"237 315 LINE",
"237 20 LINE",
"208 20 LINE"
);
},
{
closed = 1;
nodes = (
"165 591 LINE",
"165 615 LINE",
"142 620 LINE",
"142 591 LINE"
);
},
{
closed = 1;
nodes = (
"294 605 LINE",
"299 624 LINE",
"273 627 LINE",
"276 600 LINE"
);
}
);
width = 440;
},
{
associatedMasterId = "F1DD319B-D5A5-4BA6-A343-EFA3D63A9498";
layerId = "D0B0BB46-F94E-4CFB-9BFC-CD760AA6B2EF";
name = "Dec 4 21, 11:37";
paths = (
{
closed = 1;
nodes = (
"254 0 LINE",
"247 318 LINE",
"243 486 LINE",
"399 463 LINE",
"370 419 OFFCURVE",
"308 319 OFFCURVE",
"363 319 CURVE SMOOTH",
"386 319 OFFCURVE",
"299 218 OFFCURVE",
"332 137 CURVE",
"415 186 LINE",
"425 228 OFFCURVE",
"403 258 OFFCURVE",
"423 305 CURVE SMOOTH",
"447 360 OFFCURVE",
"452 425 OFFCURVE",
"447 487 CURVE SMOOTH",
"443 527 OFFCURVE",
"435 566 OFFCURVE",
"425 600 CURVE",
"240 593 LINE",
"240 626 LINE",
"324 635 LINE",
"304 549 LINE",
"109 576 LINE",
"105 622 LINE",
"192 645 LINE",
"184 541 LINE",
"20 541 LINE",
"20 536 OFFCURVE",
"22 526 OFFCURVE",
"21 515 CURVE SMOOTH",
"19 493 OFFCURVE",
"15 480 OFFCURVE",
"17 457 CURVE SMOOTH",
"20 417 OFFCURVE",
"46 327 OFFCURVE",
"37 300 CURVE SMOOTH",
"20 248 OFFCURVE",
"29 207 OFFCURVE",
"63 180 CURVE",
"113 172 LINE",
"124 185 OFFCURVE",
"133 189 OFFCURVE",
"127 216 CURVE SMOOTH",
"119 252 OFFCURVE",
"134 252 OFFCURVE",
"150 300 CURVE SMOOTH",
"165 345 OFFCURVE",
"97 395 OFFCURVE",
"124 471 CURVE",
"198 463 LINE",
"183 0 LINE"
);
},
{
closed = 1;
nodes = (
"99 59 OFFCURVE",
"84 160 OFFCURVE",
"98 156 CURVE SMOOTH",
"112 152 OFFCURVE",
"89 70 OFFCURVE",
"114 71 CURVE SMOOTH",
"134 72 OFFCURVE",
"103 179 OFFCURVE",
"103 182 CURVE",
"74 186 LINE",
"42 148 OFFCURVE",
"40 95 OFFCURVE",
"54 92 CURVE SMOOTH",
"79 87 OFFCURVE",
"57 150 OFFCURVE",
"72 147 CURVE SMOOTH",
"94 143 OFFCURVE",
"57 61 OFFCURVE",
"78 60 CURVE SMOOTH"
);
},
{
closed = 1;
nodes = (
"402 69 OFFCURVE",
"369 164 OFFCURVE",
"391 168 CURVE SMOOTH",
"413 172 OFFCURVE",
"380 99 OFFCURVE",
"409 105 CURVE SMOOTH",
"429 109 OFFCURVE",
"416 176 OFFCURVE",
"406 188 CURVE",
"340 144 LINE",
"340 141 OFFCURVE",
"332 94 OFFCURVE",
"349 84 CURVE SMOOTH",
"370 71 OFFCURVE",
"350 150 OFFCURVE",
"364 154 CURVE SMOOTH",
"378 158 OFFCURVE",
"360 67 OFFCURVE",
"381 68 CURVE SMOOTH"
);
},
{
closed = 1;
nodes = (
"215 481 LINE",
"113 482 LINE",
"85 458 OFFCURVE",
"104 426 OFFCURVE",
"114 403 CURVE SMOOTH",
"141 342 OFFCURVE",
"126 228 OFFCURVE",
"99 202 CURVE",
"70 198 LINE",
"42 242 OFFCURVE",
"71 302 OFFCURVE",
"53 340 CURVE SMOOTH",
"40 367 OFFCURVE",
"47 381 OFFCURVE",
"48 406 CURVE SMOOTH",
"50 439 OFFCURVE",
"40 484 OFFCURVE",
"32 516 CURVE SMOOTH",
"31 521 OFFCURVE",
"30 526 OFFCURVE",
"29 531 CURVE",
"204 520 LINE",
"204 660 LINE",
"75 642 LINE",
"97 565 LINE",
"311 543 LINE",
"336 654 LINE",
"223 646 LINE",
"229 580 LINE",
"415 591 LINE",
"424 560 OFFCURVE",
"429 524 OFFCURVE",
"430 487 CURVE SMOOTH",
"433 420 OFFCURVE",
"425 350 OFFCURVE",
"405 294 CURVE SMOOTH",
"384 235 OFFCURVE",
"406 203 OFFCURVE",
"399 188 CURVE",
"356 162 LINE",
"344 192 OFFCURVE",
"363 289 OFFCURVE",
"391 352 CURVE SMOOTH",
"418 412 OFFCURVE",
"413 450 OFFCURVE",
"404 479 CURVE",
"237 499 LINE",
"237 315 LINE",
"237 20 LINE",
"208 20 LINE"
);
},
{
closed = 1;
nodes = (
"165 591 LINE",
"165 615 LINE",
"142 620 LINE",
"142 591 LINE"
);
},
{
closed = 1;
nodes = (
"294 605 LINE",
"299 624 LINE",
"273 627 LINE",
"276 600 LINE"
);
}
);
width = 440;
},
{
associatedMasterId = "9FEBDF96-C5A3-469C-9009-8CF8388B2B9F";
layerId = "C219A568-257E-4F06-8C80-ACFE5F2DB3C8";
name = "Dec 4 21, 17:44";
paths = (
{
closed = 1;
nodes = (
"126 427 LINE",
"126 0 LINE",
"326 0 LINE",
"326 385 LINE",
"276 398 LINE",
"276 427 LINE",
"425 427 LINE",
"425 499 LINE",
"25 600 LINE",
"25 427 LINE"
);
}
);
width = 450;
},
{
associatedMasterId = "F1DD319B-D5A5-4BA6-A343-EFA3D63A9498";
background = {
paths = (
{
closed = 1;
nodes = (
"254 0 LINE",
"247 318 LINE",
"243 486 LINE",
"395 463 LINE",
"363 319 LINE",
"332 137 LINE",
"415 186 LINE",
"423 305 LINE",
"447 487 LINE",
"425 600 LINE",
"240 593 LINE",
"240 626 LINE",
"324 635 LINE",
"304 549 LINE",
"109 576 LINE",
"105 622 LINE",
"192 645 LINE",
"184 541 LINE",
"20 541 LINE",
"21 515 LINE",
"17 457 LINE",
"37 300 LINE",
"63 180 LINE",
"113 172 LINE",
"131 216 LINE",
"150 300 LINE",
"124 471 LINE",
"198 463 LINE",
"183 0 LINE"
);
},
{
closed = 1;
nodes = (
"215 481 LINE",
"113 482 LINE",
"130 281 LINE",
"99 202 LINE",
"70 198 LINE",
"53 340 LINE",
"48 406 LINE",
"32 516 LINE",
"29 531 LINE",
"204 520 LINE",
"204 660 LINE",
"75 642 LINE",
"97 565 LINE",
"311 543 LINE",
"336 654 LINE",
"223 646 LINE",
"229 580 LINE",
"415 591 LINE",
"430 487 LINE",
"405 294 LINE",
"399 188 LINE",
"356 162 LINE",
"391 352 LINE",
"404 479 LINE",
"237 499 LINE",
"237 315 LINE",
"237 20 LINE",
"208 20 LINE"
);
},
{
closed = 1;
nodes = (
"165 591 LINE",
"165 615 LINE",
"142 620 LINE",
"142 591 LINE"
);
},
{
closed = 1;
nodes = (
"294 605 LINE",
"299 624 LINE",
"273 627 LINE",
"276 600 LINE"
);
},
{
closed = 1;
nodes = (
"98 156 LINE",
"109 121 LINE",
"103 182 LINE",
"74 186 LINE",
"60 147 LINE",
"72 147 LINE",
"78 60 LINE"
);
},
{
closed = 1;
nodes = (
"391 168 LINE",
"409 105 LINE",
"406 188 LINE",
"340 144 LINE",
"349 84 LINE",
"364 154 LINE",
"381 68 LINE"
);
}
);
};
layerId = "A1A84F6D-E59B-4335-9F3B-C0064D4E3267";
name = "Dec 12 21, 10:06";
paths = (
{
closed = 1;
nodes = (
"17 457 LINE",
"37 300 LINE",
"57 175 LINE",
"70 198 LINE",
"53 340 LINE",
"29 442 LINE",
"29 531 LINE",
"20 541 LINE"
);
},
{
closed = 1;
nodes = (
"135 301 LINE",
"121 182 LINE",
"127 186 LINE",
"150 300 LINE",
"124 471 LINE",
"113 482 LINE"
);
},
{
closed = 1;
nodes = (
"124 471 LINE",
"198 463 LINE",
"215 481 LINE",
"113 482 LINE"
);
},
{
closed = 1;
nodes = (
"183 0 LINE",
"208 20 LINE",
"215 481 LINE",
"198 463 LINE"
);
},
{
closed = 1;
nodes = (
"183 0 LINE",
"254 0 LINE",
"237 20 LINE",
"208 20 LINE"
);
},
{
closed = 1;
nodes = (
"237 20 LINE",
"254 0 LINE",
"254 479 LINE",
"237 499 LINE"
);
},
{
closed = 1;
nodes = (
"254 479 LINE",
"395 463 LINE",
"404 479 LINE",
"237 499 LINE"
);
},
{
closed = 1;
nodes = (
"363 319 LINE",
"332 137 LINE",
"341 148 LINE",
"391 352 LINE",
"404 479 LINE",
"395 463 LINE"
);
},
{
closed = 1;
nodes = (
"430 487 LINE",
"405 294 LINE",
"399 188 LINE",
"415 186 LINE",
"415 294 LINE",
"447 487 LINE",
"425 600 LINE",
"415 591 LINE"
);
},
{
closed = 1;
nodes = (
"318 583 LINE",
"415 591 LINE",
"425 600 LINE",
"308 593 LINE"
);
},
{
closed = 1;
nodes = (
"229 580 LINE",
"240 593 LINE",
"240 638 LINE",
"223 646 LINE"
);
},
{
closed = 1;
nodes = (
"240 638 LINE",
"311 630 LINE",
"336 654 LINE",
"223 646 LINE"
);
},
{
closed = 1;
nodes = (
"308 593 LINE",
"304 549 LINE",
"311 543 LINE",
"318 583 LINE"
);
},
{
closed = 1;
nodes = (
"187 568 LINE",
"109 576 LINE",
"97 565 LINE",
"204 554 LINE"
);
},
{
closed = 1;
nodes = (
"97 565 LINE",
"109 576 LINE",
"105 622 LINE",
"75 642 LINE"
);
},
{
closed = 1;
nodes = (
"105 622 LINE",
"192 645 LINE",
"204 660 LINE",
"75 642 LINE"
);
},
{
closed = 1;
nodes = (
"187 568 LINE",
"184 541 LINE",
"204 520 LINE",
"204 554 LINE"
);
},
{
closed = 1;
nodes = (
"29 531 LINE",
"204 520 LINE",
"184 541 LINE",
"20 541 LINE"
);
},
{
closed = 1;
nodes = (
"142 591 LINE",
"165 591 LINE",
"165 615 LINE",
"142 620 LINE"
);
},
{
closed = 1;
nodes = (
"276 600 LINE",
"294 605 LINE",
"299 624 LINE",
"273 627 LINE"
);
},
{
closed = 1;
nodes = (
"308 593 LINE",
"240 593 LINE",
"229 580 LINE",
"318 583 LINE"
);
},
{
closed = 1;
nodes = (
"204 554 LINE",
"311 543 LINE",
"304 549 LINE",
"187 568 LINE"
);
},
{
closed = 1;
nodes = (
"204 554 LINE",
"204 660 LINE",
"192 645 LINE",
"187 568 LINE"
);
},
{
closed = 1;
nodes = (
"318 583 LINE",
"336 654 LINE",
"311 630 LINE",
"308 593 LINE"
);
},
{
closed = 1;
nodes = (
"58 125 LINE",
"64 138 LINE",
"70 198 LINE",
"57 175 LINE"
);
},
{
closed = 1;
nodes = (
"58 125 LINE",
"76 130 LINE",
"74 139 LINE",
"64 138 LINE"
);
},
{
closed = 1;
nodes = (
"74 139 LINE",
"76 130 LINE",
"78 162 LINE",
"74 167 LINE"
);
},
{
closed = 1;
nodes = (
"84 56 LINE",
"94 63 LINE",
"88 171 LINE",
"84 163 LINE"
);
},
{
closed = 1;
nodes = (
"84 56 LINE",
"110 57 LINE",
"102 70 LINE",
"94 63 LINE"
);
},
{
closed = 1;
nodes = (
"102 70 LINE",
"110 57 LINE",
"110 149 LINE",
"101 156 LINE"
);
},
{
closed = 1;
nodes = (
"110 149 LINE",
"118 153 LINE",
"121 159 LINE",
"101 156 LINE"
);
},
{
closed = 1;
nodes = (
"125 95 LINE",
"128 101 LINE",
"121 159 LINE",
"118 153 LINE"
);
},
{
closed = 1;
nodes = (
"125 95 LINE",
"145 97 LINE",
"134 104 LINE",
"128 101 LINE"
);
},
{
closed = 1;
nodes = (
"134 104 LINE",
"145 97 LINE",
"127 186 LINE",
"121 182 LINE"
);
},
{
closed = 1;
nodes = (
"333 77 LINE",
"339 94 LINE",
"341 148 LINE",
"332 137 LINE"
);
},
{
closed = 1;
nodes = (
"333 77 LINE",
"357 93 LINE",
"349 93 LINE",
"339 94 LINE"
);
},
{
closed = 1;
nodes = (
"349 93 LINE",
"357 93 LINE",
"354 132 LINE",
"349 143 LINE"
);
},
{
closed = 1;
nodes = (
"354 132 LINE",
"365 128 LINE",
"371 135 LINE",
"349 143 LINE"
);
},
{
closed = 1;
nodes = (
"375 60 LINE",
"377 70 LINE",
"371 135 LINE",
"365 128 LINE"
);
},
{
closed = 1;
nodes = (
"375 60 LINE",
"395 74 LINE",
"384 80 LINE",
"377 70 LINE"
);
},
{
closed = 1;
nodes = (
"384 80 LINE",
"395 74 LINE",
"384 152 LINE",
"377 158 LINE"
);
},
{
closed = 1;
nodes = (
"384 152 LINE",
"393 154 LINE",
"399 166 LINE",
"377 158 LINE"
);
},
{
closed = 1;
nodes = (
"404 88 LINE",
"409 92 LINE",
"399 166 LINE",
"393 154 LINE"
);
},
{
closed = 1;
nodes = (
"404 88 LINE",
"434 93 LINE",
"425 99 LINE",
"409 92 LINE"
);
},
{
closed = 1;
nodes = (
"425 99 LINE",
"434 93 LINE",
"415 186 LINE",
"399 188 LINE"
);
},
{
closed = 1;
nodes = (
"78 162 LINE",
"84 163 LINE",
"88 171 LINE",
"74 167 LINE"
);
}
);
width = 500;
}
);
unicode = 0054;
},
{
glyphname = U;
lastChange = "2021-12-16 19:49:27 +0000";
layers = (
{
background = {
paths = (
{
closed = 1;
nodes = (
"225 0 LINE",
"425 0 LINE",
"425 499 LINE",
"225 549 LINE",
"225 122 LINE",
"125 148 LINE",
"125 575 LINE",
"25 600 LINE",
"25 50 LINE"
);
}
);
};
components = (
{
name = _eye;
transform = "{1, 0, 0, 1, 354, 52}";
},
{
name = _eye;
transform = "{1, 0, 0, 1, 55, 52}";
}
);
layerId = "9FEBDF96-C5A3-469C-9009-8CF8388B2B9F";
paths = (
{
closed = 1;
nodes = (
"25 50 LINE",
"69 39 LINE",
"89 584 LINE",
"25 600 LINE"
);
},
{
closed = 1;
nodes = (
"25 67 LINE",
"425 11 LINE",
"425 31 LINE",
"25 103 LINE"
);
},
{
closed = 1;
nodes = (
"321 0 LINE",
"425 0 LINE",
"425 499 LINE",
"293 532 LINE"
);
},
{
closed = 1;
nodes = (
"25 97 LINE",
"425 27 LINE",
"425 67 LINE",
"25 127 LINE"
);
},
{
closed = 1;
nodes = (
"225 0 LINE",
"338 0 LINE",
"349 518 LINE",
"225 549 LINE"
);
},
{
closed = 1;
nodes = (
"25 50 LINE",
"225 0 LINE",
"425 0 LINE",
"425 18 LINE",
"25 70 LINE"
);
},
{
closed = 1;
nodes = (
"25 119 LINE",
"425 58 LINE",
"425 71 LINE",
"25 174 LINE"
);
},
{
closed = 1;
nodes = (
"57 42 LINE",
"125 25 LINE",
"125 575 LINE",
"73 588 LINE"
);
}
);
width = 450;
},
{
components = (
{
name = _eye;
transform = "{1, 0, 0, 1, 365, -273}";
},
{
name = _eye;
transform = "{1, 0, 0, 1, 66, -273}";
}
);
layerId = "F1DD319B-D5A5-4BA6-A343-EFA3D63A9498";
paths = (
{
closed = 1;
nodes = (
"32 76 LINE",
"50 94 LINE",
"43 578 LINE",
"25 597 LINE"
);
},
{
closed = 1;
nodes = (
"32 76 LINE",
"423 75 LINE",
"403 95 LINE",
"50 94 LINE"
);
},
{
closed = 1;
nodes = (
"403 95 LINE",
"423 75 LINE",
"425 599 LINE",
"401 571 LINE"
);
},
{
closed = 1;
nodes = (
"327 574 LINE",
"401 571 LINE",
"425 599 LINE",
"308 594 LINE"
);
},
{
closed = 1;
nodes = (
"336 25 LINE",
"358 3 LINE",
"327 574 LINE",
"308 594 LINE"
);
},
{
closed = 1;
nodes = (
"94 2 LINE",
"264 3 LINE",
"358 3 LINE",
"336 25 LINE",
"112 22 LINE"
);
},
{
closed = 1;
nodes = (
"43 578 LINE",
"116 572 LINE",
"140 600 LINE",
"25 597 LINE"
);
},
{
closed = 1;
nodes = (
"94 2 LINE",
"112 22 LINE",
"140 600 LINE",
"116 572 LINE"
);
}
);
width = 450;
},
{
associatedMasterId = "9FEBDF96-C5A3-469C-9009-8CF8388B2B9F";
components = (
{
alignment = -1;
name = _Hright;
transform = "{1, 0, 0, 1, 225, 0}";
}
);
layerId = "7BE38863-7433-4B74-9197-C897E7201674";
name = "Dec 16 21, 20:46";
paths = (
{
closed = 1;
nodes = (
"25 52 LINE",
"125 52 LINE",
"125 575 LINE",
"25 600 LINE"
);
},
{
closed = 1;
nodes = (
"425 71 LINE",
"25 173 LINE",
"25 50 LINE",
"225 0 LINE",
"425 52 LINE"
);
}
);
width = 450;
}
);
unicode = 0055;
},
{
glyphname = V;
lastChange = "2021-12-17 23:45:12 +0000";
layers = (
{
background = {
paths = (
{
closed = 1;
nodes = (
"25 37 LINE",
"125 37 LINE",
"125 575 LINE",
"25 600 LINE"
);
},
{
closed = 1;
nodes = (
"425 37 LINE",
"425 499 LINE",
"225 549 LINE",
"225 -15 LINE"
);
},
{
closed = 1;
nodes = (
"425 71 LINE",
"25 173 LINE",
"25 35 LINE",
"225 -15 LINE",
"425 37 LINE"
);
}
);
};
components = (
{
name = _eye;
transform = "{1, 0, 0, 1, 251, 27}";
},
{
name = _eye;
transform = "{1, 0, 0, 1, 87, 27}";
}
);
layerId = "9FEBDF96-C5A3-469C-9009-8CF8388B2B9F";
paths = (
{
closed = 1;
nodes = (
"25 35 LINE",
"85 27 LINE",
"85 585 LINE",
"25 600 LINE"
);
},
{
closed = 1;
nodes = (
"25 35 LINE",
"225 -15 LINE",
"425 37 LINE",
"425 50 LINE",
"25 52 LINE"
);
},
{
closed = 1;
nodes = (
"340 18 LINE",
"425 37 LINE",
"425 499 LINE",
"349 518 LINE"
);
},
{
closed = 1;
nodes = (
"25 96 LINE",
"425 62 LINE",
"425 71 LINE",
"25 113 LINE"
);
},
{
closed = 1;
nodes = (
"260 -4 LINE",
"314 12 LINE",
"329 523 LINE",
"257 541 LINE"
);
},
{
closed = 1;
nodes = (
"25 48 LINE",
"425 45 LINE",
"425 56 LINE",
"25 67 LINE"
);
},
{
closed = 1;
nodes = (
"297 11 LINE",
"360 27 LINE",
"373 512 LINE",
"301 530 LINE"
);
},
{
closed = 1;
nodes = (
"25 82 LINE",
"425 42 LINE",
"425 67 LINE",
"25 102 LINE"
);
},
{
closed = 1;
nodes = (
"78 31 LINE",
"125 11 LINE",
"125 575 LINE",
"57 592 LINE"
);
},
{
closed = 1;
nodes = (
"25 62 LINE",
"425 56 LINE",
"425 62 LINE",
"25 85 LINE"
);
},
{
closed = 1;
nodes = (
"225 -15 LINE",
"266 -1 LINE",
"265 539 LINE",
"225 549 LINE"
);
},
{
closed = 1;
nodes = (
"25 110 LINE",
"425 41 LINE",
"425 71 LINE",
"25 173 LINE"
);
}
);
width = 450;
},
{
components = (
{
name = _eye;
transform = "{1, 0, 0, 1, 298, 27}";
},
{
name = _eye;
transform = "{1, 0, 0, 1, 134, 27}";
}
);
layerId = "F1DD319B-D5A5-4BA6-A343-EFA3D63A9498";
paths = (
{
closed = 1;
nodes = (
"60 4 LINE",
"79 21 LINE",
"34 583 LINE",
"10 600 LINE"
);
},
{
closed = 1;
nodes = (
"60 4 LINE",
"224 2 LINE",
"385 0 LINE",
"365 24 LINE",
"79 21 LINE"
);
},
{
closed = 1;
nodes = (
"365 24 LINE",
"385 0 LINE",
"440 607 LINE",
"426 594 LINE"
);
},
{
closed = 1;
nodes = (
"299 588 LINE",
"426 594 LINE",
"440 607 LINE",
"274 605 LINE"
);
},
{
closed = 1;
nodes = (
"235 139 LINE",
"252 156 LINE",
"299 588 LINE",
"274 605 LINE"
);
},
{
closed = 1;
nodes = (
"235 139 LINE",
"316 138 LINE",
"303 156 LINE",
"252 156 LINE"
);
},
{
closed = 1;
nodes = (
"303 156 LINE",
"316 138 LINE",
"371 488 LINE",
"349 466 LINE"
);
},
{
closed = 1;
nodes = (
"105 460 LINE",
"349 466 LINE",
"371 488 LINE",
"85 480 LINE"
);
},
{
closed = 1;
nodes = (
"118 137 LINE",
"132 157 LINE",
"105 460 LINE",
"85 480 LINE"
);
},
{
closed = 1;
nodes = (
"118 137 LINE",
"215 138 LINE",
"194 160 LINE",
"132 157 LINE"
);
},
{
closed = 1;
nodes = (
"194 160 LINE",
"215 138 LINE",
"178 600 LINE",
"163 586 LINE"
);
},
{
closed = 1;
nodes = (
"34 583 LINE",
"163 586 LINE",
"178 600 LINE",
"10 600 LINE"
);
}
);
width = 450;
},
{
associatedMasterId = "9FEBDF96-C5A3-469C-9009-8CF8388B2B9F";
layerId = "8112C236-1E2D-47E8-9682-CD07B7DE9DEF";
name = "Dec 16 21, 20:49";
paths = (
{
closed = 1;
nodes = (
"25 37 LINE",
"125 37 LINE",
"125 575 LINE",
"25 600 LINE"
);
},
{
closed = 1;
nodes = (
"425 37 LINE",
"425 499 LINE",
"225 549 LINE",
"225 -15 LINE"
);
},
{
closed = 1;
nodes = (
"425 71 LINE",
"25 173 LINE",
"25 35 LINE",
"225 -15 LINE",
"425 37 LINE"
);
}
);
width = 450;
}
);
unicode = 0056;
},
{
glyphname = W;
lastChange = "2021-12-16 23:10:02 +0000";
layers = (
{
background = {
paths = (
{
closed = 1;
nodes = (
"225 -15 LINE",
"352 18 LINE",
"425 0 LINE",
"625 0 LINE",
"625 499 LINE",
"425 549 LINE",
"425 122 LINE",
"325 148 LINE",
"325 575 LINE",
"225 600 LINE",
"225 122 LINE",
"125 148 LINE",
"125 575 LINE",
"25 600 LINE",
"25 35 LINE"
);
}
);
};
components = (
{
name = _eye;
transform = "{1, 0, 0, 1, 515, 17}";
},
{
name = _eye;
transform = "{1, 0, 0, 1, 84, 17}";
}
);
layerId = "9FEBDF96-C5A3-469C-9009-8CF8388B2B9F";
paths = (
{
closed = 1;
nodes = (
"325 575 LINE",
"265 590 LINE",
"275 1 LINE",
"325 11 LINE"
);
},
{
closed = 1;
nodes = (
"225 -15 LINE",
"352 18 LINE",
"352 72 LINE",
"25 57 LINE",
"25 35 LINE"
);
},
{
closed = 1;
nodes = (
"352 62 LINE",
"352 108 LINE",
"25 134 LINE",
"25 50 LINE"
);
},
{
closed = 1;
nodes = (
"625 50 LINE",
"325 77 LINE",
"325 41 LINE",
"625 25 LINE"
);
},
{
closed = 1;
nodes = (
"96 19 LINE",
"85 585 LINE",
"25 600 LINE",
"25 35 LINE"
);
},
{
closed = 1;
nodes = (
"125 13 LINE",
"125 575 LINE",
"77 587 LINE",
"85 27 LINE"
);
},
{
closed = 1;
nodes = (
"293 7 LINE",
"281 586 LINE",
"225 600 LINE",
"225 -15 LINE"
);
},
{
closed = 1;
nodes = (
"487 0 LINE",
"501 530 LINE",
"425 549 LINE",
"425 0 LINE"
);
},
{
closed = 1;
nodes = (
"425 0 LINE",
"625 0 LINE",
"625 41 LINE",
"325 47 LINE",
"325 25 LINE"
);
},
{
closed = 1;
nodes = (
"541 520 LINE",
"489 533 LINE",
"473 0 LINE",
"518 0 LINE"
);
},
{
closed = 1;
nodes = (
"352 88 LINE",
"25 176 LINE",
"25 114 LINE",
"352 47 LINE"
);
},
{
closed = 1;
nodes = (
"352 94 LINE",
"25 128 LINE",
"25 81 LINE",
"352 27 LINE"
);
},
{
closed = 1;
nodes = (
"625 35 LINE",
"625 65 LINE",
"325 136 LINE",
"325 73 LINE"
);
},
{
closed = 1;
nodes = (
"601 0 LINE",
"601 505 LINE",
"525 524 LINE",
"505 0 LINE"
);
},
{
closed = 1;
nodes = (
"625 499 LINE",
"597 506 LINE",
"594 0 LINE",
"625 0 LINE"
);
},
{
closed = 1;
nodes = (
"625 70 LINE",
"325 148 LINE",
"325 132 LINE",
"625 62 LINE"
);
}
);
width = 650;
},
{
components = (
{
name = _eye;
transform = "{1, 0, 0, 1, 381, -334}";
},
{
name = _eye;
transform = "{1, 0, 0, 1, 226, -334}";
}
);
layerId = "F1DD319B-D5A5-4BA6-A343-EFA3D63A9498";
paths = (
{
closed = 1;
nodes = (
"262 469 LINE",
"239 487 LINE",
"270 19 LINE",
"285 0 LINE"
);
},
{
closed = 1;
nodes = (
"126 0 LINE",
"161 0 LINE",
"141 28 LINE",
"105 22 LINE",
"91 0 LINE"
);
},
{
closed = 1;
nodes = (
"285 0 LINE",
"270 19 LINE",
"207 18 LINE",
"190 2 LINE"
);
},
{
closed = 1;
nodes = (
"416 23 LINE",
"363 26 LINE",
"342 2 LINE",
"439 1 LINE"
);
},
{
closed = 1;
nodes = (
"105 22 LINE",
"47 574 LINE",
"25 600 LINE",
"91 0 LINE"
);
},
{
closed = 1;
nodes = (
"161 0 LINE",
"118 432 LINE",
"94 455 LINE",
"141 28 LINE"
);
},
{
closed = 1;
nodes = (
"207 18 LINE",
"196 595 LINE",
"174 572 LINE",
"190 2 LINE"
);
},
{
closed = 1;
nodes = (
"363 26 LINE",
"383 425 LINE",
"362 405 LINE",
"342 2 LINE"
);
},
{
closed = 1;
nodes = (
"505 1 LINE",
"543 1 LINE",
"529 26 LINE",
"485 21 LINE",
"464 1 LINE"
);
},
{
closed = 1;
nodes = (
"466 583 LINE",
"445 599 LINE",
"416 23 LINE",
"439 1 LINE"
);
},
{
closed = 1;
nodes = (
"383 425 LINE",
"94 455 LINE",
"118 432 LINE",
"362 405 LINE"
);
},
{
closed = 1;
nodes = (
"196 595 LINE",
"25 600 LINE",
"47 574 LINE",
"174 572 LINE"
);
},
{
closed = 1;
nodes = (
"514 461 LINE",
"536 483 LINE",
"239 487 LINE",
"262 469 LINE"
);
},
{
closed = 1;
nodes = (
"485 21 LINE",
"536 483 LINE",
"514 461 LINE",
"464 1 LINE"
);
},
{
closed = 1;
nodes = (
"625 606 LINE",
"599 584 LINE",
"529 26 LINE",
"543 1 LINE"
);
},
{
closed = 1;
nodes = (
"625 606 LINE",
"445 599 LINE",
"466 583 LINE",
"599 584 LINE"
);
}
);
width = 650;
},
{
associatedMasterId = "F1DD319B-D5A5-4BA6-A343-EFA3D63A9498";
layerId = "D2F2D49C-11D6-48DF-9564-5649C3CE129A";
name = "Dec 8 21, 21:15";
width = 640;
},
{
associatedMasterId = "9FEBDF96-C5A3-469C-9009-8CF8388B2B9F";
components = (
{
name = U;
transform = "{1, 0, 0, 1, 200, 0}";
}
);
layerId = "55C1FBB9-5DFC-44D5-896D-B72AA7227F09";
name = "Dec 16 21, 20:54";
paths = (
{
closed = 1;
nodes = (
"25 37 LINE",
"125 37 LINE",
"125 575 LINE",
"25 600 LINE"
);
},
{
closed = 1;
nodes = (
"425 71 LINE",
"25 173 LINE",
"25 35 LINE",
"225 -15 LINE",
"425 37 LINE"
);
}
);
width = 650;
}
);
unicode = 0057;
},
{
glyphname = X;
lastChange = "2021-12-16 23:01:46 +0000";
layers = (
{
background = {
paths = (
{
closed = 1;
nodes = (
"125 0 LINE",
"125 174 LINE",
"225 174 LINE",
"225 0 LINE",
"425 0 LINE",
"425 136 LINE",
"375 149 LINE",
"375 174 LINE",
"425 174 LINE",
"425 500 LINE",
"225 550 LINE",
"225 272 LINE",
"125 297 LINE",
"125 575 LINE",
"25 600 LINE",
"25 284 LINE",
"75 272 LINE",
"75 246 LINE",
"25 246 LINE",
"25 0 LINE"
);
}
);
};
components = (
{
name = _eye;
transform = "{1, 0, 0, 1, 304, -52}";
},
{
name = _eye;
transform = "{1, 0, 0, 1, 52, -41}";
},
{
name = _eye;
transform = "{1, 0, 0, 1, 291, -262}";
},
{
name = _eye;
transform = "{1, 0, 0, 1, 83, -251}";
}
);
layerId = "9FEBDF96-C5A3-469C-9009-8CF8388B2B9F";
paths = (
{
closed = 1;
nodes = (
"25 285 LINE",
"58 279 LINE",
"61 591 LINE",
"25 600 LINE"
);
},
{
closed = 1;
nodes = (
"25 0 LINE",
"80 0 LINE",
"87 246 LINE",
"25 246 LINE"
);
},
{
closed = 1;
nodes = (
"25 191 LINE",
"425 188 LINE",
"425 204 LINE",
"25 208 LINE"
);
},
{
closed = 1;
nodes = (
"226 0 LINE",
"252 0 LINE",
"253 543 LINE",
"225 550 LINE"
);
},
{
closed = 1;
nodes = (
"25 208 LINE",
"425 208 LINE",
"425 228 LINE",
"25 222 LINE"
);
},
{
closed = 1;
nodes = (
"75 0 LINE",
"125 0 LINE",
"125 575 LINE",
"85 585 LINE"
);
},
{
closed = 1;
nodes = (
"25 183 LINE",
"425 196 LINE",
"425 208 LINE",
"25 204 LINE"
);
},
{
closed = 1;
nodes = (
"292 0 LINE",
"309 0 LINE",
"309 529 LINE",
"293 533 LINE"
);
},
{
closed = 1;
nodes = (
"25 199 LINE",
"425 192 LINE",
"425 219 LINE",
"25 214 LINE"
);
},
{
closed = 1;
nodes = (
"239 0 LINE",
"274 0 LINE",
"273 538 LINE",
"245 545 LINE"
);
},
{
closed = 1;
nodes = (
"25 174 LINE",
"425 174 LINE",
"425 196 LINE",
"25 197 LINE"
);
},
{
closed = 1;
nodes = (
"361 0 LINE",
"425 0 LINE",
"425 136 LINE",
"375 149 LINE"
);
},
{
closed = 1;
nodes = (
"375 174 LINE",
"425 174 LINE",
"425 500 LINE",
"369 514 LINE"
);
},
{
closed = 1;
nodes = (
"25 284 LINE",
"425 192 LINE",
"425 222 LINE",
"25 322 LINE"
);
},
{
closed = 1;
nodes = (
"326 0 LINE",
"345 0 LINE",
"365 515 LINE",
"321 526 LINE"
);
},
{
closed = 1;
nodes = (
"25 215 LINE",
"425 215 LINE",
"425 235 LINE",
"25 233 LINE"
);
},
{
closed = 1;
nodes = (
"344 0 LINE",
"375 0 LINE",
"377 512 LINE",
"353 518 LINE"
);
},
{
closed = 1;
nodes = (
"75 246 LINE",
"425 235 LINE",
"425 246 LINE",
"75 279 LINE"
);
},
{
closed = 1;
nodes = (
"45 280 LINE",
"98 266 LINE",
"101 581 LINE",
"53 593 LINE"
);
},
{
closed = 1;
nodes = (
"25 222 LINE",
"425 210 LINE",
"425 246 LINE",
"25 246 LINE"
);
},
{
closed = 1;
nodes = (
"268 0 LINE",
"333 0 LINE",
"329 524 LINE",
"269 539 LINE"
);
},
{
closed = 1;
nodes = (
"25 285 LINE",
"425 222 LINE",
"425 241 LINE",
"25 304 LINE"
);
}
);
width = 450;
},
{
components = (
{
name = _eye;
transform = "{1, 0, 0, 1, 309, 53}";
},
{
name = _eye;
transform = "{1, 0, 0, 1, 140, 53}";
},
{
name = _eye;
transform = "{1, 0, 0, 1, 296, -157}";
},
{
name = _eye;
transform = "{1, 0, 0, 1, 171, -157}";
}
);
layerId = "F1DD319B-D5A5-4BA6-A343-EFA3D63A9498";
paths = (
{
closed = 1;
nodes = (
"96 303 LINE",
"120 303 LINE",
"38 580 LINE",
"10 599 LINE"
);
},
{
closed = 1;
nodes = (
"10 4 LINE",
"36 21 LINE",
"120 303 LINE",
"96 303 LINE"
);
},
{
closed = 1;
nodes = (
"10 4 LINE",
"196 1 LINE",
"185 17 LINE",
"36 21 LINE"
);
},
{
closed = 1;
nodes = (
"185 17 LINE",
"196 1 LINE",
"241 276 LINE",
"219 256 LINE"
);
},
{
closed = 1;
nodes = (
"161 256 LINE",
"219 256 LINE",
"241 276 LINE",
"147 270 LINE"
);
},
{
closed = 1;
nodes = (
"93 78 LINE",
"120 99 LINE",
"161 256 LINE",
"147 270 LINE"
);
},
{
closed = 1;
nodes = (
"93 78 LINE",
"383 91 LINE",
"366 103 LINE",
"120 99 LINE"
);
},
{
closed = 1;
nodes = (
"366 103 LINE",
"383 91 LINE",
"342 287 LINE",
"328 260 LINE"
);
},
{
closed = 1;
nodes = (
"264 267 LINE",
"328 260 LINE",
"342 287 LINE",
"249 282 LINE"
);
},
{
closed = 1;
nodes = (
"293 -4 LINE",
"307 23 LINE",
"264 267 LINE",
"249 282 LINE"
);
},
{
closed = 1;
nodes = (
"293 -4 LINE",
"440 0 LINE",
"417 22 LINE",
"307 23 LINE"
);
},
{
closed = 1;
nodes = (
"417 22 LINE",
"440 0 LINE",
"375 329 LINE",
"362 329 LINE"
);
},
{
closed = 1;
nodes = (
"362 329 LINE",
"375 329 LINE",
"440 592 LINE",
"415 576 LINE"
);
},
{
closed = 1;
nodes = (
"286 568 LINE",
"415 576 LINE",
"440 592 LINE",
"271 596 LINE"
);
},
{
closed = 1;
nodes = (
"244 308 LINE",
"264 326 LINE",
"286 568 LINE",
"271 596 LINE"
);
},
{
closed = 1;
nodes = (
"244 308 LINE",
"344 308 LINE",
"329 328 LINE",
"264 326 LINE"
);
},
{
closed = 1;
nodes = (
"329 328 LINE",
"344 308 LINE",
"376 480 LINE",
"357 469 LINE"
);
},
{
closed = 1;
nodes = (
"110 476 LINE",
"357 469 LINE",
"376 480 LINE",
"87 499 LINE"
);
},
{
closed = 1;
nodes = (
"153 290 LINE",
"160 305 LINE",
"110 476 LINE",
"87 499 LINE"
);
},
{
closed = 1;
nodes = (
"153 290 LINE",
"228 300 LINE",
"213 321 LINE",
"160 305 LINE"
);
},
{
closed = 1;
nodes = (
"213 321 LINE",
"228 300 LINE",
"176 594 LINE",
"155 578 LINE"
);
},
{
closed = 1;
nodes = (
"38 580 LINE",
"155 578 LINE",
"176 594 LINE",
"10 599 LINE"
);
}
);
width = 450;
},
{
associatedMasterId = "9FEBDF96-C5A3-469C-9009-8CF8388B2B9F";
layerId = "0198597E-99FE-4771-A174-77C643224CAF";
name = "Dec 16 21, 21:01";
paths = (
{
closed = 1;
nodes = (
"25 284 LINE",
"125 259 LINE",
"125 575 LINE",
"25 600 LINE"
);
},
{
closed = 1;
nodes = (
"25 0 LINE",
"125 0 LINE",
"125 246 LINE",
"25 246 LINE"
);
},
{
closed = 1;
nodes = (
"75 174 LINE",
"325 174 LINE",
"325 247 LINE",
"75 309 LINE"
);
},
{
closed = 1;
nodes = (
"311 0 LINE",
"425 0 LINE",
"425 136 LINE",
"225 187 LINE",
"225 0 LINE"
);
},
{
closed = 1;
nodes = (
"375 135 LINE",
"375 174 LINE",
"425 174 LINE",
"425 500 LINE",
"225 550 LINE",
"225 187 LINE"
);
}
);
width = 450;
}
);
unicode = 0058;
},
{
glyphname = Y;
lastChange = "2021-12-17 08:02:35 +0000";
layers = (
{
background = {
paths = (
{
closed = 1;
nodes = (
"125 174 LINE",
"125 0 LINE",
"325 0 LINE",
"325 136 LINE",
"275 149 LINE",
"275 174 LINE",
"425 174 LINE",
"425 500 LINE",
"225 550 LINE",
"225 271 LINE",
"125 296 LINE",
"125 575 LINE",
"25 600 LINE",
"25 174 LINE"
);
}
);
};
components = (
{
name = _eye;
transform = "{1, 0, 0, 1, 301, 21}";
},
{
name = _eye;
transform = "{1, 0, 0, 1, 75, 21}";
}
);
layerId = "9FEBDF96-C5A3-469C-9009-8CF8388B2B9F";
paths = (
{
closed = 1;
nodes = (
"25 174 LINE",
"61 174 LINE",
"73 588 LINE",
"25 600 LINE"
);
},
{
closed = 1;
nodes = (
"25 217 LINE",
"425 188 LINE",
"425 225 LINE",
"25 225 LINE"
);
},
{
closed = 1;
nodes = (
"125 0 LINE",
"167 0 LINE",
"177 283 LINE",
"125 296 LINE"
);
},
{
closed = 1;
nodes = (
"125 0 LINE",
"325 0 LINE",
"325 11 LINE",
"125 10 LINE"
);
},
{
closed = 1;
nodes = (
"161 0 LINE",
"232 0 LINE",
"225 271 LINE",
"165 286 LINE"
);
},
{
closed = 1;
nodes = (
"125 67 LINE",
"325 27 LINE",
"325 52 LINE",
"125 102 LINE"
);
},
{
closed = 1;
nodes = (
"225 0 LINE",
"275 0 LINE",
"279 535 LINE",
"225 550 LINE"
);
},
{
closed = 1;
nodes = (
"125 36 LINE",
"325 22 LINE",
"325 31 LINE",
"125 52 LINE"
);
},
{
closed = 1;
nodes = (
"265 0 LINE",
"325 0 LINE",
"325 136 LINE",
"275 149 LINE"
);
},
{
closed = 1;
nodes = (
"25 174 LINE",
"425 174 LINE",
"425 196 LINE",
"25 217 LINE"
);
},
{
closed = 1;
nodes = (
"372 174 LINE",
"425 174 LINE",
"425 500 LINE",
"361 516 LINE"
);
},
{
closed = 1;
nodes = (
"25 268 LINE",
"425 240 LINE",
"425 247 LINE",
"25 289 LINE"
);
},
{
closed = 1;
nodes = (
"275 174 LINE",
"320 174 LINE",
"337 522 LINE",
"225 550 LINE"
);
},
{
closed = 1;
nodes = (
"125 144 LINE",
"325 82 LINE",
"325 136 LINE",
"125 188 LINE"
);
},
{
closed = 1;
nodes = (
"311 174 LINE",
"392 174 LINE",
"369 514 LINE",
"329 524 LINE"
);
},
{
closed = 1;
nodes = (
"25 232 LINE",
"425 209 LINE",
"425 217 LINE",
"25 251 LINE"
);
},
{
closed = 1;
nodes = (
"54 174 LINE",
"105 174 LINE",
"105 580 LINE",
"69 589 LINE"
);
},
{
closed = 1;
nodes = (
"125 91 LINE",
"325 44 LINE",
"325 94 LINE",
"125 138 LINE"
);
},
{
closed = 1;
nodes = (
"102 174 LINE",
"125 174 LINE",
"125 575 LINE",
"97 582 LINE"
);
},
{
closed = 1;
nodes = (
"25 265 LINE",
"425 232 LINE",
"425 242 LINE",
"25 279 LINE"
);
}
);
width = 450;
},
{
components = (
{
name = _eye;
transform = "{1, 0, 0, 1, 284, 21}";
},
{
name = _eye;
transform = "{1, 0, 0, 1, 153, 21}";
}
);
layerId = "F1DD319B-D5A5-4BA6-A343-EFA3D63A9498";
paths = (
{
closed = 1;
nodes = (
"49 351 LINE",
"62 359 LINE",
"45 580 LINE",
"25 594 LINE"
);
},
{
closed = 1;
nodes = (
"49 351 LINE",
"159 272 LINE",
"183 289 LINE",
"62 359 LINE"
);
},
{
closed = 1;
nodes = (
"159 0 LINE",
"177 24 LINE",
"183 289 LINE",
"159 272 LINE"
);
},
{
closed = 1;
nodes = (
"159 0 LINE",
"237 4 LINE",
"223 27 LINE",
"177 24 LINE"
);
},
{
closed = 1;
nodes = (
"223 27 LINE",
"237 4 LINE",
"238 269 LINE",
"226 281 LINE"
);
},
{
closed = 1;
nodes = (
"238 269 LINE",
"255 270 LINE",
"275 289 LINE",
"226 281 LINE"
);
},
{
closed = 1;
nodes = (
"262 1 LINE",
"284 23 LINE",
"275 289 LINE",
"255 270 LINE"
);
},
{
closed = 1;
nodes = (
"262 1 LINE",
"333 7 LINE",
"309 30 LINE",
"284 23 LINE"
);
},
{
closed = 1;
nodes = (
"309 30 LINE",
"333 7 LINE",
"323 269 LINE",
"305 277 LINE"
);
},
{
closed = 1;
nodes = (
"323 269 LINE",
"425 359 LINE",
"406 367 LINE",
"305 277 LINE"
);
},
{
closed = 1;
nodes = (
"406 367 LINE",
"425 359 LINE",
"393 598 LINE",
"373 586 LINE"
);
},
{
closed = 1;
nodes = (
"245 583 LINE",
"373 586 LINE",
"393 598 LINE",
"229 598 LINE"
);
},
{
closed = 1;
nodes = (
"247 363 LINE",
"262 379 LINE",
"245 583 LINE",
"229 598 LINE"
);
},
{
closed = 1;
nodes = (
"247 363 LINE",
"362 368 LINE",
"333 387 LINE",
"262 379 LINE"
);
},
{
closed = 1;
nodes = (
"333 387 LINE",
"362 368 LINE",
"321 540 LINE",
"307 524 LINE"
);
},
{
closed = 1;
nodes = (
"124 514 LINE",
"307 524 LINE",
"321 540 LINE",
"100 533 LINE"
);
},
{
closed = 1;
nodes = (
"116 367 LINE",
"131 386 LINE",
"124 514 LINE",
"100 533 LINE"
);
},
{
closed = 1;
nodes = (
"116 367 LINE",
"228 369 LINE",
"202 385 LINE",
"131 386 LINE"
);
},
{
closed = 1;
nodes = (
"202 385 LINE",
"228 369 LINE",
"180 597 LINE",
"166 579 LINE"
);
},
{
closed = 1;
nodes = (
"45 580 LINE",
"166 579 LINE",
"180 597 LINE",
"25 594 LINE"
);
}
);
width = 450;
},
{
associatedMasterId = "9FEBDF96-C5A3-469C-9009-8CF8388B2B9F";
layerId = "5E984DDA-4122-454E-8964-79ABAE46CEAB";
name = "Dec 16 21, 21:13";
paths = (
{
closed = 1;
nodes = (
"125 0 LINE",
"325 0 LINE",
"325 136 LINE",
"275 149 LINE",
"275 174 LINE",
"125 227 LINE"
);
},
{
closed = 1;
nodes = (
"425 174 LINE",
"425 500 LINE",
"225 550 LINE",
"225 174 LINE"
);
},
{
closed = 1;
nodes = (
"25 177 LINE",
"125 227 LINE",
"125 575 LINE",
"25 600 LINE"
);
},
{
closed = 1;
nodes = (
"425 222 LINE",
"25 321 LINE",
"25 174 LINE",
"425 174 LINE"
);
}
);
width = 450;
}
);
unicode = 0059;
},
{
glyphname = Z;
lastChange = "2021-12-16 23:00:47 +0000";
layers = (
{
background = {
paths = (
{
closed = 1;
nodes = (
"425 0 LINE",
"425 73 LINE",
"125 148 LINE",
"125 174 LINE",
"425 174 LINE",
"425 500 LINE",
"25 600 LINE",
"25 351 LINE",
"125 351 LINE",
"125 427 LINE",
"225 427 LINE",
"225 271 LINE",
"25 221 LINE",
"25 0 LINE"
);
}
);
};
components = (
{
name = _eye;
transform = "{1, 0, 0, 1, 221, 81}";
},
{
name = _eye;
transform = "{1, 0, 0, 1, 112, 81}";
}
);
layerId = "9FEBDF96-C5A3-469C-9009-8CF8388B2B9F";
paths = (
{
closed = 1;
nodes = (
"225 174 LINE",
"239 174 LINE",
"259 538 LINE",
"225 548 LINE"
);
},
{
closed = 1;
nodes = (
"25 174 LINE",
"425 174 LINE",
"425 253 LINE",
"25 195 LINE"
);
},
{
closed = 1;
nodes = (
"234 174 LINE",
"277 174 LINE",
"287 528 LINE",
"255 537 LINE"
);
},
{
closed = 1;
nodes = (
"25 476 LINE",
"425 448 LINE",
"425 459 LINE",
"25 496 LINE"
);
},
{
closed = 1;
nodes = (
"255 174 LINE",
"288 174 LINE",
"299 527 LINE",
"262 539 LINE"
);
},
{
closed = 1;
nodes = (
"25 184 LINE",
"425 224 LINE",
"425 241 LINE",
"25 204 LINE"
);
},
{
closed = 1;
nodes = (
"283 174 LINE",
"302 174 LINE",
"311 526 LINE",
"282 533 LINE"
);
},
{
closed = 1;
nodes = (
"25 447 LINE",
"425 440 LINE",
"425 452 LINE",
"25 480 LINE"
);
},
{
closed = 1;
nodes = (
"300 174 LINE",
"344 174 LINE",
"337 519 LINE",
"307 528 LINE"
);
},
{
closed = 1;
nodes = (
"25 191 LINE",
"425 236 LINE",
"425 304 LINE",
"25 212 LINE"
);
},
{
closed = 1;
nodes = (
"338 174 LINE",
"348 174 LINE",
"354 515 LINE",
"332 522 LINE"
);
},
{
closed = 1;
nodes = (
"25 435 LINE",
"425 432 LINE",
"425 443 LINE",
"25 451 LINE"
);
},
{
closed = 1;
nodes = (
"332 174 LINE",
"373 174 LINE",
"377 510 LINE",
"349 518 LINE"
);
},
{
closed = 1;
nodes = (
"25 188 LINE",
"425 297 LINE",
"425 321 LINE",
"25 221 LINE"
);
},
{
closed = 1;
nodes = (
"365 174 LINE",
"395 174 LINE",
"398 506 LINE",
"373 512 LINE"
);
},
{
closed = 1;
nodes = (
"25 427 LINE",
"425 427 LINE",
"425 435 LINE",
"25 440 LINE"
);
},
{
closed = 1;
nodes = (
"393 174 LINE",
"414 174 LINE",
"414 502 LINE",
"394 507 LINE"
);
},
{
closed = 1;
nodes = (
"25 141 LINE",
"425 33 LINE",
"425 73 LINE",
"25 173 LINE"
);
},
{
closed = 1;
nodes = (
"25 0 LINE",
"57 0 LINE",
"66 226 LINE",
"25 221 LINE"
);
},
{
closed = 1;
nodes = (
"25 0 LINE",
"425 0 LINE",
"425 21 LINE",
"25 50 LINE"
);
},
{
closed = 1;
nodes = (
"86 0 LINE",
"125 0 LINE",
"125 246 LINE",
"93 231 LINE"
);
},
{
closed = 1;
nodes = (
"25 44 LINE",
"425 6 LINE",
"425 69 LINE",
"25 64 LINE"
);
},
{
closed = 1;
nodes = (
"46 0 LINE",
"98 0 LINE",
"107 240 LINE",
"60 226 LINE"
);
},
{
closed = 1;
nodes = (
"25 60 LINE",
"425 44 LINE",
"425 58 LINE",
"25 147 LINE"
);
},
{
closed = 1;
nodes = (
"412 174 LINE",
"425 174 LINE",
"425 500 LINE",
"408 503 LINE"
);
},
{
closed = 1;
nodes = (
"25 513 LINE",
"425 462 LINE",
"425 483 LINE",
"25 552 LINE"
);
},
{
closed = 1;
nodes = (
"76 586 LINE",
"42 593 LINE",
"33 351 LINE",
"66 351 LINE"
);
},
{
closed = 1;
nodes = (
"425 462 LINE",
"25 511 LINE",
"25 492 LINE",
"425 455 LINE"
);
},
{
closed = 1;
nodes = (
"55 588 LINE",
"25 600 LINE",
"25 351 LINE",
"42 351 LINE"
);
},
{
closed = 1;
nodes = (
"425 500 LINE",
"25 600 LINE",
"25 564 LINE",
"425 476 LINE"
);
},
{
closed = 1;
nodes = (
"125 573 LINE",
"96 580 LINE",
"85 351 LINE",
"125 351 LINE"
);
},
{
closed = 1;
nodes = (
"425 466 LINE",
"25 516 LINE",
"25 508 LINE",
"425 448 LINE"
);
},
{
closed = 1;
nodes = (
"64 586 LINE",
"60 351 LINE",
"94 351 LINE",
"116 573 LINE"
);
},
{
closed = 1;
nodes = (
"25 548 LINE",
"425 469 LINE",
"425 480 LINE",
"25 571 LINE"
);
}
);
width = 450;
},
{
components = (
{
name = _eye;
transform = "{1, 0, 0, 1, 291, 151}";
},
{
name = _eye;
transform = "{1, 0, 0, 1, 182, 151}";
}
);
layerId = "F1DD319B-D5A5-4BA6-A343-EFA3D63A9498";
paths = (
{
closed = 1;
nodes = (
"51 327 LINE",
"65 348 LINE",
"60 574 LINE",
"38 595 LINE"
);
},
{
closed = 1;
nodes = (
"51 327 LINE",
"102 342 LINE",
"89 356 LINE",
"65 348 LINE"
);
},
{
closed = 1;
nodes = (
"89 356 LINE",
"102 342 LINE",
"104 476 LINE",
"90 494 LINE"
);
},
{
closed = 1;
nodes = (
"104 476 LINE",
"118 480 LINE",
"129 499 LINE",
"90 494 LINE"
);
},
{
closed = 1;
nodes = (
"114 346 LINE",
"129 366 LINE",
"129 499 LINE",
"118 480 LINE"
);
},
{
closed = 1;
nodes = (
"114 346 LINE",
"177 357 LINE",
"158 374 LINE",
"129 366 LINE"
);
},
{
closed = 1;
nodes = (
"158 374 LINE",
"177 357 LINE",
"166 482 LINE",
"155 497 LINE"
);
},
{
closed = 1;
nodes = (
"166 482 LINE",
"191 478 LINE",
"203 497 LINE",
"155 497 LINE"
);
},
{
closed = 1;
nodes = (
"191 359 LINE",
"209 378 LINE",
"203 497 LINE",
"191 478 LINE"
);
},
{
closed = 1;
nodes = (
"191 359 LINE",
"252 370 LINE",
"242 388 LINE",
"209 378 LINE"
);
},
{
closed = 1;
nodes = (
"242 388 LINE",
"252 370 LINE",
"252 486 LINE",
"242 497 LINE"
);
},
{
closed = 1;
nodes = (
"252 486 LINE",
"267 481 LINE",
"276 494 LINE",
"242 497 LINE"
);
},
{
closed = 1;
nodes = (
"271 376 LINE",
"287 393 LINE",
"276 494 LINE",
"267 481 LINE"
);
},
{
closed = 1;
nodes = (
"271 376 LINE",
"333 383 LINE",
"317 402 LINE",
"287 393 LINE"
);
},
{
closed = 1;
nodes = (
"317 402 LINE",
"333 383 LINE",
"328 486 LINE",
"317 499 LINE"
);
},
{
closed = 1;
nodes = (
"328 486 LINE",
"347 486 LINE",
"357 502 LINE",
"317 499 LINE"
);
},
{
closed = 1;
nodes = (
"348 359 LINE",
"369 336 LINE",
"357 502 LINE",
"347 486 LINE"
);
},
{
closed = 1;
nodes = (
"77 292 LINE",
"369 336 LINE",
"348 359 LINE",
"58 305 LINE"
);
},
{
closed = 1;
nodes = (
"25 -3 LINE",
"42 16 LINE",
"77 292 LINE",
"58 305 LINE"
);
},
{
closed = 1;
nodes = (
"25 -3 LINE",
"425 -1 LINE",
"401 23 LINE",
"42 16 LINE"
);
},
{
closed = 1;
nodes = (
"401 23 LINE",
"425 -1 LINE",
"389 229 LINE",
"374 207 LINE"
);
},
{
closed = 1;
nodes = (
"130 163 LINE",
"374 207 LINE",
"389 229 LINE",
"149 183 LINE"
);
},
{
closed = 1;
nodes = (
"130 163 LINE",
"149 183 LINE",
"158 213 LINE",
"142 231 LINE"
);
},
{
closed = 1;
nodes = (
"158 213 LINE",
"408 257 LINE",
"395 275 LINE",
"142 231 LINE"
);
},
{
closed = 1;
nodes = (
"395 275 LINE",
"408 257 LINE",
"425 589 LINE",
"401 572 LINE"
);
},
{
closed = 1;
nodes = (
"60 574 LINE",
"204 573 LINE",
"223 587 LINE",
"38 595 LINE"
);
},
{
closed = 1;
nodes = (
"223 587 LINE",
"204 573 LINE",
"211 527 LINE",
"231 516 LINE"
);
},
{
closed = 1;
nodes = (
"211 527 LINE",
"149 525 LINE",
"132 510 LINE",
"231 516 LINE"
);
},
{
closed = 1;
nodes = (
"155 596 LINE",
"142 608 LINE",
"132 510 LINE",
"149 525 LINE"
);
},
{
closed = 1;
nodes = (
"318 614 LINE",
"142 608 LINE",
"155 596 LINE",
"306 603 LINE"
);
},
{
closed = 1;
nodes = (
"318 614 LINE",
"306 603 LINE",
"321 530 LINE",
"345 513 LINE"
);
},
{
closed = 1;
nodes = (
"321 530 LINE",
"261 525 LINE",
"239 510 LINE",
"345 513 LINE"
);
},
{
closed = 1;
nodes = (
"248 589 LINE",
"239 510 LINE",
"261 525 LINE",
"261 577 LINE"
);
},
{
closed = 1;
nodes = (
"261 577 LINE",
"401 572 LINE",
"425 589 LINE",
"248 589 LINE"
);
}
);
width = 450;
},
{
associatedMasterId = "9FEBDF96-C5A3-469C-9009-8CF8388B2B9F";
components = (
{
alignment = -1;
name = _Lbottom;
transform = "{1, 0, 0, 1, 25, 427}";
},
{
name = _Lbottom;
transform = "{1, 0, 0, 1, 25, 0}";
}
);
layerId = "4C8172C3-7742-4B64-811C-E398F6C28A24";
name = "Dec 2 21, 09:11";
paths = (
{
closed = 1;
nodes = (
"425 228 LINE",
"425 439 LINE",
"225 439 LINE",
"225 228 LINE"
);
},
{
closed = 1;
nodes = (
"25 0 LINE",
"125 0 LINE",
"125 246 LINE",
"25 221 LINE"
);
},
{
closed = 1;
nodes = (
"338 300 LINE",
"25 221 LINE",
"25 174 LINE",
"425 174 LINE",
"425 300 LINE"
);
},
{
closed = 1;
nodes = (
"25 351 LINE",
"125 351 LINE",
"125 451 LINE",
"25 451 LINE"
);
}
);
width = 450;
}
);
unicode = 005A;
},
{
glyphname = a;
lastChange = "2021-12-19 10:32:45 +0000";
layers = (
{
background = {
paths = (
{
closed = 1;
nodes = (
"25 53 LINE",
"125 53 LINE",
"125 202 LINE",
"25 228 LINE"
);
},
{
closed = 1;
nodes = (
"25 174 LINE",
"325 174 LINE",
"325 247 LINE",
"112 300 LINE",
"25 300 LINE"
);
},
{
closed = 1;
nodes = (
"225 0 LINE",
"425 0 LINE",
"425 173 LINE",
"25 71 LINE",
"25 52 LINE"
);
},
{
closed = 1;
nodes = (
"425 351 LINE",
"425 389 LINE",
"25 490 LINE",
"25 351 LINE"
);
},
{
closed = 1;
nodes = (
"425 0 LINE",
"425 389 LINE",
"225 439 LINE",
"225 0 LINE"
);
}
);
};
components = (
{
name = _eye;
transform = "{1, 0, 0, 1, 194, -8}";
},
{
name = _eye;
transform = "{1, 0, 0, 1, 123, -3}";
}
);
layerId = "9FEBDF96-C5A3-469C-9009-8CF8388B2B9F";
paths = (
{
closed = 1;
nodes = (
"225 0 LINE",
"425 0 LINE",
"425 57 LINE",
"25 63 LINE",
"25 52 LINE"
);
},
{
closed = 1;
nodes = (
"93 36 LINE",
"70 300 LINE",
"42 300 LINE",
"48 48 LINE"
);
},
{
closed = 1;
nodes = (
"369 400 LINE",
"390 0 LINE",
"425 0 LINE",
"425 389 LINE"
);
},
{
closed = 1;
nodes = (
"25 67 LINE",
"25 58 LINE",
"425 40 LINE",
"425 96 LINE"
);
},
{
closed = 1;
nodes = (
"25 237 LINE",
"25 174 LINE",
"425 174 LINE",
"425 200 LINE"
);
},
{
closed = 1;
nodes = (
"65 300 LINE",
"75 43 LINE",
"125 27 LINE",
"125 254 LINE"
);
},
{
closed = 1;
nodes = (
"25 71 LINE",
"25 58 LINE",
"425 76 LINE",
"425 173 LINE"
);
},
{
closed = 1;
nodes = (
"287 421 LINE",
"311 0 LINE",
"335 0 LINE",
"331 410 LINE"
);
},
{
closed = 1;
nodes = (
"25 422 LINE",
"25 351 LINE",
"425 351 LINE",
"425 371 LINE"
);
},
{
closed = 1;
nodes = (
"253 427 LINE",
"249 0 LINE",
"318 0 LINE",
"302 417 LINE"
);
},
{
closed = 1;
nodes = (
"25 265 LINE",
"25 215 LINE",
"425 187 LINE",
"425 219 LINE"
);
},
{
closed = 1;
nodes = (
"316 414 LINE",
"331 0 LINE",
"399 0 LINE",
"381 396 LINE"
);
},
{
closed = 1;
nodes = (
"25 490 LINE",
"25 406 LINE",
"425 363 LINE",
"425 389 LINE"
);
},
{
closed = 1;
nodes = (
"25 300 LINE",
"25 52 LINE",
"63 44 LINE",
"45 300 LINE"
);
},
{
closed = 1;
nodes = (
"112 300 LINE",
"25 300 LINE",
"25 254 LINE",
"425 204 LINE",
"425 223 LINE"
);
},
{
closed = 1;
nodes = (
"225 436 LINE",
"225 0 LINE",
"270 0 LINE",
"270 425 LINE"
);
}
);
width = 450;
},
{
components = (
{
name = _eye;
transform = "{1, 0, 0, 1, 364, -108}";
},
{
name = _eye;
transform = "{1, 0, 0, 1, 293, -103}";
}
);
layerId = "F1DD319B-D5A5-4BA6-A343-EFA3D63A9498";
paths = (
{
closed = 1;
nodes = (
"224 4 LINE",
"425 5 LINE",
"407 23 LINE",
"52 25 LINE",
"28 4 LINE"
);
},
{
closed = 1;
nodes = (
"52 25 LINE",
"52 217 LINE",
"34 238 LINE",
"28 4 LINE"
);
},
{
closed = 1;
nodes = (
"404 148 LINE",
"407 23 LINE",
"425 5 LINE",
"425 167 LINE"
);
},
{
closed = 1;
nodes = (
"101 96 LINE",
"83 80 LINE",
"374 69 LINE",
"355 94 LINE"
);
},
{
closed = 1;
nodes = (
"34 238 LINE",
"52 217 LINE",
"240 194 LINE",
"217 219 LINE"
);
},
{
closed = 1;
nodes = (
"78 176 LINE",
"83 80 LINE",
"101 96 LINE",
"102 160 LINE"
);
},
{
closed = 1;
nodes = (
"78 176 LINE",
"102 160 LINE",
"404 148 LINE",
"425 167 LINE"
);
},
{
closed = 1;
nodes = (
"319 371 LINE",
"355 94 LINE",
"374 69 LINE",
"339 381 LINE"
);
},
{
closed = 1;
nodes = (
"248 395 LINE",
"267 377 LINE",
"319 371 LINE",
"339 381 LINE"
);
},
{
closed = 1;
nodes = (
"248 395 LINE",
"262 242 LINE",
"280 261 LINE",
"267 377 LINE"
);
},
{
closed = 1;
nodes = (
"280 261 LINE",
"262 242 LINE",
"422 234 LINE",
"402 254 LINE"
);
},
{
closed = 1;
nodes = (
"382 435 LINE",
"402 254 LINE",
"422 234 LINE",
"396 450 LINE"
);
},
{
closed = 1;
nodes = (
"25 445 LINE",
"41 427 LINE",
"382 435 LINE",
"396 450 LINE"
);
},
{
closed = 1;
nodes = (
"25 445 LINE",
"26 315 LINE",
"49 343 LINE",
"41 427 LINE"
);
},
{
closed = 1;
nodes = (
"135 360 LINE",
"49 343 LINE",
"26 315 LINE",
"198 353 LINE",
"214 375 LINE"
);
},
{
closed = 1;
nodes = (
"198 353 LINE",
"217 219 LINE",
"240 194 LINE",
"214 375 LINE"
);
}
);
width = 450;
},
{
associatedMasterId = "9FEBDF96-C5A3-469C-9009-8CF8388B2B9F";
components = (
{
name = _atop;
transform = "{1, 0, 0, 1, 25, -10}";
},
{
name = _aright;
transform = "{1, 0, 0, 1, 225, 0}";
}
);
layerId = "7C96894E-EB85-4FA7-BBF8-022A40B3F26D";
name = "Dec 17 21, 21:31";
paths = (
{
closed = 1;
nodes = (
"25 53 LINE",
"125 53 LINE",
"125 202 LINE",
"25 228 LINE"
);
},
{
closed = 1;
nodes = (
"25 174 LINE",
"325 174 LINE",
"325 247 LINE",
"112 300 LINE",
"25 300 LINE"
);
},
{
closed = 1;
nodes = (
"225 0 LINE",
"425 0 LINE",
"425 173 LINE",
"25 71 LINE",
"25 52 LINE"
);
}
);
width = 450;
}
);
unicode = 0061;
},
{
glyphname = b;
lastChange = "2021-12-17 20:46:04 +0000";
layers = (
{
background = {
paths = (
{
closed = 1;
nodes = (
"425 52 LINE",
"425 389 LINE",
"225 439 LINE",
"225 0 LINE"
);
},
{
closed = 1;
nodes = (
"425 71 LINE",
"25 173 LINE",
"25 0 LINE",
"225 0 LINE",
"425 52 LINE"
);
},
{
closed = 1;
nodes = (
"25 0 LINE",
"125 0 LINE",
"125 574 LINE",
"25 600 LINE"
);
},
{
closed = 1;
nodes = (
"425 351 LINE",
"425 389 LINE",
"25 490 LINE",
"25 351 LINE"
);
}
);
};
components = (
{
name = _eye;
transform = "{1, 0, 0, 1, 79, -9}";
},
{
name = _eye;
transform = "{1, 0, 0, 1, 224, -9}";
}
);
layerId = "9FEBDF96-C5A3-469C-9009-8CF8388B2B9F";
paths = (
{
closed = 1;
nodes = (
"48 0 LINE",
"56 592 LINE",
"25 600 LINE",
"25 0 LINE"
);
},
{
closed = 1;
nodes = (
"225 0 LINE",
"425 52 LINE",
"425 67 LINE",
"25 67 LINE",
"25 0 LINE"
);
},
{
closed = 1;
nodes = (
"385 44 LINE",
"385 397 LINE",
"366 402 LINE",
"364 40 LINE"
);
},
{
closed = 1;
nodes = (
"425 52 LINE",
"425 389 LINE",
"306 412 LINE",
"324 33 LINE"
);
},
{
closed = 1;
nodes = (
"425 351 LINE",
"425 375 LINE",
"25 423 LINE",
"25 351 LINE"
);
},
{
closed = 1;
nodes = (
"295 23 LINE",
"281 421 LINE",
"225 435 LINE",
"225 0 LINE"
);
},
{
closed = 1;
nodes = (
"425 61 LINE",
"425 71 LINE",
"25 173 LINE",
"25 98 LINE"
);
},
{
closed = 1;
nodes = (
"340 33 LINE",
"327 412 LINE",
"259 426 LINE",
"284 23 LINE"
);
},
{
closed = 1;
nodes = (
"425 371 LINE",
"425 384 LINE",
"25 411 LINE",
"25 381 LINE"
);
},
{
closed = 1;
nodes = (
"91 0 LINE",
"94 582 LINE",
"52 593 LINE",
"44 0 LINE"
);
},
{
closed = 1;
nodes = (
"425 55 LINE",
"425 67 LINE",
"25 114 LINE",
"25 53 LINE"
);
},
{
closed = 1;
nodes = (
"125 0 LINE",
"125 574 LINE",
"79 586 LINE",
"83 0 LINE"
);
},
{
closed = 1;
nodes = (
"425 380 LINE",
"425 389 LINE",
"25 490 LINE",
"25 403 LINE"
);
}
);
width = 450;
},
{
components = (
{
name = _eye;
transform = "{1, 0, 0, 1, 126, -126}";
},
{
name = _eye;
transform = "{1, 0, 0, 1, 271, -126}";
}
);
layerId = "F1DD319B-D5A5-4BA6-A343-EFA3D63A9498";
paths = (
{
closed = 1;
nodes = (
"48 24 LINE",
"43 587 LINE",
"27 602 LINE",
"25 1 LINE"
);
},
{
closed = 1;
nodes = (
"185 3 LINE",
"413 6 LINE",
"392 27 LINE",
"48 24 LINE",
"25 1 LINE"
);
},
{
closed = 1;
nodes = (
"413 6 LINE",
"425 246 LINE",
"409 245 LINE",
"392 27 LINE"
);
},
{
closed = 1;
nodes = (
"425 246 LINE",
"393 392 LINE",
"375 371 LINE",
"409 245 LINE"
);
},
{
closed = 1;
nodes = (
"375 371 LINE",
"393 392 LINE",
"231 384 LINE",
"251 364 LINE"
);
},
{
closed = 1;
nodes = (
"250 225 LINE",
"251 364 LINE",
"231 384 LINE",
"234 209 LINE"
);
},
{
closed = 1;
nodes = (
"341 209 LINE",
"322 228 LINE",
"250 225 LINE",
"234 209 LINE"
);
},
{
closed = 1;
nodes = (
"341 209 LINE",
"311 443 LINE",
"295 426 LINE",
"322 228 LINE"
);
},
{
closed = 1;
nodes = (
"295 426 LINE",
"311 443 LINE",
"84 452 LINE",
"103 430 LINE"
);
},
{
closed = 1;
nodes = (
"104 171 LINE",
"103 430 LINE",
"84 452 LINE",
"88 153 LINE"
);
},
{
closed = 1;
nodes = (
"196 155 LINE",
"177 175 LINE",
"104 171 LINE",
"88 153 LINE"
);
},
{
closed = 1;
nodes = (
"196 155 LINE",
"148 606 LINE",
"131 588 LINE",
"177 175 LINE"
);
},
{
closed = 1;
nodes = (
"131 588 LINE",
"148 606 LINE",
"27 602 LINE",
"43 587 LINE"
);
}
);
width = 450;
},
{
associatedMasterId = "9FEBDF96-C5A3-469C-9009-8CF8388B2B9F";
components = (
{
alignment = -1;
name = _Ileft;
transform = "{1, 0, 0, 1, 25, 0}";
},
{
name = _atop;
transform = "{1, 0, 0, 1, 25, -10}";
}
);
layerId = "1A8677A9-3D2E-4AA4-B0FF-82DD36DBD2AC";
name = "Dec 17 21, 21:31";
paths = (
{
closed = 1;
nodes = (
"425 52 LINE",
"425 389 LINE",
"225 439 LINE",
"225 0 LINE"
);
},
{
closed = 1;
nodes = (
"425 71 LINE",
"25 173 LINE",
"25 0 LINE",
"225 0 LINE",
"425 52 LINE"
);
}
);
width = 450;
}
);
unicode = 0062;
},
{
glyphname = c;
lastChange = "2021-12-23 09:01:56 +0000";
layers = (
{
background = {
paths = (
{
closed = 1;
nodes = (
"425 227 LINE",
"425 389 LINE",
"225 439 LINE",
"225 227 LINE"
);
},
{
closed = 1;
nodes = (
"225 0 LINE",
"425 52 LINE",
"425 176 LINE",
"25 75 LINE",
"25 0 LINE"
);
},
{
closed = 1;
nodes = (
"25 0 LINE",
"125 0 LINE",
"125 465 LINE",
"25 490 LINE"
);
},
{
closed = 1;
nodes = (
"425 351 LINE",
"425 389 LINE",
"25 490 LINE",
"25 351 LINE"
);
}
);
};
components = (
{
name = _eye;
transform = "{1, 0, 0, 1, 358, -96}";
},
{
name = _eye;
transform = "{1, 0, 0, 1, 288, -107}";
}
);
layerId = "9FEBDF96-C5A3-469C-9009-8CF8388B2B9F";
paths = (
{
closed = 1;
nodes = (
"88 0 LINE",
"88 469 LINE",
"25 490 LINE",
"25 0 LINE"
);
},
{
closed = 1;
nodes = (
"125 0 LINE",
"125 457 LINE",
"60 467 LINE",
"68 0 LINE"
);
},
{
closed = 1;
nodes = (
"425 92 LINE",
"425 138 LINE",
"25 62 LINE",
"25 29 LINE"
);
},
{
closed = 1;
nodes = (
"107 460 LINE",
"60 470 LINE",
"50 1 LINE",
"100 1 LINE"
);
},
{
closed = 1;
nodes = (
"425 351 LINE",
"425 368 LINE",
"25 416 LINE",
"25 351 LINE"
);
},
{
closed = 1;
nodes = (
"425 127 LINE",
"425 176 LINE",
"25 75 LINE",
"25 19 LINE"
);
},
{
closed = 1;
nodes = (
"333 227 LINE",
"298 416 LINE",
"225 433 LINE",
"225 227 LINE"
);
},
{
closed = 1;
nodes = (
"333 409 LINE",
"356 227 LINE",
"425 227 LINE",
"425 389 LINE"
);
},
{
closed = 1;
nodes = (
"425 389 LINE",
"25 490 LINE",
"25 386 LINE",
"425 356 LINE"
);
},
{
closed = 1;
nodes = (
"225 0 LINE",
"425 52 LINE",
"425 109 LINE",
"25 48 LINE",
"25 0 LINE"
);
},
{
closed = 1;
nodes = (
"370 227 LINE",
"398 389 LINE",
"277 420 LINE",
"283 227 LINE"
);
}
);
width = 450;
},
{
components = (
{
name = _eye;
transform = "{1, 0, 0, 1, 322, -77}";
},
{
name = _eye;
transform = "{1, 0, 0, 1, 252, -88}";
}
);
layerId = "F1DD319B-D5A5-4BA6-A343-EFA3D63A9498";
paths = (
{
closed = 1;
nodes = (
"65 25 LINE",
"43 431 LINE",
"24 453 LINE",
"49 9 LINE"
);
},
{
closed = 1;
nodes = (
"130 179 LINE",
"102 356 LINE",
"84 371 LINE",
"113 157 LINE"
);
},
{
closed = 1;
nodes = (
"407 199 LINE",
"425 221 LINE",
"130 179 LINE",
"113 157 LINE"
);
},
{
closed = 1;
nodes = (
"425 221 LINE",
"407 199 LINE",
"391 50 LINE",
"413 29 LINE"
);
},
{
closed = 1;
nodes = (
"293 373 LINE",
"309 389 LINE",
"84 371 LINE",
"102 356 LINE"
);
},
{
closed = 1;
nodes = (
"383 245 LINE",
"370 264 LINE",
"307 260 LINE",
"289 234 LINE"
);
},
{
closed = 1;
nodes = (
"307 260 LINE",
"309 389 LINE",
"293 373 LINE",
"289 234 LINE"
);
},
{
closed = 1;
nodes = (
"389 387 LINE",
"370 264 LINE",
"383 245 LINE",
"411 386 LINE"
);
},
{
closed = 1;
nodes = (
"425 455 LINE",
"24 453 LINE",
"43 431 LINE",
"397 435 LINE"
);
},
{
closed = 1;
nodes = (
"225 5 LINE",
"413 29 LINE",
"391 50 LINE",
"65 25 LINE",
"49 9 LINE"
);
},
{
closed = 1;
nodes = (
"411 386 LINE",
"425 455 LINE",
"397 435 LINE",
"389 387 LINE"
);
}
);
width = 450;
},
{
associatedMasterId = "F1DD319B-D5A5-4BA6-A343-EFA3D63A9498";
layerId = "AB1DE318-77E3-45DE-AE32-8D49F617BAB3";
name = "Dec 12 21, 10:18";
paths = (
{
closed = 1;
nodes = (
"50 7 LINE",
"57 18 LINE",
"39 458 LINE",
"23 473 LINE"
);
},
{
closed = 1;
nodes = (
"50 7 LINE",
"425 7 LINE",
"406 22 LINE",
"57 18 LINE"
);
},
{
closed = 1;
nodes = (
"91 126 LINE",
"108 145 LINE",
"95 340 LINE",
"87 351 LINE"
);
},
{
closed = 1;
nodes = (
"91 126 LINE",
"409 144 LINE",
"419 152 LINE",
"108 145 LINE"
);
},
{
closed = 1;
nodes = (
"114 225 LINE",
"145 233 LINE",
"137 244 LINE",
"122 246 LINE"
);
},
{
closed = 1;
nodes = (
"114 225 LINE",
"122 246 LINE",
"118 357 LINE",
"112 348 LINE"
);
},
{
closed = 1;
nodes = (
"95 340 LINE",
"112 348 LINE",
"118 357 LINE",
"87 351 LINE"
);
},
{
closed = 1;
nodes = (
"406 22 LINE",
"425 7 LINE",
"419 152 LINE",
"409 144 LINE"
);
},
{
closed = 1;
nodes = (
"185 238 LINE",
"215 233 LINE",
"207 250 LINE",
"192 246 LINE"
);
},
{
closed = 1;
nodes = (
"137 244 LINE",
"145 233 LINE",
"152 361 LINE",
"144 370 LINE"
);
},
{
closed = 1;
nodes = (
"185 238 LINE",
"192 246 LINE",
"169 370 LINE",
"166 363 LINE"
);
},
{
closed = 1;
nodes = (
"72 387 LINE",
"95 405 LINE",
"89 442 LINE",
"79 452 LINE"
);
},
{
closed = 1;
nodes = (
"152 361 LINE",
"166 363 LINE",
"169 370 LINE",
"144 370 LINE"
);
},
{
closed = 1;
nodes = (
"207 250 LINE",
"215 233 LINE",
"231 344 LINE",
"226 375 LINE"
);
},
{
closed = 1;
nodes = (
"249 231 LINE",
"302 222 LINE",
"293 238 LINE",
"258 246 LINE"
);
},
{
closed = 1;
nodes = (
"249 231 LINE",
"258 246 LINE",
"246 375 LINE",
"240 344 LINE"
);
},
{
closed = 1;
nodes = (
"138 416 LINE",
"161 412 LINE",
"161 422 LINE",
"138 425 LINE"
);
},
{
closed = 1;
nodes = (
"39 458 LINE",
"208 473 LINE",
"213 494 LINE",
"23 473 LINE"
);
},
{
closed = 1;
nodes = (
"231 344 LINE",
"240 344 LINE",
"246 375 LINE",
"226 375 LINE"
);
},
{
closed = 1;
nodes = (
"89 442 LINE",
"221 439 LINE",
"201 445 LINE",
"79 452 LINE"
);
},
{
closed = 1;
nodes = (
"293 238 LINE",
"302 222 LINE",
"314 340 LINE",
"308 375 LINE"
);
},
{
closed = 1;
nodes = (
"72 387 LINE",
"374 394 LINE",
"351 407 LINE",
"95 405 LINE"
);
},
{
closed = 1;
nodes = (
"357 256 LINE",
"381 256 LINE",
"381 265 LINE",
"357 265 LINE"
);
},
{
closed = 1;
nodes = (
"247 482 LINE",
"223 498 LINE",
"237 443 LINE",
"244 461 LINE"
);
},
{
closed = 1;
nodes = (
"357 256 LINE",
"357 265 LINE",
"325 375 LINE",
"325 343 LINE"
);
},
{
closed = 1;
nodes = (
"314 340 LINE",
"325 343 LINE",
"325 375 LINE",
"308 375 LINE"
);
},
{
closed = 1;
nodes = (
"208 473 LINE",
"213 494 LINE",
"221 439 LINE",
"201 445 LINE"
);
},
{
closed = 1;
nodes = (
"244 461 LINE",
"373 423 LINE",
"348 424 LINE",
"237 443 LINE"
);
},
{
closed = 1;
nodes = (
"283 414 LINE",
"313 416 LINE",
"311 428 LINE",
"288 424 LINE"
);
},
{
closed = 1;
nodes = (
"381 265 LINE",
"381 256 LINE",
"446 469 LINE",
"423 463 LINE"
);
},
{
closed = 1;
nodes = (
"247 482 LINE",
"423 463 LINE",
"446 469 LINE",
"223 498 LINE"
);
},
{
closed = 1;
nodes = (
"351 407 LINE",
"374 394 LINE",
"373 423 LINE",
"348 424 LINE"
);
}
);
width = 470;
},
{
associatedMasterId = "9FEBDF96-C5A3-469C-9009-8CF8388B2B9F";
components = (
{
alignment = -1;
name = _Cbottom;
transform = "{1, 0, 0, 1, 25, 0}";
},
{
name = _cleft;
transform = "{1, 0, 0, 1, 25, 0}";
},
{
name = _atop;
transform = "{1, 0, 0, 1, 25, -10}";
}
);
layerId = "8C3C6758-69FE-4995-966C-C6A58F5D00DB";
name = "Dec 17 21, 21:31";
paths = (
{
closed = 1;
nodes = (
"425 227 LINE",
"425 389 LINE",
"225 439 LINE",
"225 227 LINE"
);
}
);
width = 450;
}
);
unicode = 0063;
},
{
glyphname = d;
lastChange = "2021-12-23 12:00:51 +0000";
layers = (
{
background = {
paths = (
{
closed = 1;
nodes = (
"425 71 LINE",
"25 173 LINE",
"25 50 LINE",
"225 0 LINE",
"425 52 LINE"
);
},
{
closed = 1;
nodes = (
"25 50 LINE",
"125 50 LINE",
"125 367 LINE",
"25 367 LINE"
);
},
{
closed = 1;
nodes = (
"425 0 LINE",
"425 499 LINE",
"225 549 LINE",
"225 0 LINE"
);
},
{
closed = 1;
nodes = (
"425 351 LINE",
"425 389 LINE",
"25 490 LINE",
"25 351 LINE"
);
}
);
};
components = (
{
name = _eye;
transform = "{-1, 0, 0, 1, 247, -5}";
},
{
name = _eye;
transform = "{-1, 0, 0, 1, 113, -5}";
}
);
layerId = "9FEBDF96-C5A3-469C-9009-8CF8388B2B9F";
paths = (
{
closed = 1;
nodes = (
"425 499 LINE",
"365 514 LINE",
"358 37 LINE",
"425 52 LINE"
);
},
{
closed = 1;
nodes = (
"425 62 LINE",
"197 71 LINE",
"25 119 LINE",
"25 50 LINE",
"225 0 LINE",
"425 52 LINE"
);
},
{
closed = 1;
nodes = (
"125 462 LINE",
"75 472 LINE",
"74 42 LINE",
"125 29 LINE"
);
},
{
closed = 1;
nodes = (
"81 472 LINE",
"25 490 LINE",
"25 50 LINE",
"74 42 LINE"
);
},
{
closed = 1;
nodes = (
"425 376 LINE",
"25 407 LINE",
"25 351 LINE",
"425 351 LINE"
);
},
{
closed = 1;
nodes = (
"385 509 LINE",
"317 526 LINE",
"317 27 LINE",
"369 39 LINE"
);
},
{
closed = 1;
nodes = (
"425 71 LINE",
"25 173 LINE",
"25 71 LINE",
"425 58 LINE"
);
},
{
closed = 1;
nodes = (
"225 549 LINE",
"225 0 LINE",
"270 13 LINE",
"289 533 LINE"
);
},
{
closed = 1;
nodes = (
"425 389 LINE",
"25 490 LINE",
"25 392 LINE",
"425 365 LINE"
);
},
{
closed = 1;
nodes = (
"325 29 LINE",
"325 524 LINE",
"257 541 LINE",
"259 13 LINE"
);
}
);
width = 450;
},
{
components = (
{
name = _eye;
transform = "{-1, 0, 0, 1, 284, -126}";
},
{
name = _eye;
transform = "{-1, 0, 0, 1, 150, -126}";
}
);
layerId = "F1DD319B-D5A5-4BA6-A343-EFA3D63A9498";
paths = (
{
closed = 1;
nodes = (
"423 602 LINE",
"402 580 LINE",
"410 20 LINE",
"425 5 LINE"
);
},
{
closed = 1;
nodes = (
"410 20 LINE",
"253 21 LINE",
"58 22 LINE",
"37 1 LINE",
"273 3 LINE",
"425 5 LINE"
);
},
{
closed = 1;
nodes = (
"43 241 LINE",
"25 246 LINE",
"37 1 LINE",
"58 22 LINE"
);
},
{
closed = 1;
nodes = (
"117 442 LINE",
"101 459 LINE",
"25 246 LINE",
"43 241 LINE"
);
},
{
closed = 1;
nodes = (
"366 468 LINE",
"101 459 LINE",
"117 442 LINE",
"347 446 LINE"
);
},
{
closed = 1;
nodes = (
"366 468 LINE",
"347 446 LINE",
"348 169 LINE",
"362 153 LINE"
);
},
{
closed = 1;
nodes = (
"348 169 LINE",
"211 174 LINE",
"193 155 LINE",
"362 153 LINE"
);
},
{
closed = 1;
nodes = (
"217 383 LINE",
"193 155 LINE",
"211 174 LINE",
"235 385 LINE"
);
},
{
closed = 1;
nodes = (
"423 602 LINE",
"241 606 LINE",
"258 588 LINE",
"402 580 LINE"
);
},
{
closed = 1;
nodes = (
"235 385 LINE",
"258 588 LINE",
"241 606 LINE",
"217 383 LINE"
);
}
);
width = 440;
},
{
associatedMasterId = "9FEBDF96-C5A3-469C-9009-8CF8388B2B9F";
components = (
{
alignment = -1;
name = _Hright;
transform = "{1, 0, 0, 1, 225, 0}";
},
{
name = _atop;
transform = "{1, 0, 0, 1, 25, -10}";
}
);
layerId = "D3324828-4BC1-4656-B238-92476D3581B3";
name = "Dec 17 21, 21:31";
paths = (
{
closed = 1;
nodes = (
"425 71 LINE",
"25 173 LINE",
"25 50 LINE",
"225 0 LINE",
"425 52 LINE"
);
},
{
closed = 1;
nodes = (
"25 50 LINE",
"125 50 LINE",
"125 367 LINE",
"25 367 LINE"
);
}
);
width = 450;
}
);
unicode = 0064;
},
{
glyphname = e;
lastChange = "2021-12-19 10:31:55 +0000";
layers = (
{
background = {
paths = (
{
closed = 1;
nodes = (
"325 174 LINE",
"425 174 LINE",
"425 390 LINE",
"225 440 LINE",
"225 174 LINE"
);
},
{
closed = 1;
nodes = (
"425 72 LINE",
"25 174 LINE",
"25 52 LINE",
"225 0 LINE",
"425 0 LINE"
);
},
{
closed = 1;
nodes = (
"25 52 LINE",
"125 52 LINE",
"125 367 LINE",
"25 367 LINE"
);
},
{
closed = 1;
nodes = (
"25 174 LINE",
"325 174 LINE",
"325 247 LINE",
"112 300 LINE",
"25 300 LINE"
);
},
{
closed = 1;
nodes = (
"425 351 LINE",
"425 389 LINE",
"25 490 LINE",
"25 351 LINE"
);
}
);
};
components = (
{
name = _eye;
transform = "{-1, 0, 0, 1, 262, -17}";
},
{
name = _eye;
transform = "{-1, 0, 0, 1, 134, -11}";
}
);
layerId = "9FEBDF96-C5A3-469C-9009-8CF8388B2B9F";
paths = (
{
closed = 1;
nodes = (
"25 52 LINE",
"75 41 LINE",
"48 482 LINE",
"25 490 LINE"
);
},
{
closed = 1;
nodes = (
"25 52 LINE",
"225 0 LINE",
"425 0 LINE",
"425 20 LINE",
"25 66 LINE"
);
},
{
closed = 1;
nodes = (
"408 174 LINE",
"425 174 LINE",
"425 390 LINE",
"403 393 LINE"
);
},
{
closed = 1;
nodes = (
"48 47 LINE",
"80 41 LINE",
"75 476 LINE",
"47 482 LINE"
);
},
{
closed = 1;
nodes = (
"25 456 LINE",
"425 370 LINE",
"425 390 LINE",
"25 490 LINE"
);
},
{
closed = 1;
nodes = (
"25 400 LINE",
"425 360 LINE",
"425 377 LINE",
"25 476 LINE"
);
},
{
closed = 1;
nodes = (
"25 276 LINE",
"425 207 LINE",
"425 222 LINE",
"25 322 LINE"
);
},
{
closed = 1;
nodes = (
"338 410 LINE",
"305 418 LINE",
"318 174 LINE",
"332 174 LINE"
);
},
{
closed = 1;
nodes = (
"118 32 LINE",
"113 466 LINE",
"89 472 LINE",
"88 38 LINE"
);
},
{
closed = 1;
nodes = (
"425 351 LINE",
"425 366 LINE",
"25 411 LINE",
"25 351 LINE"
);
},
{
closed = 1;
nodes = (
"25 443 LINE",
"425 356 LINE",
"425 383 LINE",
"25 463 LINE"
);
},
{
closed = 1;
nodes = (
"367 174 LINE",
"401 174 LINE",
"374 400 LINE",
"352 407 LINE"
);
},
{
closed = 1;
nodes = (
"25 104 LINE",
"425 32 LINE",
"425 72 LINE",
"25 174 LINE"
);
},
{
closed = 1;
nodes = (
"75 41 LINE",
"94 38 LINE",
"89 472 LINE",
"61 478 LINE"
);
},
{
closed = 1;
nodes = (
"108 34 LINE",
"125 28 LINE",
"125 464 LINE",
"101 469 LINE"
);
},
{
closed = 1;
nodes = (
"225 174 LINE",
"267 174 LINE",
"252 431 LINE",
"225 440 LINE"
);
},
{
closed = 1;
nodes = (
"25 191 LINE",
"425 183 LINE",
"425 199 LINE",
"25 263 LINE"
);
},
{
closed = 1;
nodes = (
"256 174 LINE",
"299 174 LINE",
"288 423 LINE",
"248 432 LINE"
);
},
{
closed = 1;
nodes = (
"25 63 LINE",
"425 12 LINE",
"425 48 LINE",
"25 97 LINE"
);
},
{
closed = 1;
nodes = (
"295 174 LINE",
"338 174 LINE",
"343 410 LINE",
"282 424 LINE"
);
},
{
closed = 1;
nodes = (
"25 174 LINE",
"425 174 LINE",
"425 190 LINE",
"25 210 LINE"
);
},
{
closed = 1;
nodes = (
"332 174 LINE",
"372 174 LINE",
"359 404 LINE",
"299 419 LINE"
);
},
{
closed = 1;
nodes = (
"25 128 LINE",
"425 54 LINE",
"425 66 LINE",
"25 160 LINE"
);
},
{
closed = 1;
nodes = (
"25 231 LINE",
"425 199 LINE",
"425 212 LINE",
"25 283 LINE"
);
},
{
closed = 1;
nodes = (
"359 174 LINE",
"411 174 LINE",
"411 390 LINE",
"371 400 LINE"
);
},
{
closed = 1;
nodes = (
"25 91 LINE",
"425 37 LINE",
"425 60 LINE",
"25 117 LINE"
);
}
);
width = 450;
},
{
components = (
{
name = _eye;
transform = "{-1, 0, 0, 1, 294, -64}";
},
{
name = _eye;
transform = "{-1, 0, 0, 1, 166, -58}";
}
);
layerId = "F1DD319B-D5A5-4BA6-A343-EFA3D63A9498";
paths = (
{
closed = 1;
nodes = (
"52 2 LINE",
"64 16 LINE",
"45 440 LINE",
"25 457 LINE"
);
},
{
closed = 1;
nodes = (
"52 2 LINE",
"239 1 LINE",
"404 1 LINE",
"387 21 LINE",
"64 16 LINE"
);
},
{
closed = 1;
nodes = (
"387 21 LINE",
"404 1 LINE",
"401 178 LINE",
"389 166 LINE"
);
},
{
closed = 1;
nodes = (
"86 297 LINE",
"107 316 LINE",
"95 395 LINE",
"80 412 LINE"
);
},
{
closed = 1;
nodes = (
"45 440 LINE",
"182 454 LINE",
"195 470 LINE",
"25 457 LINE"
);
},
{
closed = 1;
nodes = (
"95 395 LINE",
"204 386 LINE",
"183 407 LINE",
"80 412 LINE"
);
},
{
closed = 1;
nodes = (
"86 297 LINE",
"364 286 LINE",
"344 305 LINE",
"107 316 LINE"
);
},
{
closed = 1;
nodes = (
"250 448 LINE",
"227 468 LINE",
"238 391 LINE",
"252 406 LINE"
);
},
{
closed = 1;
nodes = (
"204 386 LINE",
"195 470 LINE",
"182 454 LINE",
"183 407 LINE"
);
},
{
closed = 1;
nodes = (
"327 380 LINE",
"347 394 LINE",
"252 406 LINE",
"238 391 LINE"
);
},
{
closed = 1;
nodes = (
"250 448 LINE",
"403 433 LINE",
"425 448 LINE",
"227 468 LINE"
);
},
{
closed = 1;
nodes = (
"344 305 LINE",
"364 286 LINE",
"347 394 LINE",
"327 380 LINE"
);
},
{
closed = 1;
nodes = (
"117 54 LINE",
"183 51 LINE",
"168 69 LINE",
"130 70 LINE"
);
},
{
closed = 1;
nodes = (
"117 54 LINE",
"130 70 LINE",
"117 220 LINE",
"99 234 LINE"
);
},
{
closed = 1;
nodes = (
"168 69 LINE",
"183 51 LINE",
"176 164 LINE",
"161 181 LINE"
);
},
{
closed = 1;
nodes = (
"198 61 LINE",
"213 75 LINE",
"223 186 LINE",
"207 168 LINE"
);
},
{
closed = 1;
nodes = (
"176 164 LINE",
"207 168 LINE",
"223 186 LINE",
"161 181 LINE"
);
},
{
closed = 1;
nodes = (
"239 78 LINE",
"250 62 LINE",
"258 158 LINE",
"245 176 LINE"
);
},
{
closed = 1;
nodes = (
"278 59 LINE",
"344 62 LINE",
"328 79 LINE",
"293 75 LINE"
);
},
{
closed = 1;
nodes = (
"278 59 LINE",
"293 75 LINE",
"291 176 LINE",
"281 160 LINE"
);
},
{
closed = 1;
nodes = (
"258 158 LINE",
"281 160 LINE",
"291 176 LINE",
"245 176 LINE"
);
},
{
closed = 1;
nodes = (
"328 79 LINE",
"344 62 LINE",
"334 160 LINE",
"322 176 LINE"
);
},
{
closed = 1;
nodes = (
"334 160 LINE",
"389 166 LINE",
"401 178 LINE",
"322 176 LINE"
);
},
{
closed = 1;
nodes = (
"117 220 LINE",
"404 212 LINE",
"388 238 LINE",
"99 234 LINE"
);
},
{
closed = 1;
nodes = (
"388 238 LINE",
"404 212 LINE",
"425 448 LINE",
"403 433 LINE"
);
},
{
closed = 1;
nodes = (
"198 61 LINE",
"250 62 LINE",
"239 78 LINE",
"213 75 LINE"
);
}
);
width = 450;
},
{
associatedMasterId = "9FEBDF96-C5A3-469C-9009-8CF8388B2B9F";
components = (
{
name = _atop;
transform = "{1, 0, 0, 1, 25, -10}";
}
);
layerId = "3468E3F3-BE31-450C-99D5-F713439336C3";
name = "Dec 17 21, 21:31";
paths = (
{
closed = 1;
nodes = (
"325 174 LINE",
"425 174 LINE",
"425 390 LINE",
"225 440 LINE",
"225 174 LINE"
);
},
{
closed = 1;
nodes = (
"425 72 LINE",
"25 174 LINE",
"25 52 LINE",
"225 0 LINE",
"425 0 LINE"
);
},
{
closed = 1;
nodes = (
"25 52 LINE",
"125 52 LINE",
"125 367 LINE",
"25 367 LINE"
);
},
{
closed = 1;
nodes = (
"25 174 LINE",
"325 174 LINE",
"325 247 LINE",
"112 300 LINE",
"25 300 LINE"
);
}
);
width = 450;
}
);
unicode = 0065;
},
{
glyphname = f;
lastChange = "2021-12-19 10:11:54 +0000";
layers = (
{
background = {
paths = (
{
closed = 1;
nodes = (
"25 -145 LINE",
"125 -145 LINE",
"125 465 LINE",
"25 490 LINE"
);
},
{
closed = 1;
nodes = (
"425 241 LINE",
"425 465 LINE",
"225 515 LINE",
"225 241 LINE"
);
},
{
closed = 1;
nodes = (
"325 97 LINE",
"25 173 LINE",
"25 0 LINE",
"325 0 LINE"
);
},
{
closed = 1;
nodes = (
"425 427 LINE",
"425 465 LINE",
"25 566 LINE",
"25 427 LINE"
);
}
);
};
components = (
{
name = _eye;
transform = "{-1, 0, 0, 1, 248, 89}";
},
{
name = _eye;
transform = "{-1, 0, 0, 1, 148, 89}";
}
);
hints = (
{
horizontal = 1;
place = "{-145, 0}";
type = Stem;
}
);
layerId = "9FEBDF96-C5A3-469C-9009-8CF8388B2B9F";
paths = (
{
closed = 1;
nodes = (
"25 -145 LINE",
"55 -145 LINE",
"63 587 LINE",
"25 603 LINE"
);
},
{
closed = 1;
nodes = (
"25 0 LINE",
"325 0 LINE",
"325 17 LINE",
"25 118 LINE"
);
},
{
closed = 1;
nodes = (
"74 -145 LINE",
"125 -145 LINE",
"125 573 LINE",
"86 585 LINE"
);
},
{
closed = 1;
nodes = (
"25 92 LINE",
"325 37 LINE",
"325 97 LINE",
"25 173 LINE"
);
},
{
closed = 1;
nodes = (
"376 241 LINE",
"386 506 LINE",
"293 527 LINE",
"296 241 LINE"
);
},
{
closed = 1;
nodes = (
"25 86 LINE",
"325 11 LINE",
"325 56 LINE",
"25 103 LINE"
);
},
{
closed = 1;
nodes = (
"47 -145 LINE",
"90 -145 LINE",
"100 581 LINE",
"56 594 LINE"
);
},
{
closed = 1;
nodes = (
"425 492 LINE",
"25 548 LINE",
"25 510 LINE",
"425 465 LINE"
);
},
{
closed = 1;
nodes = (
"225 241 LINE",
"330 241 LINE",
"330 513 LINE",
"225 552 LINE"
);
},
{
closed = 1;
nodes = (
"25 437 LINE",
"425 437 LINE",
"425 485 LINE",
"25 515 LINE"
);
},
{
closed = 1;
nodes = (
"361 241 LINE",
"425 241 LINE",
"425 502 LINE",
"353 517 LINE"
);
},
{
closed = 1;
nodes = (
"25 527 LINE",
"425 452 LINE",
"425 502 LINE",
"25 603 LINE"
);
}
);
width = 450;
},
{
components = (
{
name = _eye;
transform = "{-1, 0, 0, 1, 269, 32}";
},
{
name = _eye;
transform = "{-1, 0, 0, 1, 169, 32}";
}
);
layerId = "F1DD319B-D5A5-4BA6-A343-EFA3D63A9498";
paths = (
{
closed = 1;
nodes = (
"25 -123 LINE",
"46 -102 LINE",
"44 584 LINE",
"29 598 LINE"
);
},
{
closed = 1;
nodes = (
"25 -123 LINE",
"185 -113 LINE",
"171 -96 LINE",
"46 -102 LINE"
);
},
{
closed = 1;
nodes = (
"171 -96 LINE",
"185 -113 LINE",
"234 157 LINE",
"215 170 LINE"
);
},
{
closed = 1;
nodes = (
"234 157 LINE",
"371 174 LINE",
"393 198 LINE",
"215 170 LINE"
);
},
{
closed = 1;
nodes = (
"383 81 LINE",
"393 198 LINE",
"371 174 LINE",
"364 106 LINE"
);
},
{
closed = 1;
nodes = (
"152 110 LINE",
"383 81 LINE",
"364 106 LINE",
"171 127 LINE"
);
},
{
closed = 1;
nodes = (
"152 110 LINE",
"171 127 LINE",
"229 500 LINE",
"211 516 LINE"
);
},
{
closed = 1;
nodes = (
"316 535 LINE",
"211 516 LINE",
"229 500 LINE",
"302 516 LINE"
);
},
{
closed = 1;
nodes = (
"300 354 LINE",
"320 376 LINE",
"316 535 LINE",
"302 516 LINE"
);
},
{
closed = 1;
nodes = (
"300 354 LINE",
"415 382 LINE",
"398 402 LINE",
"320 376 LINE"
);
},
{
closed = 1;
nodes = (
"398 402 LINE",
"415 382 LINE",
"425 609 LINE",
"402 587 LINE"
);
},
{
closed = 1;
nodes = (
"44 584 LINE",
"402 587 LINE",
"425 609 LINE",
"29 598 LINE"
);
}
);
width = 450;
},
{
associatedMasterId = "9FEBDF96-C5A3-469C-9009-8CF8388B2B9F";
components = (
{
name = _atop;
transform = "{1, 0, 0, 1, 25, 66}";
}
);
hints = (
{
horizontal = 1;
origin = "{0, 0}";
target = "{0, 1}";
type = Stem;
}
);
layerId = "E7DAB782-58CB-42CD-8AE0-3EE68F2036D4";
name = "Dec 17 21, 21:31";
paths = (
{
closed = 1;
nodes = (
"25 -145 LINE",
"125 -145 LINE",
"125 465 LINE",
"25 490 LINE"
);
},
{
closed = 1;
nodes = (
"425 241 LINE",
"425 465 LINE",
"225 515 LINE",
"225 241 LINE"
);
},
{
closed = 1;
nodes = (
"325 97 LINE",
"25 173 LINE",
"25 0 LINE",
"325 0 LINE"
);
}
);
width = 450;
}
);
unicode = 0066;
},
{
glyphname = g;
lastChange = "2021-12-19 10:32:31 +0000";
layers = (
{
background = {
paths = (
{
closed = 1;
nodes = (
"425 351 LINE",
"425 389 LINE",
"25 490 LINE",
"25 351 LINE"
);
},
{
closed = 1;
nodes = (
"425 -81 LINE",
"425 389 LINE",
"225 439 LINE",
"225 -81 LINE"
);
},
{
closed = 1;
nodes = (
"25 2 LINE",
"125 54 LINE",
"125 464 LINE",
"25 490 LINE"
);
},
{
closed = 1;
nodes = (
"425 71 LINE",
"25 173 LINE",
"25 0 LINE",
"425 0 LINE"
);
},
{
closed = 1;
nodes = (
"228 -25 LINE",
"25 -76 LINE",
"25 -133 LINE",
"225 -133 LINE",
"425 -81 LINE"
);
}
);
};
components = (
{
name = _eye;
transform = "{-1, 0, 0, 1, 216, -7}";
},
{
name = _eye;
transform = "{-1, 0, 0, 1, 141, -7}";
}
);
layerId = "9FEBDF96-C5A3-469C-9009-8CF8388B2B9F";
paths = (
{
closed = 1;
nodes = (
"25 0 LINE",
"59 0 LINE",
"84 462 LINE",
"25 490 LINE"
);
},
{
closed = 1;
nodes = (
"25 41 LINE",
"425 10 LINE",
"425 42 LINE",
"25 141 LINE"
);
},
{
closed = 1;
nodes = (
"225 -133 LINE",
"315 -104 LINE",
"300 415 LINE",
"225 439 LINE"
);
},
{
closed = 1;
nodes = (
"25 -133 LINE",
"225 -133 LINE",
"425 -81 LINE",
"425 -45 LINE",
"25 -87 LINE"
);
},
{
closed = 1;
nodes = (
"353 -98 LINE",
"425 -81 LINE",
"425 389 LINE",
"349 407 LINE"
);
},
{
closed = 1;
nodes = (
"25 407 LINE",
"425 363 LINE",
"425 389 LINE",
"25 490 LINE"
);
},
{
closed = 1;
nodes = (
"80 0 LINE",
"125 0 LINE",
"125 464 LINE",
"61 474 LINE"
);
},
{
closed = 1;
nodes = (
"25 85 LINE",
"425 26 LINE",
"425 71 LINE",
"25 173 LINE"
);
},
{
closed = 1;
nodes = (
"277 -117 LINE",
"333 -102 LINE",
"341 402 LINE",
"257 426 LINE"
);
},
{
closed = 1;
nodes = (
"25 351 LINE",
"425 351 LINE",
"425 375 LINE",
"25 415 LINE"
);
},
{
closed = 1;
nodes = (
"50 0 LINE",
"84 0 LINE",
"93 468 LINE",
"50 480 LINE"
);
},
{
closed = 1;
nodes = (
"25 0 LINE",
"425 0 LINE",
"425 16 LINE",
"25 51 LINE"
);
},
{
closed = 1;
nodes = (
"326 -102 LINE",
"363 -94 LINE",
"368 400 LINE",
"300 415 LINE"
);
},
{
closed = 1;
nodes = (
"25 -127 LINE",
"425 -60 LINE",
"425 26 LINE",
"25 -76 LINE"
);
}
);
width = 450;
},
{
components = (
{
name = _eye;
transform = "{-1, 0, 0, 1, 163, -36}";
},
{
name = _eye;
transform = "{-1, 0, 0, 1, 88, -36}";
}
);
layerId = "F1DD319B-D5A5-4BA6-A343-EFA3D63A9498";
paths = (
{
closed = 1;
nodes = (
"50 158 LINE",
"64 177 LINE",
"45 442 LINE",
"25 463 LINE"
);
},
{
closed = 1;
nodes = (
"50 158 LINE",
"293 169 LINE",
"318 189 LINE",
"64 177 LINE"
);
},
{
closed = 1;
nodes = (
"204 -47 LINE",
"234 -27 LINE",
"318 189 LINE",
"293 169 LINE"
);
},
{
closed = 1;
nodes = (
"53 -127 LINE",
"185 -127 LINE",
"425 -127 LINE",
"409 -109 LINE",
"74 -104 LINE"
);
},
{
closed = 1;
nodes = (
"409 -109 LINE",
"425 -127 LINE",
"386 441 LINE",
"368 425 LINE"
);
},
{
closed = 1;
nodes = (
"98 487 LINE",
"368 425 LINE",
"386 441 LINE",
"79 508 LINE"
);
},
{
closed = 1;
nodes = (
"124 220 LINE",
"138 240 LINE",
"98 487 LINE",
"79 508 LINE"
);
},
{
closed = 1;
nodes = (
"124 220 LINE",
"355 225 LINE",
"326 244 LINE",
"138 240 LINE"
);
},
{
closed = 1;
nodes = (
"326 244 LINE",
"355 225 LINE",
"306 409 LINE",
"290 391 LINE"
);
},
{
closed = 1;
nodes = (
"45 442 LINE",
"290 391 LINE",
"306 409 LINE",
"25 463 LINE"
);
},
{
closed = 1;
nodes = (
"53 -127 LINE",
"74 -104 LINE",
"105 83 LINE",
"87 98 LINE"
);
},
{
closed = 1;
nodes = (
"105 83 LINE",
"339 75 LINE",
"355 91 LINE",
"87 98 LINE"
);
},
{
closed = 1;
nodes = (
"336 -29 LINE",
"355 -53 LINE",
"355 91 LINE",
"339 75 LINE"
);
},
{
closed = 1;
nodes = (
"204 -47 LINE",
"355 -53 LINE",
"336 -29 LINE",
"234 -27 LINE"
);
}
);
width = 450;
},
{
associatedMasterId = "9FEBDF96-C5A3-469C-9009-8CF8388B2B9F";
components = (
{
alignment = -1;
name = _atop;
transform = "{1, 0, 0, 1, 25, -10}";
},
{
alignment = -1;
name = y;
}
);
layerId = "82E0BEE3-CDFB-497D-BF91-1D6A554078BD";
name = "Dec 17 21, 21:31";
width = 450;
}
);
unicode = 0067;
},
